<svg width="321" height="510" viewBox="0 0 321 510" fill="none" xmlns="http://www.w3.org/2000/svg">
<path fill-rule="evenodd" clip-rule="evenodd" d="M39.2492 193.161C41.7537 196.603 45.2659 199.644 48.1953 202.592C50.2058 204.621 52.157 206.74 54.2713 208.67C55.0271 209.357 55.778 210.64 56.7215 211.075C56.9734 211.188 57.5514 209.638 57.6502 209.436C58.4604 207.851 59.5323 206.211 60.5795 204.774C63.6768 200.533 66.3889 196.627 67.5843 191.418C68.0388 189.448 68.6908 186.979 67.441 185.216C65.2181 184.342 56.6079 178.753 55.7978 177.869C54.4689 176.427 53.9107 174.304 52.7054 172.788C47.5827 166.325 45.9921 157.477 41.1115 150.86C40.0494 149.414 38.0191 148.767 36.7051 147.587C33.8103 144.994 30.5105 142.851 27.8528 140.007C27.4033 139.523 26.2473 136.911 25.3187 137.677C24.3208 138.496 24.306 141.424 24.306 142.619C24.306 143.977 24.6468 145.291 25.1952 146.54C24.6715 145.829 24.1924 145.128 23.7675 144.664C19.7465 140.244 16.4417 135.529 13.2061 130.532C11.645 128.122 9.95071 124.943 7.00654 124.079C6.6805 123.98 5.01577 123.817 4.84781 124.143C4.56624 124.671 5.68264 125.876 5.08491 125.925C3.71657 126.024 2.53596 124.123 1.03424 124.311C0.41675 124.39 0.0215164 125.501 0.0017569 126.009C-0.0525818 127.372 1.16761 129.253 1.711 130.488C1.87895 130.868 2.55073 132.082 2.40748 132.468C2.00735 133.564 0.574824 133.712 0.846518 135.312C1.23183 137.588 2.13087 139.849 2.80269 142.056C3.1139 143.079 3.89935 144.273 3.85489 145.38C3.82031 146.219 1.11326 145.7 1.33062 147.369C1.63689 149.675 3.03486 151.907 3.72645 154.119C5.39119 159.447 7.24859 165.678 10.341 170.369C14.4065 176.536 20.359 181.686 26.0547 186.273C29.9523 189.418 34.8329 190.821 39.2492 193.161Z" fill="#F6BC8B"/>
<path fill-rule="evenodd" clip-rule="evenodd" d="M23.916 144.831C24.2223 145.197 24.5582 145.666 24.9188 146.16C25.3782 147.31 25.9661 148.377 26.7614 149.275C28.0754 150.757 29.7056 151.502 31.1628 152.732C31.9927 153.433 32.5509 154.277 33.2524 155.077C33.7711 155.67 34.7738 156.415 34.9418 157.24C35.2925 158.958 34.2354 160.227 33.7068 161.738C33.2919 162.928 33.1833 164.118 33.0202 165.362C32.8128 166.937 33.3363 169.041 33.7068 170.576C33.7661 170.808 34.3095 171.919 34.0428 172.112C33.8649 172.24 33.5636 171.559 33.5241 171.48C33.1239 170.715 32.9609 169.623 32.7683 168.784C32.4867 167.569 32.1261 165.93 32.3286 164.696C32.5954 163.115 33.4302 160.582 31.0097 160.869C28.1742 161.195 25.5758 163.609 22.9972 164.696C22.3599 164.967 21.7029 164.671 21.0904 164.923C19.6578 165.515 18.2796 165.984 16.7383 165.629C16.5654 165.589 17.0348 165.436 17.2027 165.392C17.5386 165.293 17.8597 165.16 18.1956 165.071C19.1737 164.809 20.3099 164.444 21.1793 163.896C23.5455 162.395 25.1016 160.484 27.1517 158.588C27.7346 158.049 29.4536 156.81 29.6364 155.966C29.6956 155.699 27.8827 156.524 27.7395 156.682C26.7169 157.837 25.23 158.686 24.0346 159.654C23.9012 159.763 22.9379 160.533 22.7205 160.286C22.2858 159.792 23.501 158.716 23.8419 158.444C25.2942 157.294 27.9272 155.63 28.2137 153.665C28.3075 153.008 27.695 152.287 27.3295 151.784C26.6527 150.865 26.1439 149.927 25.6549 148.895C25.0423 147.616 24.3754 146.234 23.916 144.831ZM3.83042 144.92C4.112 145.705 4.41334 146.481 4.76901 147.236C5.44084 148.668 7.94536 152.149 8.53815 153.62C8.88888 154.494 9.23467 155.541 9.71384 156.356C9.87192 156.622 9.86203 157.319 10.1387 157.18C10.3412 157.082 10.356 156.568 10.3659 156.395C10.4103 155.561 10.7858 154.939 10.9933 154.154C11.0328 154.001 11.2057 153.201 11.3687 153.166C11.7639 153.087 11.3489 154.835 11.3193 154.978C11.0822 156.055 11.0229 157.111 10.8204 158.193C10.6919 158.879 10.2819 159.506 10.1634 160.207C10.1337 160.38 9.68417 161.768 9.25441 161.55C8.80488 161.328 9.52118 159.649 9.5854 159.279C9.78299 158.089 9.42241 156.934 8.9383 155.842C7.83671 153.344 4.78881 148.856 3.69215 146.352C3.60817 146.169 3.52419 145.987 3.43527 145.799C3.68226 145.705 3.84527 145.582 3.85515 145.379C3.86009 145.226 3.85018 145.073 3.83042 144.92ZM0.333008 127.589C0.723259 128.616 1.36052 129.688 1.71125 130.488C1.86439 130.838 2.46209 131.919 2.42751 132.379C2.65969 132.828 2.90671 133.272 3.19816 133.687C5.72244 137.277 7.34271 141.385 9.47674 145.187C9.94108 146.016 11.7985 149.651 12.1689 150.534C12.3122 150.875 12.4159 151.502 12.7321 151.705C12.9248 151.828 13.3249 151.157 13.4039 151.043C13.7596 150.52 15.6812 149.038 15.5133 148.451C15.4392 148.194 14.8908 148.441 14.7673 148.515C14.1103 148.9 13.0087 149.369 12.4061 148.688C11.2649 147.409 9.38288 142.659 8.55792 141.168C7.69839 139.617 6.49301 138.21 5.67299 136.64C4.55658 134.497 3.40066 132.102 1.98291 130.142C1.45434 129.411 1.00483 128.285 0.333008 127.589ZM5.08023 125.199C5.25312 125.58 5.39145 125.901 5.08517 125.925C4.89746 125.935 4.71468 125.915 4.53191 125.866C4.56649 125.905 4.5961 125.95 4.62574 125.994C5.42106 127.14 6.39919 128.187 7.13524 129.372C8.01453 130.779 9.29889 131.885 10.0893 133.346C11.2304 135.465 13.7349 139.553 14.7871 141.721C15.3206 142.822 16.111 143.814 16.684 144.891C16.9063 145.315 16.4617 146.486 16.3678 146.945C16.3283 147.142 16.0665 147.577 16.2493 147.779C16.3135 147.848 16.7087 147.093 16.7433 147.043C17.094 146.5 17.3608 145.883 17.8103 145.394C18.3982 144.757 19.2133 144.412 19.8703 143.849C20.058 143.691 20.6409 143.385 20.4531 143.113C19.9888 142.451 18.3092 143.572 17.5534 143.271C16.3975 142.812 13.8584 138.546 13.3545 137.519C12.411 135.583 11.2057 133.702 9.89167 131.994C8.20717 129.801 6.95244 127.244 5.08023 125.199ZM2.79306 142.022C2.88692 142.269 2.9808 142.516 3.06972 142.763C2.96598 142.521 2.87211 142.284 2.80295 142.056L2.79306 142.022Z" fill="#DE9254"/>
<path fill-rule="evenodd" clip-rule="evenodd" d="M38.9941 191.71C40.5897 190.713 41.8741 189.691 43.2523 188.521C45.1196 186.931 47.0313 184.951 48.3898 182.882C49.032 181.899 50.3608 179.297 52.0107 179.514C52.2824 179.549 52.1738 181.198 52.3467 181.509C53.1173 182.877 54.3226 184.003 55.3402 185.188C56.4171 186.442 57.578 187.726 58.8228 188.812C59.0106 188.975 60.122 189.562 60.0726 189.799C59.959 190.397 59.0994 191.31 58.7981 191.859C57.5434 194.164 56.017 196.391 54.9697 198.806C54.2287 200.509 53.7397 202.292 53.1271 204.025C52.8159 204.909 53.1173 205.955 51.9021 205.852C51.3537 205.802 50.2719 204.074 49.8223 203.719C47.4561 201.838 45.0504 199.704 43.1239 197.374C41.222 195.068 39.9475 193.483 38.9941 191.71Z" fill="url(#paint0_linear_561_1097)"/>
<path fill-rule="evenodd" clip-rule="evenodd" d="M33.3217 162.666C32.8278 163.535 33.0254 165.096 33.0254 166.029C33.0254 167.545 33.302 168.962 33.5687 170.448C33.9096 172.344 34.3986 174.413 35.4064 176.087C35.5644 176.349 35.7423 176.6 35.8954 176.862C36.0337 177.094 36.1572 177.331 36.3153 177.553C36.4289 177.721 36.5524 177.884 36.6709 178.052C36.829 178.274 36.829 178.25 36.997 178.467C37.2983 178.857 38.4444 180.106 38.8494 179.217C39.0421 178.798 38.9433 178.264 39.0668 177.82C39.1953 177.341 39.4768 176.911 39.6102 176.437C39.7683 175.889 39.8128 175.321 40.0005 174.778C40.7563 172.635 41.7343 170.571 42.1345 168.32C42.2679 167.589 42.4407 166.72 42.3123 165.975C42.1542 165.091 41.7393 164.246 41.5269 163.377C41.1169 161.728 40.6229 160.114 40.0647 158.514C39.7485 157.6 39.6646 156.499 39.0767 155.694C37.9652 154.154 36.0485 156.238 35.5101 157.2C35.1445 157.862 34.9371 158.617 34.6753 159.324" fill="url(#paint1_linear_561_1097)"/>
<path fill-rule="evenodd" clip-rule="evenodd" d="M28.1739 162.523C27.8825 162.479 27.7343 162.76 27.5367 162.933C27.013 163.377 26.4351 163.777 25.867 164.162C25.2692 164.572 24.6469 164.947 24.0491 165.357C23.5749 165.683 23.1402 166.058 22.6709 166.394C21.179 167.466 19.4451 168.112 18.2744 169.579C17.7409 170.246 17.2123 170.952 17.9879 171.663C19.1784 172.739 20.9222 173.386 22.3943 173.954C24.8988 174.926 28.3913 176.492 30.6191 174.176C31.5824 173.174 31.3256 171.435 31.2465 170.191C31.1378 168.606 31.0885 166.769 31.4096 165.209C31.6961 163.851 32.4963 161.669 30.2684 161.792C29.9671 161.812 29.6609 161.891 29.3743 161.995" fill="url(#paint2_linear_561_1097)"/>
<path fill-rule="evenodd" clip-rule="evenodd" d="M19.3063 148.372C18.5258 148.732 17.9775 149.828 17.4193 150.445C15.4384 152.628 13.823 155.028 12.5337 157.679C12.1188 158.533 11.9459 159.383 11.8076 160.311C11.7681 160.558 11.6446 160.963 11.9558 161.086C12.5091 161.303 13.2402 160.987 13.7341 160.78C14.9988 160.257 16.1053 159.541 17.3057 158.899C19.3804 157.793 21.5244 156.894 23.6238 155.847C24.3697 155.472 25.4466 155.062 25.7726 154.208C26.3358 152.746 25.1848 151.092 24.8291 149.72C24.7402 149.384 24.6069 149.053 24.5624 148.717C24.4241 147.725 24.1079 144.466 22.3048 145.597C22.0825 145.735 21.9393 145.849 21.7417 146.031C21.4206 146.328 21.2181 146.555 20.9168 146.881" fill="url(#paint3_linear_561_1097)"/>
<path fill-rule="evenodd" clip-rule="evenodd" d="M158.676 479.91L140.186 492.278C140.186 492.278 116.327 496.925 115.097 496.944C113.862 496.964 107.212 497.917 106.15 502.944L202.942 502.855L204.474 498.391L203.56 493.76L158.676 479.91Z" fill="#31302C"/>
<path d="M203.426 502.47H105.565V507.384H203.426V502.47Z" fill="#171614"/>
<path fill-rule="evenodd" clip-rule="evenodd" d="M134.248 251.949C132.884 258.694 130.019 261.676 129.767 265.206C129.515 268.742 133.512 301.799 133.512 301.799C133.512 301.799 140.768 334.467 142.048 342.026C143.322 349.586 150.791 385.087 150.791 385.087C150.791 385.087 161.14 439.624 161.264 447.03C161.387 454.436 160.316 470.054 160.316 470.054L156.783 473.649L156.833 479.609C156.833 479.609 156.759 481.055 163.062 484.057C169.36 487.059 189.668 494.703 189.668 494.703C189.668 494.703 205.333 495.927 206.276 496.036C207.22 496.145 208.884 490.852 208.884 490.852L207.852 484.299L209.882 478.848L204.518 466.667C204.518 466.667 208.351 437.723 209.092 430.425C209.838 423.122 201.85 394.563 201.85 394.563L204.35 363.594L209.299 288.961L183.637 242.962C183.637 242.962 135.611 245.204 134.248 251.949Z" fill="#52504A"/>
<path fill-rule="evenodd" clip-rule="evenodd" d="M131.076 280.562C135.215 285.915 139.568 290.986 143.893 296.325C145.274 298.034 149.946 301.3 150.261 303.601C150.316 304.007 148.169 303.884 147.941 303.925C146.815 304.13 146.036 305.109 144.791 304.694C144.577 304.622 142.635 303.56 142.635 304.12C142.622 308.08 145.101 312.695 146.095 316.499C148.543 325.843 151.665 335.033 154.149 344.382C156.811 354.377 159.45 363.904 159.454 374.364C159.454 375.672 159.906 382.861 158.575 384.173C157.686 385.053 152.421 382.36 151.738 382.027C151.296 381.813 150.703 381.604 150.015 381.39C148.073 372.096 143.073 348.086 142.047 342.026C140.771 334.468 133.51 301.797 133.51 301.797C133.51 301.797 132.161 290.617 131.076 280.562Z" fill="#5C5954"/>
<path fill-rule="evenodd" clip-rule="evenodd" d="M152.025 285.414C148.379 283.755 145.429 279.605 143.027 276.566C141.008 274.019 138.296 271.573 136.605 268.803C136.277 268.265 138.123 266.661 138.88 267.008C140.124 267.582 141.646 269.317 142.79 270.169C147.722 273.842 151.865 278.27 156.483 282.311C157.955 283.596 159.5 284.99 160.644 286.594C160.758 286.758 161.679 287.865 161.606 288.093C161.478 288.512 160.024 288.658 159.646 288.735C157.499 289.172 155.339 287.236 153.301 286.452" fill="#5C5954"/>
<path fill-rule="evenodd" clip-rule="evenodd" d="M209.092 292.106L168.729 300.441C165.78 300.17 161.684 298.165 158.982 296.916C158.819 296.842 156.334 295.731 156.221 295.992C155.658 297.261 157.061 300.392 157.357 301.695C158.063 304.841 157.93 308.302 159.461 311.235C160.627 313.462 163.453 314.286 164.223 316.78C169.178 332.733 168.709 349.956 172.636 366.092C173.333 368.941 177.013 383.922 175.975 386.514C174.721 389.664 170.201 390.42 167.153 390.064C166.506 389.99 162.49 388.613 162.075 389.383C160.474 392.346 172.325 391.649 173.496 391.649C175.62 391.649 177.912 390.691 180.036 391.057C180.683 391.17 193.428 400.246 193.843 401.07C193.858 401.1 191.121 401.006 190.943 400.981C189.076 400.72 187.194 400.157 185.366 399.717C179.843 398.384 171.821 398.142 166.94 396.513C164.836 395.812 162.687 395.274 160.598 394.533C160.375 394.454 157.619 393.466 157.619 393.511C157.224 399.831 166.955 400.863 171.12 401.307C171.989 401.396 175.314 401.357 175.941 402.132C176.05 402.255 175.234 402.878 175.2 402.907C174.291 403.623 169.801 405.88 170.24 407.114C170.922 409.055 175.012 409.83 176.524 411.064C178.702 412.847 183.785 421.552 184.833 424.381C186.952 430.138 184.388 437.93 184.996 443.964C186.033 454.288 188.681 464.805 187.772 475.273C187.713 475.945 184.047 475.668 183.608 475.668C180.085 475.668 176.613 474.676 173.288 473.58C172.73 473.392 170.186 471.733 169.722 471.97C169.578 472.049 170.057 472.859 170.112 472.953C170.932 474.36 172.839 476.113 174.493 476.384C179.695 477.238 187.159 476.73 186.581 483.396C186.507 484.23 180.619 483.425 177.64 482.724C171.342 481.233 165.172 479.13 158.819 477.712C158.617 477.668 157.772 477.362 156.814 477.031L156.833 479.608C156.833 479.608 156.759 481.055 163.063 484.057C169.361 487.059 189.669 494.703 189.669 494.703C189.669 494.703 205.333 495.927 206.277 496.036C207.22 496.145 208.885 490.851 208.885 490.851L207.853 484.299L209.883 478.848L204.518 466.667C204.518 466.667 208.351 437.722 209.092 430.425C209.838 423.122 201.851 394.563 201.851 394.563L204.35 363.594L209.092 292.106Z" fill="#43423D"/>
<path fill-rule="evenodd" clip-rule="evenodd" d="M183.188 394.893C181.953 394.563 180.723 394.311 179.488 393.995C178.174 393.659 176.869 393.412 175.546 393.15C175.145 393.071 174.726 393.017 174.316 393.002C174.123 392.997 173.639 392.79 173.733 392.963C174.157 393.758 176.519 394.38 177.294 394.646C180.273 395.664 183.094 397.209 186.023 398.379C187.056 398.794 187.885 399.515 189.051 399.525C189.199 399.525 189.921 399.707 189.995 399.485C190.222 398.774 188.641 398.31 188.3 397.94" fill="#43423D"/>
<path fill-rule="evenodd" clip-rule="evenodd" d="M158.982 388.701C158.182 388.618 157.456 388.647 156.67 388.381C156.176 388.213 155.104 387.472 154.6 387.546C154.294 387.591 154.768 388.519 154.818 388.618C155.272 389.536 156.077 390.681 157.021 391.116C157.866 391.506 158.943 391.294 159.842 391.442C160.133 391.491 160.795 391.679 161.077 391.551C161.561 391.328 161.062 389.6 160.834 389.348" fill="#43423D"/>
<path fill-rule="evenodd" clip-rule="evenodd" d="M143.091 289.327C142.819 289.44 142.429 289.04 142.241 288.887C141.377 288.181 140.646 287.381 139.865 286.591C137.173 283.9 134.011 280.518 132.638 276.884C132.208 275.748 132.011 274.691 131.818 273.506C131.798 273.398 131.635 272.341 131.719 272.292C131.917 272.173 132.431 272.919 132.48 273.042C132.92 274.109 133.433 275.161 133.903 276.222C134.708 278.054 137.435 279.565 138.922 280.661C142.908 283.609 146.87 286.522 150.96 289.327C152.165 290.151 153.44 290.922 154.68 291.697C155.045 291.924 156.177 292.344 156.389 292.758C156.404 292.788 155.717 292.882 155.668 292.892C154.867 293.045 154.507 293.331 153.692 292.916C153.035 292.581 152.343 292.329 151.666 292.028C151.123 291.786 150.585 291.544 150.046 291.282C149.621 291.079 149.196 290.847 148.757 290.675C148.431 290.546 148.1 290.398 147.799 290.225C146.964 289.756 143.259 287.638 143.995 290.087" fill="#43423D"/>
<path fill-rule="evenodd" clip-rule="evenodd" d="M131.739 262.51C131.67 263.527 131.734 264.525 131.531 265.532C131.423 266.085 131.116 266.841 131.23 267.423C131.546 269.013 132.682 270.633 133.349 272.104C133.818 273.136 134.189 274.232 134.762 275.22C134.935 275.521 135.128 275.797 135.305 276.099C135.409 276.281 135.686 276.844 135.651 276.637C135.429 275.279 134.624 274.015 134.387 272.627C133.883 269.675 134.164 266.663 133.898 263.7C133.848 263.162 133.858 258.58 132.267 260.817" fill="#43423D"/>
<path fill-rule="evenodd" clip-rule="evenodd" d="M151.869 255.682C151.844 257.034 151.839 258.417 151.958 259.76C152.012 260.412 152.195 261.157 152.136 261.809C152.126 261.952 151.701 261.888 151.627 261.903C151.276 261.962 150.209 262.263 150.026 261.863C149.858 261.503 149.883 261.024 149.824 260.634C149.641 259.34 149.626 257.963 149.695 256.659C149.715 256.254 149.75 255.854 149.779 255.454C149.839 254.63 149.532 254.106 150.422 253.879C150.604 253.835 150.777 253.795 150.96 253.771C151.197 253.741 152.071 253.455 152.205 253.8" fill="#43423D"/>
<path fill-rule="evenodd" clip-rule="evenodd" d="M162.361 252.778C162.361 252.778 165.77 296.343 167.272 300.263C168.778 304.184 211.76 395.145 211.76 395.145C211.76 395.145 213.405 408.027 213.662 414.797C213.919 421.562 213.227 444.324 214.428 454.333C215.628 464.336 215.584 488.239 215.584 488.239L213.331 494.584L216.275 498.831L252.692 491.488L264.103 494.007L268.47 489.276C268.47 489.276 265.096 483.223 265.066 481.623C265.037 480.023 266.978 446.655 266.954 436.829C266.929 427.003 266.479 401.534 265.106 397.347C263.733 393.16 258.412 387.877 256.822 384.648C255.236 381.419 255.266 377.271 255.266 377.271L252.949 373.36L252.178 296.037C253.957 293.84 255.068 291.553 255.7 289.208C255.794 285.836 254.742 283.12 253.571 280.473L238.954 249.075L163.814 248.334" fill="#52504A"/>
<path fill-rule="evenodd" clip-rule="evenodd" d="M169.382 304.963C175.234 317.675 191.693 352.619 202.295 375.089C205.103 378.588 208.335 381.927 210.632 382.492C213.622 383.226 217.738 381.344 220.569 380.638C223.335 379.945 226.293 379.462 228.969 378.497C229.388 378.346 231.549 377.713 231.471 376.97C229.124 354.55 218.435 333.757 217.013 310.854C216.69 305.674 222.146 298.986 224.912 294.981C226.175 293.15 228.892 289.687 228.614 287.259C228.454 285.837 225.013 282.753 224.151 281.459C223.021 279.769 221.941 277.208 219.762 276.502C218.499 276.097 217.259 277.637 216.302 278.22C212.811 280.338 209.005 282.302 205.746 284.744C198.48 290.179 190.481 293.71 182.641 298.006C178.689 300.17 174.824 303.036 170.827 304.977L169.382 304.963Z" fill="#5C5954"/>
<path fill-rule="evenodd" clip-rule="evenodd" d="M187.965 263.267C186.379 264.269 185.786 266.62 184.856 268.16C182.55 272.001 180.18 275.819 177.796 279.614C176.479 281.719 175.289 283.76 174.218 285.988C173.899 286.653 174.263 289.323 175.335 288.771C176.073 288.389 176.643 287.614 177.281 287.095C179.874 285.008 182.655 282.985 185.367 281.049C187.892 279.249 190.248 277.217 192.778 275.427C194.957 273.887 197.441 272.138 199.036 269.964C200.823 267.531 200.39 264.101 198.913 261.686C197.897 260.023 195.549 259.18 193.89 260.319" fill="#5C5954"/>
<path fill-rule="evenodd" clip-rule="evenodd" d="M206.233 271.491C202.788 273.996 199.725 277.072 196.352 279.714C194.004 281.555 191.721 283.486 189.492 285.468C187.4 287.327 185.403 289.236 183.516 291.291C183.133 291.705 181.821 292.68 181.825 293.323C181.825 293.469 182.646 292.999 182.687 292.972C183.452 292.498 184.232 292.093 184.957 291.541C186.721 290.211 188.735 289.309 190.577 288.106C192.067 287.136 193.685 286.393 195.167 285.418C199.164 282.803 202.87 279.669 206.63 276.725C207.077 276.379 207.491 275.987 207.938 275.637C208.932 274.857 210.541 274.119 211.197 272.989C211.817 271.914 211.302 270.051 210.03 269.755" fill="#5C5954"/>
<path fill-rule="evenodd" clip-rule="evenodd" d="M163.457 254.432C162.795 255.178 163.477 258.219 163.477 259.177C163.482 264.554 164.035 269.986 164.509 275.348C164.865 279.407 165.132 283.476 165.562 287.529C166.199 293.514 166.614 298.392 170.23 303.187C170.358 303.359 170.294 302.757 170.299 302.54C170.309 302.189 170.225 301.849 170.215 301.493C170.175 300.407 170.052 299.32 170.007 298.234C169.884 295.217 169.523 291.386 170.383 288.472C171.208 285.683 170.62 282.977 170.432 280.074C170.042 274 169.425 267.922 168.555 261.903C168.254 259.809 168.224 257.612 168.031 255.499C167.962 254.763 168.209 253.657 167.686 253.055C167.31 252.615 166.184 252.581 165.665 252.339" fill="#43423D"/>
<path fill-rule="evenodd" clip-rule="evenodd" d="M167.73 295.568C167.74 297.528 169.183 299.908 169.835 301.755C169.904 301.942 170.324 303.671 170.759 303.596C172.631 303.276 174.241 301.523 175.792 300.55C180.915 297.331 186.062 294.032 190.819 290.285C193.191 288.418 195.819 286.858 198.086 284.863C198.249 284.72 200.269 283.184 200.23 283.031C200.136 282.705 199.049 283.377 198.955 283.436C197.681 284.221 196.337 284.883 195.073 285.683C191.313 288.068 187.564 290.546 183.849 293.02C182.471 293.933 181.053 295.731 179.384 296.096C179.132 296.15 179.023 295.41 178.984 295.272C178.741 294.348 178.751 294.299 179.453 293.509C181.547 291.144 183.834 288.858 185.677 286.265C185.964 285.86 187.347 284.824 187.327 284.285C187.302 283.703 186.176 283.994 185.667 283.708C185.247 283.471 184.408 282.246 183.933 282.661C180.604 285.559 178.134 289.386 174.345 291.8C172.977 292.674 170.586 288.408 170.087 287.638C170.037 287.564 169.064 285.984 169.044 286.004C168.822 286.201 168.793 287.05 168.723 287.337C168.467 288.389 167.938 290.764 168.432 291.751" fill="#43423D"/>
<path fill-rule="evenodd" clip-rule="evenodd" d="M162.089 293.568C160.844 293.524 159.55 292.581 158.458 292.042C157.702 291.672 156.877 291.44 156.126 291.065C155.588 290.793 153.869 289.993 153.73 289.287C153.721 289.238 156.862 289.751 157.119 289.781C159.737 290.092 163.378 290.092 163.531 293.514" fill="#43423D"/>
<path fill-rule="evenodd" clip-rule="evenodd" d="M171.277 303.424C167.992 303.606 164.154 301.532 161.284 300.219C157.94 298.688 154.497 297.538 151.439 295.469C149.922 294.437 148.09 293.835 146.746 292.575C146.682 292.511 145.585 291.361 145.714 291.242C146.405 290.61 148.875 292.166 149.631 292.383C153.479 293.499 156.991 294.763 160.647 296.343C160.928 296.466 162.806 297.251 163.112 296.861C163.423 296.466 163.685 294.383 164.149 294.284C165.542 293.978 168.59 295.597 169.968 295.923C170.373 296.022 170.65 297.286 170.798 297.607C171.238 298.59 172.033 301.33 172.997 301.631" fill="#43423D"/>
<path fill-rule="evenodd" clip-rule="evenodd" d="M169.242 253.938C168.496 260.975 171.134 268.193 171.42 275.22C171.514 277.624 171.889 280.039 172.176 282.424C172.27 283.229 172.295 284.068 172.472 284.858C172.556 285.218 172.67 286.29 172.749 285.929C173.258 283.609 172.695 280.414 172.695 278.044C172.695 272.479 172.591 266.46 173.149 260.915C173.307 259.35 175.194 254.072 173.357 253.213" fill="#43423D"/>
<path fill-rule="evenodd" clip-rule="evenodd" d="M239.314 249.85L226.989 250.971C228.258 253.247 237.921 261.858 237.733 262.747C237.091 265.774 227.893 270.465 225.373 271.788C225.28 271.837 223.477 272.721 223.526 272.82C224.692 275.215 233.332 269.749 235.367 271.319C238.647 273.837 240.786 282.908 241.799 286.966C242.979 291.702 224.316 308.094 228.209 310.983C238.869 318.898 242.125 302.974 250.261 300.268C250.918 300.051 249.633 301.508 249.283 302.105C248.769 302.969 248.132 303.922 247.568 304.747C245.617 307.606 243.434 310.267 241.265 312.973C238.034 316.997 239.684 323.144 238.879 327.964C238.479 330.353 231.301 332.886 229.681 334.59C223.057 341.567 237.575 372.304 238.099 381.265C238.163 382.366 225.126 388.089 225.625 389.936C225.65 390.035 226.475 390.193 226.613 390.183C231.701 389.822 236.355 386.771 241.171 386.544C241.522 386.529 241.067 387.907 241.048 387.966C240.02 390.879 236.745 395.876 242.051 394.454C246.491 393.264 250.172 389.867 254.084 387.679C254.524 387.433 255.205 386.83 255.443 387.437C257.656 393.052 251.802 394.444 248.122 396.172C234.853 402.389 231.785 400.117 219.273 397.209C219.139 397.179 219.362 397.461 219.401 397.589C220.033 399.5 221.688 403.658 224 404.112C226.307 404.566 240.766 406.684 241.314 407.356C244.427 411.168 238.899 437.52 239.422 443.84C240.144 452.516 244.096 462.954 247.904 470.686C248.364 471.624 252.172 478.749 251.397 479.46C248.556 482.067 239.269 481.722 232.225 482.245C227.404 482.601 223.64 483.366 223.719 485.771C223.743 486.501 230.802 489.78 231.395 489.676C233.588 489.311 236.34 484.018 238.548 483.746C238.85 483.712 240.435 483.707 243.043 483.731C243.547 484.072 244.017 484.423 244.041 484.882C244.051 485.055 243.202 485.543 243.078 485.657C242.11 486.556 241.384 487.677 240.391 488.58C236.78 491.878 231.079 492.752 226.312 492.357C223.852 492.15 220.597 490.96 218.132 491.538C217.815 491.612 218.67 491.898 218.971 492.032C219.455 492.244 219.969 492.372 220.478 492.525C221.95 492.965 224.766 492.871 225.981 493.779C226.144 493.898 225.581 493.765 225.378 493.765C224.968 493.755 224.608 493.765 224.203 493.829C223.106 494.002 221.935 494.095 220.819 494.105C219.115 494.12 215.331 492.97 213.785 493.883C213.691 493.938 213.602 493.997 213.518 494.061L213.33 494.584L216.274 498.831L252.691 491.488L264.102 494.007L268.469 489.276C268.469 489.276 265.095 483.223 265.065 481.623C265.036 480.023 266.977 446.655 266.953 436.829C266.928 427.003 266.478 401.534 265.105 397.347C263.732 393.16 258.411 387.877 256.821 384.648C255.235 381.419 255.265 377.271 255.265 377.271L252.948 373.36L252.177 296.037C253.956 293.84 255.067 291.553 255.699 289.208C255.793 285.836 254.741 283.12 253.57 280.473L239.314 249.85Z" fill="#43423D"/>
<path fill-rule="evenodd" clip-rule="evenodd" d="M215.771 254.738C215.548 255.054 215.667 255.8 215.632 256.17C215.548 257.148 215.553 258.14 215.553 259.128C215.553 260.046 215.509 260.965 215.509 261.883C215.509 262.792 215.104 264.806 216.042 265.226C216.235 265.315 216.744 265.665 216.976 265.517C217.178 265.389 217.179 264.762 217.203 264.559C217.302 263.829 217.495 263.123 217.682 262.412C218.132 260.723 218.744 259.034 218.596 257.262C218.537 256.575 218.127 255.909 217.89 255.272C217.628 254.566 217.48 253.632 216.798 253.208" fill="#43423D"/>
<path fill-rule="evenodd" clip-rule="evenodd" d="M211.443 505.526C211.481 504.509 212.367 500.603 212.549 500.031C213.414 497.305 214.061 496.12 214.061 496.12C214.061 496.12 219.594 495.656 222.105 495.656C225.331 495.651 228.841 495.789 232.179 495.592C235.299 493.617 238.979 491.809 242.451 490.906C248.374 489.36 254.069 489.879 260.12 490.264C264.725 490.555 269.895 490.911 273.058 494.451C274.916 496.535 274.954 503.714 275.242 506.489L211.443 505.526Z" fill="#31302C"/>
<path d="M276.224 505.361H210.157V509.88H276.224V505.361Z" fill="#171614"/>
<path fill-rule="evenodd" clip-rule="evenodd" d="M83.4508 191.793C82.8284 190.05 82.0973 187.152 82.0973 187.152L74.0799 182.683L66.428 179.355C66.428 179.355 53.4212 196.208 52.4876 198.805C51.5539 201.402 50.6846 214.694 50.6846 214.694C50.6846 214.694 68.1223 231.872 70.2613 233.433C72.4052 234.988 75.3395 234.677 75.3395 234.677L80.0127 227.952C80.0127 227.952 84.0732 193.541 83.4508 191.793Z" fill="#EDE8E0"/>
<path fill-rule="evenodd" clip-rule="evenodd" d="M53.4311 197.101C54.1919 197.837 54.918 198.612 55.6245 199.427C59.7048 204.142 63.7555 202.691 69.0016 201.16C70.0983 200.839 72.8893 200.612 73.7044 199.659C75.7693 197.259 76.199 193.61 78.3726 191.24C78.6887 190.895 79.4297 189.171 80.0324 189.221C80.4276 189.255 79.899 190.692 79.8397 190.826C78.995 192.717 78.0465 194.583 77.1771 196.464C75.7692 199.501 80.2547 203.737 82.285 207.5C81.2772 217.262 80.0126 227.952 80.0126 227.952L75.3395 234.677C75.3395 234.677 72.4052 234.988 70.2613 233.432C68.1223 231.872 50.6846 214.694 50.6846 214.694C50.6846 214.694 51.5539 201.402 52.4876 198.805C52.6111 198.464 52.9421 197.871 53.4311 197.101Z" fill="#CEC7BB"/>
<path fill-rule="evenodd" clip-rule="evenodd" d="M140.497 139.464L133.666 135.065C133.666 135.065 118.688 161.733 114.657 168.552C110.626 175.371 103.7 186.791 102.811 188.001C101.917 189.216 99.3285 190.045 99.3285 190.045L97.9157 196.069C97.9157 196.069 97.6687 193.339 97.0808 192.613C96.4979 191.887 94.0132 194.46 94.0132 194.46L81.3127 189.013L73.7103 205.777C73.7103 205.777 72.0949 223.74 73.483 227.329C74.8711 230.924 107.736 240.103 107.736 240.103L136.802 212.433L141.866 142.111" fill="#EDE8E0"/>
<path fill-rule="evenodd" clip-rule="evenodd" d="M140.719 158.064C139.114 160.973 137.484 163.866 135.873 166.76C128.641 179.746 120.579 192.687 112.117 204.893C108.249 210.472 107.256 213.035 107.256 213.035C107.256 213.035 108.314 222.165 108.338 227.66C108.353 231.319 107.36 232.247 107.306 231.882C106.56 227.132 103.324 213.613 102.183 208.947C101.887 207.747 101.921 204.103 100.899 203.209C99.8269 202.276 99.98 205.115 99.9899 205.342C100.049 206.591 100.617 214.181 99.9899 214.363C98.5327 214.788 97.2829 213.934 96.7098 212.828C96.4332 212.304 95.7762 205.801 95.381 203.614C95.3119 203.244 94.4622 199.002 94.3832 199.037C92.5406 199.95 92.1849 206.335 91.9577 208.275C91.8836 208.902 91.9281 211.114 91.1821 211.401C86.7017 213.119 77.7703 208.734 73.69 206.004C73.5072 208.078 72.1882 223.972 73.4825 227.33C74.8706 230.924 107.736 240.103 107.736 240.103L136.802 212.433L140.719 158.064Z" fill="#CEC7BB"/>
<path fill-rule="evenodd" clip-rule="evenodd" d="M137.44 163.947C136.915 164.886 136.391 165.824 135.872 166.763C134.632 168.99 133.365 171.223 132.075 173.446C131.058 175.2 130.028 176.95 128.984 178.699C129.408 181.702 130.024 184.672 130.616 187.465C131.797 193.005 132.813 198.495 134.263 203.985C134.974 206.687 135.844 209.215 136.852 211.73L137.895 197.237C137.754 194.231 137.69 191.233 137.686 188.258C137.681 183.155 138.821 178.08 138.57 172.981C138.438 170.243 138.155 167.145 137.613 164.453C137.576 164.27 137.517 164.102 137.44 163.947Z" fill="#BCB2A2"/>
<path fill-rule="evenodd" clip-rule="evenodd" d="M93.2328 195.472C93.4897 196.815 92.6549 198.835 92.3832 200.163C92.1708 201.175 91.8645 202.177 91.6373 203.19C91.4347 204.103 91.2322 205.016 91.0099 205.93C90.9506 206.197 90.837 206.463 90.7876 206.73C90.7827 206.774 90.674 207.243 90.6691 207.243C90.6147 207.224 90.6443 206.735 90.6443 206.671C90.6394 206.048 90.595 205.397 90.6839 204.784C90.7876 204.009 90.6642 203.214 90.758 202.444C90.9457 200.894 91.494 199.239 91.9782 197.758C92.1362 197.284 92.6846 195.265 93.2724 195.156" fill="#CEC7BB"/>
<path fill-rule="evenodd" clip-rule="evenodd" d="M98.6016 197.412C98.8683 197.412 98.972 198.118 99.0116 198.276C99.219 199.096 99.5698 199.866 99.8118 200.676C99.8266 200.735 100.163 201.614 100.202 201.595C100.35 201.511 100.365 200.691 100.4 200.503C100.607 199.323 100.251 197.062 98.8633 196.543" fill="#CEC7BB"/>
<path fill-rule="evenodd" clip-rule="evenodd" d="M244.028 245.732L138.359 242.883L132.618 238.306C132.618 238.306 130.801 238.992 130.188 238.879C129.575 238.765 129.215 235.427 129.215 235.427C129.215 235.427 132.569 231.926 132.515 231.847C132.46 231.768 135.755 210.097 135.503 207.149C135.251 204.206 133.997 172.285 132.648 164.937C130.356 152.401 133.621 134.299 133.621 134.299C133.621 134.299 160.148 119.309 166.565 116.163C172.987 113.018 188.138 109.634 188.138 109.634L228.23 107.129C228.23 107.129 248.123 121.535 249.773 122.281C251.428 123.022 253.166 124.933 253.166 124.933C253.166 124.933 254.031 123.792 255.784 124.261C257.538 124.735 261.406 128.103 261.406 128.103L276.29 136.225C276.29 136.225 274.269 161.595 264.029 178.249C253.784 194.904 247.609 207.87 246.626 210.591C245.999 212.329 245.781 223.429 245.574 233.22C245.92 233.65 246.25 234.094 246.601 234.514C247.476 235.56 249.017 239.333 249.017 239.333C249.017 239.333 249.037 243.722 248.785 243.935C248.429 244.226 247.273 243.787 246.927 243.643C246.819 243.599 246.394 243.234 246.28 243.322C245.885 243.633 245.564 244.088 245.238 244.522C245.223 245.317 245.218 245.767 245.218 245.767L244.092 245.737C244.067 245.742 244.052 245.747 244.042 245.742C244.037 245.737 244.032 245.737 244.028 245.732Z" fill="#EDE8E0"/>
<path fill-rule="evenodd" clip-rule="evenodd" d="M268.495 169.347C267.215 172.453 265.733 175.47 264.029 178.249C253.784 194.904 247.609 207.87 246.626 210.591C245.999 212.329 245.781 223.429 245.574 233.22C245.92 233.65 246.25 234.094 246.601 234.514C247.476 235.561 249.017 239.333 249.017 239.333C249.017 239.333 249.037 243.722 248.785 243.935C248.429 244.226 247.273 243.787 246.927 243.644C246.819 243.599 246.394 243.234 246.28 243.323C245.885 243.634 245.564 244.088 245.238 244.522C245.223 245.317 245.218 245.767 245.218 245.767L244.092 245.737C244.067 245.742 244.052 245.747 244.042 245.742C244.037 245.737 244.032 245.737 244.028 245.732L138.359 242.883L132.618 238.306C132.618 238.306 130.801 238.992 130.188 238.879C129.575 238.765 129.215 235.427 129.215 235.427C129.215 235.427 132.569 231.926 132.515 231.847C132.49 231.813 133.112 227.626 133.794 222.688C136.111 221.118 138.729 219.963 141.797 219.444C145.265 218.857 150.18 221.725 153.455 222.397C163.068 224.352 172.538 226.268 182.304 227.147C186.483 227.522 192.351 228.732 196.377 226.648C199.267 225.152 202.108 223.537 204.83 221.755C204.953 221.671 207.295 220.604 207.319 220.516C207.349 220.402 206.682 220.343 204.094 220.669C202.043 220.93 199.228 220.92 197.202 220.432C196.975 220.372 195.093 219.632 195.464 219.296C196.308 218.531 203.896 218.027 205.467 217.686C214.759 215.692 230.907 216.373 238.515 210.161C239.073 209.712 241.113 204.794 240.915 204.152C240.659 203.323 236.998 203.668 238.189 201.708C238.683 200.903 240.594 201.185 241.35 200.898C242.605 200.424 244.215 199.21 244.862 197.99C247.07 193.842 248.869 189.433 250.761 185.137C252.406 181.405 254.871 178.096 256.516 174.363C257.874 171.292 260.448 164.444 262.972 162.345L268.495 169.347Z" fill="#CEC7BB"/>
<path fill-rule="evenodd" clip-rule="evenodd" d="M229.889 202.33C225.73 203.407 221.546 204.967 217.283 205.559C211.997 206.295 204.908 206.853 200.205 209.45C198.037 210.645 194.663 211.213 192.272 211.712C191.338 211.904 190.429 212.205 189.506 212.462C189.036 212.596 187.742 212.497 188.083 212.852C190.182 215.015 195.952 214.225 198.422 213.662C206.795 211.761 215.302 210.225 223.596 208.018C226.683 207.199 231.094 207.07 233.07 204.355" fill="#CEC7BB"/>
<path fill-rule="evenodd" clip-rule="evenodd" d="M238.968 149.675C230.827 156.716 221.037 162.572 211.878 168.211C206.415 171.579 201.331 175.519 195.917 178.941C190.266 182.511 184.719 186.431 179.472 190.564C177.249 192.317 174.246 194.208 174.286 194.312C174.621 195.23 179.275 192.776 179.719 192.564C185.42 189.843 191.027 186.955 196.752 184.283C203.05 181.34 208.964 177.682 215.03 174.349C227.972 167.248 241.685 159.299 244.402 143.212" fill="#CEC7BB"/>
<path fill-rule="evenodd" clip-rule="evenodd" d="M148.213 171.342C151.458 175.227 156.423 178.491 160.997 180.521C161.748 180.856 163.946 182.659 164.816 182.377C169.316 180.926 173.209 176.679 177.887 175.864C178.188 175.81 177.487 176.333 177.294 176.575C176.84 177.148 176.345 177.662 175.792 178.141C174.33 179.41 173.065 181 171.909 182.545C169.281 186.066 166.071 189.354 163.625 192.978C162.988 193.921 161.664 196.346 160.488 196.77C159.55 197.111 158.246 195.877 157.554 195.373C155.153 193.64 152.871 191.857 150.757 189.749C150.416 189.403 148.228 187.527 148.445 186.91" fill="#CEC7BB"/>
<path fill-rule="evenodd" clip-rule="evenodd" d="M188.858 171.796C193.388 172.196 198.654 168.601 202.626 166.878C205.254 165.737 207.897 164.617 210.515 163.441C212.644 162.489 214.684 161.215 216.872 160.385C218.112 159.911 220.296 159.472 221.333 158.607C221.575 158.405 220.676 158.632 220.385 158.756C219.599 159.086 218.947 159.457 218.216 159.891C216.215 161.081 214.269 162.33 212.239 163.461C206.173 166.843 200.349 170.616 194.292 174.013C192.084 175.252 189.807 176.324 187.673 177.701C187.539 177.79 185.475 178.768 185.494 178.857" fill="#CEC7BB"/>
<path fill-rule="evenodd" clip-rule="evenodd" d="M231.005 105.686C226.639 108.843 223.141 114.317 219.239 118.074C211.122 125.891 202.937 133.712 194.44 141.113C191.294 143.854 188.453 146.915 185.4 149.759C184.254 150.826 182.436 152.742 180.861 153.255C180.683 153.309 181.424 150.831 181.429 150.801C181.913 149.142 182.407 147.414 182.728 145.72C183.321 142.644 183.928 139.533 184.388 136.437C184.585 135.119 184.605 133.475 185.568 132.453C190.627 127.076 197.686 123.239 203.584 118.914C207.936 115.718 212.293 112.557 216.808 109.609C218.369 108.592 220.167 106.863 221.881 106.141" fill="#CEC7BB"/>
<path fill-rule="evenodd" clip-rule="evenodd" d="M176.38 111.934C174.582 116.507 174.711 121.728 173.678 126.528C173.629 126.755 173.174 131.095 173.258 131.1C174.207 131.199 176.869 126.261 177.778 127.357C180.787 130.991 183.958 134.482 187.07 138.042C187.999 139.099 189.209 141.973 190.751 142.377C191.23 142.501 190.736 141.385 190.686 140.896C190.612 140.047 190.513 139.203 190.439 138.353C190.212 135.889 189.525 133.287 189.066 130.843C187.584 123.032 185.559 115.768 182.264 108.563" fill="#CEC7BB"/>
<path fill-rule="evenodd" clip-rule="evenodd" d="M232.3 158.879C235.57 157.803 238.983 154.623 241.893 152.801C244.941 150.895 248.424 149.967 251.457 148.199C251.58 148.125 251.467 148.485 251.427 148.629C251.279 149.216 250.518 150.016 250.113 150.455C248.858 151.808 247.485 153.028 246.299 154.455C244.921 156.124 243.691 157.916 242.17 159.472C240.095 161.6 237.418 164.014 235.787 166.513" fill="#CEC7BB"/>
<path fill-rule="evenodd" clip-rule="evenodd" d="M253.853 124.72C252.445 126.478 252.099 128.996 251.472 131.085C250.153 135.465 248.661 139.918 247.075 144.214C243.276 154.514 241.597 165.377 239.211 176.057C236.494 188.233 233.668 200.888 232.705 213.356C232.048 221.893 231.114 230.366 230.057 238.864C230.032 239.056 229.05 246.848 228.906 246.922C224.954 248.927 225.3 241.036 225.443 239.6C226.481 229.018 226.234 218.348 227.474 207.752C229.786 188.046 235.017 167.614 241.286 148.757C242.609 144.772 244.141 140.896 245.549 136.956C246.216 135.094 246.873 131.969 248.523 130.67" fill="#CEC7BB"/>
<path fill-rule="evenodd" clip-rule="evenodd" d="M194.771 128.858C195.68 131.949 195.206 136.294 195.206 139.484C195.206 145.133 195.527 150.969 196.08 156.588C197.394 169.974 199.884 183.296 200.951 196.691C201.317 201.264 203.312 207.041 202.576 211.583C202.24 213.662 199.266 216.501 198.19 218.136C194.801 223.271 191.249 228.687 187.426 233.472C187.208 233.739 182.713 241.318 181.399 238.775C180.564 237.155 181.009 234.864 180.895 233.112C180.569 227.937 180.584 222.95 180.865 217.775C181.577 204.932 181.033 191.576 182.92 178.852C184.526 167.999 186.398 157.319 188.512 146.555C189.56 141.222 191.575 135.203 191.659 129.752" fill="#CEC7BB"/>
<path fill-rule="evenodd" clip-rule="evenodd" d="M155.954 122.671C156.078 128.3 155.46 133.771 155.011 139.37C154.205 149.404 153.163 159.783 153.163 169.86C153.163 180.071 154.008 190.505 154.887 200.681C155.337 205.94 155.524 211.203 156.083 216.452C156.72 222.407 157.52 228.332 158.024 234.292C158.123 235.457 159.397 238.894 158.913 239.935C158.691 240.424 156.606 240.167 156.26 240.187C155.9 240.212 153.692 241.224 153.445 241.012C152.165 239.901 152.57 236.099 152.432 234.588C151.859 228.386 150.649 222.254 150.224 216.008C148.663 193.245 148.539 169.209 151.197 146.56C151.736 141.953 151.839 137.336 151.839 132.7C151.839 130.606 151.439 126.829 152.575 124.849" fill="#CEC7BB"/>
<path fill-rule="evenodd" clip-rule="evenodd" d="M218.128 237.985C218.666 229.625 224.846 176.62 229.307 161.012C233.772 145.399 247.535 119.946 247.535 119.946L254.213 123.678C254.213 123.678 239.972 161.076 238.421 168.428C236.865 175.78 226.254 240.325 226.254 240.325C226.254 240.325 217.589 246.344 218.128 237.985Z" fill="#52504A"/>
<path fill-rule="evenodd" clip-rule="evenodd" d="M253.67 123.377C253.289 124.301 252.919 125.234 252.489 126.088C250.316 130.389 248.7 134.759 247.07 139.281C243.716 148.589 239.972 157.768 236.178 166.903C235.684 168.088 231.035 166.379 230.265 166.271C229.553 166.167 228.798 166.137 228.057 166.122C228.486 164.152 228.901 162.429 229.306 161.012C233.772 145.399 247.535 119.946 247.535 119.946L253.67 123.377Z" fill="#6C6961"/>
<path fill-rule="evenodd" clip-rule="evenodd" d="M146.445 239.363C146.445 239.363 144.242 187.577 144.78 167.036C145.319 146.49 148.366 124.933 148.366 124.933L155.939 121.175C155.939 121.175 151.78 157.195 152.007 175.218C152.234 193.245 153.336 239.965 153.336 239.965L146.445 239.363Z" fill="#52504A"/>
<path fill-rule="evenodd" clip-rule="evenodd" d="M155.282 121.501C153.869 128.957 152.56 141.36 151.488 154.011C151.177 157.654 151.004 161.308 150.643 164.942C150.599 165.392 150.722 167.643 150.302 167.935C149.398 168.557 147.6 168.221 146.598 168.33C145.98 168.399 145.363 168.468 144.745 168.537C144.755 168.024 144.77 167.52 144.78 167.036C145.318 146.49 148.366 124.933 148.366 124.933L155.282 121.501Z" fill="#6C6961"/>
<path fill-rule="evenodd" clip-rule="evenodd" d="M163.848 236.874L161.862 235.714C161.862 235.714 135.469 237.195 134.001 237.541C132.534 237.886 132.184 238.35 132.184 238.35L132.49 255.849C132.49 255.849 143.437 255.123 145.63 254.98C147.823 254.837 164.535 254.185 164.535 254.185L163.848 236.874Z" fill="#5C5953"/>
<path fill-rule="evenodd" clip-rule="evenodd" d="M164.179 245.248L164.534 254.185C164.534 254.185 147.823 254.837 145.629 254.98C143.436 255.124 132.489 255.849 132.489 255.849L132.316 245.974C132.435 246.567 132.544 247.159 132.628 247.752C132.677 248.097 132.934 252.284 133.25 252.566C133.655 252.921 134.643 252.744 135.117 252.744C136.881 252.744 149.641 252.339 154.546 251.963C156.324 251.825 158.157 251.801 159.906 251.45C161.254 251.183 162.958 246.379 163.902 245.515C163.956 245.466 164.055 245.367 164.179 245.248Z" fill="#3F3D39"/>
<path fill-rule="evenodd" clip-rule="evenodd" d="M149.413 236.612C149.962 236.578 150.485 236.311 151.043 236.296C151.083 236.291 151.523 236.257 151.547 236.296C151.666 236.519 151.537 236.988 151.523 237.22C151.468 238.034 151.429 238.839 151.429 239.659C151.429 242.444 151.473 245.204 151.74 247.979C151.868 249.322 152.007 250.675 152.081 252.023C152.096 252.349 152.091 252.675 152.12 252.996C152.125 253.025 152.155 253.252 152.125 253.272C151.997 253.366 151.71 253.292 151.562 253.292C151.162 253.287 150.757 253.361 150.362 253.44C150.011 253.514 149.655 253.608 149.3 253.687C149.053 253.741 148.806 253.79 148.554 253.825C148.415 253.845 148.287 253.86 148.149 253.874C147.408 253.948 147.536 253.623 147.536 252.882C147.536 252.675 147.536 252.462 147.536 252.25C147.536 251.919 147.516 251.583 147.536 251.257C147.576 250.63 147.586 250.003 147.605 249.381C147.645 247.974 147.65 246.557 147.719 245.155C147.813 243.184 148.045 241.224 148.322 239.274C148.381 238.849 148.371 237.817 148.702 237.501" fill="#3F3D39"/>
<path fill-rule="evenodd" clip-rule="evenodd" d="M163.057 235.783C165.601 235.59 194.633 235.205 202.532 235.398C210.435 235.59 240.989 239.762 241.211 240.004C241.433 240.241 246.408 243.357 246.408 243.357L246.294 257.01L243.631 258.313C243.631 258.313 226.589 256.086 209.413 254.506C192.237 252.926 162.45 254.901 162.45 254.901L160.612 252.191C160.612 252.191 160.513 235.97 163.057 235.783Z" fill="#5C5953"/>
<path fill-rule="evenodd" clip-rule="evenodd" d="M161.028 242.325C161.097 244.108 161.324 245.885 161.759 247.638C161.922 248.29 162.11 250.428 162.628 250.887C163.014 251.228 163.992 251.203 164.471 251.277C166.437 251.578 168.324 251.855 170.32 251.958C176.213 252.255 182.091 252.166 187.995 252.324C201.466 252.689 214.927 253.4 228.398 253.726C234.252 253.864 240.002 254.807 245.766 255.711C245.949 255.741 246.127 255.77 246.305 255.795L246.295 257.01L243.632 258.313C243.632 258.313 226.59 256.086 209.414 254.506C192.238 252.926 162.45 254.901 162.45 254.901L160.613 252.191C160.613 252.191 160.583 246.902 161.028 242.325Z" fill="#3F3D39"/>
<path fill-rule="evenodd" clip-rule="evenodd" d="M216.947 236.849C216.813 236.731 216.537 236.761 216.374 236.736C216.235 236.716 215.978 236.627 215.84 236.691C215.712 236.756 215.791 237.205 215.791 237.299C215.815 237.995 215.82 238.701 215.825 239.402C215.83 239.698 215.825 239.995 215.825 240.296C215.825 241.372 215.969 242.444 215.973 243.525C215.998 245.851 215.929 248.181 215.929 250.507C215.929 251.42 215.889 252.329 215.88 253.237C215.875 253.46 215.875 253.687 215.86 253.904C215.855 253.963 215.805 254.161 215.845 254.22C215.865 254.25 216.077 254.2 216.107 254.2C216.393 254.195 216.685 254.215 216.971 254.215C217.352 254.215 217.732 254.215 218.112 254.215C218.167 254.215 218.453 254.255 218.488 254.205C218.606 254.042 218.478 253.484 218.478 253.292C218.478 253.065 218.478 252.837 218.478 252.61C218.478 252.191 218.458 251.771 218.458 251.351C218.458 248.033 218.266 244.705 217.984 241.402C217.9 240.424 217.752 239.461 217.623 238.489C217.554 237.985 217.5 237.412 217.233 236.963" fill="#3F3D39"/>
<path fill-rule="evenodd" clip-rule="evenodd" d="M162.657 237.057C162.287 237.718 162.312 238.523 162.119 239.239C161.921 239.99 161.61 240.814 161.546 241.59C161.422 242.992 161.783 244.399 161.897 245.791C161.976 246.72 162.134 247.658 162.297 248.576C162.351 248.877 162.386 249.189 162.465 249.485C162.494 249.618 162.519 250.018 162.564 249.89C162.677 249.579 162.578 249.075 162.578 248.744C162.578 247.855 162.519 246.942 162.578 246.058C162.727 243.767 162.939 241.506 163.24 239.239C163.339 238.484 163.482 237.713 163.487 236.953C163.487 236.627 163.581 236.287 163.151 236.252" fill="#3F3D39"/>
<path fill-rule="evenodd" clip-rule="evenodd" d="M165.799 245.426C165.71 246.473 165.72 247.663 166.214 248.616C167.523 251.149 171.292 251.81 173.708 250.625C174.197 250.383 175.511 249.87 175.802 249.361C175.847 249.282 175.634 249.43 175.545 249.46C175.402 249.5 175.254 249.534 175.111 249.564C174.686 249.648 174.261 249.727 173.836 249.801C172.7 250.008 170.951 250.107 169.924 249.524C169.766 249.43 169.025 249.134 168.97 248.932C168.96 248.892 169.721 248.823 169.771 248.813C170.284 248.734 170.926 248.576 171.356 248.27C172.26 247.628 172.542 246.157 172.71 245.149C172.893 244.078 173.13 241.728 172.068 240.933C171.712 240.666 171.099 240.641 170.679 240.622C170.344 240.602 169.993 240.592 169.667 240.666C169.198 240.78 168.723 240.918 168.313 241.185" fill="#3F3D39"/>
<path d="M168.872 249.929C170.66 249.929 172.109 247.729 172.109 245.016C172.109 242.303 170.66 240.104 168.872 240.104C167.084 240.104 165.635 242.303 165.635 245.016C165.635 247.729 167.084 249.929 168.872 249.929Z" fill="#EDE8E0"/>
<path fill-rule="evenodd" clip-rule="evenodd" d="M254.782 236.883C254.281 238.291 250.344 243.235 249.475 244.408C247.054 247.661 244.698 250.978 242.283 254.236C241.317 255.538 239.69 257.346 239.246 258.984C239.184 259.21 239.726 259.615 239.849 259.758C240.347 260.317 240.703 261.136 240.929 261.846C241.44 263.457 242.54 268.709 244.338 273.773C247.001 281.256 250.523 288.948 250.523 288.948L251.023 289.979C251.023 289.979 253.703 288.08 253.998 287.76C256.534 284.982 258.443 280.359 259.383 276.706C259.761 275.245 260.417 273.351 260.351 271.848C260.33 271.273 259.973 268.909 260.29 268.452C260.832 267.683 269.277 260.904 272.663 258.536C273.948 257.634 275.095 256.676 276.213 255.58C276.349 255.446 277.206 254.922 277.186 254.708C276.464 247.69 270.423 242.398 264.267 240.107C261.245 238.984 257.962 235.964 254.782 236.883Z" fill="#F6BC8B"/>
<path fill-rule="evenodd" clip-rule="evenodd" d="M255.438 236.746C254.46 241.195 256.194 245.278 258.713 249.119C259.346 250.082 261.228 251.336 261.544 252.368C262.077 254.072 257.928 257.652 257.157 259.019C256.945 259.41 256.229 261.375 255.833 261.508C254.895 261.824 252.805 259 252.084 260.303C251.387 261.557 253.191 261.947 253.161 263.078C253.092 266.115 250.434 269.709 248.715 272.045C248.295 272.613 247.599 274.534 246.942 274.677C246.127 274.854 245.568 272.593 245.46 272.114C244.842 269.492 243.721 265.611 242.333 263.305C241.913 262.609 241.651 261.799 241.31 261.064C241.137 260.679 241.033 259.563 240.786 259.903C240.623 260.135 240.54 260.437 240.5 260.762C240.673 261.118 240.816 261.493 240.925 261.844C241.439 263.453 242.54 268.707 244.338 273.773C246.996 281.254 250.518 288.946 250.518 288.946L251.022 289.974C251.022 289.974 253.704 288.077 253.996 287.757C256.535 284.982 258.442 280.355 259.385 276.706C259.761 275.245 260.418 273.348 260.353 271.842C260.329 271.265 259.973 268.905 260.289 268.45C260.833 267.675 269.28 260.901 272.664 258.531C273.948 257.632 275.094 256.674 276.215 255.573C276.349 255.44 277.208 254.916 277.184 254.704C276.462 247.688 270.421 242.394 264.271 240.108C261.455 239.057 258.412 236.37 255.438 236.746Z" fill="#DE9254"/>
<path fill-rule="evenodd" clip-rule="evenodd" d="M215.366 236.553L216.275 235.635C216.275 235.635 222.633 236.054 223.146 236.336C223.146 236.336 222.677 264.243 222.578 265.601L216.883 265.661C216.883 265.661 216.991 241.555 216.977 240.01C216.962 238.464 216.695 236.746 216.695 236.746L215.366 236.553Z" fill="#67645D"/>
<path fill-rule="evenodd" clip-rule="evenodd" d="M151.703 236.213L150.833 235.382C150.833 235.382 144.745 235.76 144.258 236.017C144.258 236.017 144.239 242.234 144.357 248.694C144.48 255.261 144.806 261.291 144.854 261.908L150.309 261.962C150.086 262.037 149.808 241.172 150.148 239.665C150.455 238.306 150.427 236.386 150.427 236.386L151.703 236.213Z" fill="#67645D"/>
<path fill-rule="evenodd" clip-rule="evenodd" d="M186.665 111.533C186.433 111.852 186.067 112.021 185.796 112.307C185.45 112.67 185.153 113.191 184.995 113.663C184.645 114.73 185.045 115.56 185.529 116.496C186.329 118.035 187.396 119.299 188.305 120.75C188.784 121.511 188.853 122.163 189.007 123.042C189.041 123.239 189.125 123.812 189.426 123.812C189.575 123.812 189.767 123.644 189.911 123.59C190.647 123.318 191.407 122.647 191.946 122.089C193.077 120.923 194.055 119.639 195.088 118.375C195.809 117.492 196.594 116.653 197.192 115.673C197.632 114.95 198.022 114.197 198.457 113.472C198.565 113.291 198.941 112.894 198.783 112.641C198.669 112.456 198.264 112.349 198.076 112.305C197.424 112.15 196.787 112.127 196.13 112.021C194.411 111.745 192.623 111.723 190.918 111.388C189.985 111.205 189.016 110.848 188.058 110.826" fill="#DE9254"/>
<path fill-rule="evenodd" clip-rule="evenodd" d="M189.974 123.624L189.144 120.637L183.597 110.909L176.231 111.16L174.566 128.236L182.1 114.585L182.638 117.339L188.186 120.904L188.917 124.918L189.974 123.624Z" fill="#EDE8E0"/>
<path fill-rule="evenodd" clip-rule="evenodd" d="M266.198 215.282L262.503 215.627C262.503 215.627 258.926 222.604 257.706 224.9C256.486 227.201 252.568 236.341 252.568 236.341C252.568 236.341 258.146 246.562 262.018 247.999C265.891 249.435 273.607 254.946 273.607 254.946L280.064 258.886C285.725 255.425 292.27 252.018 296.825 247.45L293.278 240.582L266.198 215.282Z" fill="#EDE8E0"/>
<path fill-rule="evenodd" clip-rule="evenodd" d="M252.993 235.363C253.65 236.484 254.436 237.565 255.088 238.479C256.555 240.528 258.22 242.661 259.968 244.468C260.571 245.095 261.282 246.221 262.251 246.305C263.994 246.458 266.143 245.12 267.709 244.503C268.865 244.044 276.23 238.607 276.23 238.607C276.23 238.607 285.789 243.984 288.397 245.327C290.042 246.177 291.381 246.967 293.243 247.189C293.451 247.214 296.825 247.45 296.825 247.45C292.27 252.018 285.725 255.425 280.064 258.886L273.607 254.946C273.607 254.946 265.891 249.435 262.018 247.999C258.146 246.562 252.568 236.341 252.568 236.341C252.568 236.341 252.726 235.97 252.993 235.363Z" fill="#CEC7BB"/>
<path fill-rule="evenodd" clip-rule="evenodd" d="M276.211 136.324C276.211 136.324 259.731 161.437 258.071 170.808C256.412 180.18 259.796 185.424 259.796 185.424C259.796 185.424 269.488 191.991 270.594 193.26C271.696 194.534 270.846 197.437 270.846 197.437L274.037 198.909L268.613 200.365C268.613 200.365 268.426 202.854 269.265 203.698C270.11 204.547 263.184 218.235 263.184 218.235C263.184 218.235 276.878 242.182 291.124 244.824C291.124 244.824 315.508 216.259 317.572 212.912C319.632 209.564 320.314 206.029 320.314 206.029C320.314 206.029 306.719 180.743 299.917 169.925C294.538 161.373 282.973 144.491 278.31 138.156C277.08 136.477 276.211 136.324 276.211 136.324Z" fill="#EDE8E0"/>
<path fill-rule="evenodd" clip-rule="evenodd" d="M275.376 137.617C271.523 145.039 267.709 153.245 266.736 161.644C266.39 164.631 266.692 167.614 266.469 170.601C266.277 173.183 265.595 178.62 267.462 180.851C268.85 182.51 271.305 183.389 273.074 184.555C275.83 186.362 278.779 187.952 281.491 189.848C282.504 190.559 284.544 191.151 285.33 192.03C285.685 192.435 284.253 192.139 283.709 192.139C282.554 192.144 281.358 191.887 280.197 192.025C279.214 192.144 276.132 193.24 275.238 193.704C274.679 193.995 275.267 195.274 275.623 195.733C276.398 196.736 281.328 199.93 282.435 200.321C287.558 202.138 298.149 204.123 298.924 204.063C299.364 204.034 301.236 202.809 301.646 202.646C301.903 202.542 302.446 202.113 302.432 202.385C302.392 203.046 300.09 205.495 299.25 205.392C294.167 204.779 289.114 203.135 284.05 202.143C283.556 202.049 279.54 200.898 279.234 201.293C277.628 203.342 280.182 204.088 281.561 204.458C284.07 205.13 286.54 206.009 289.059 206.68C289.949 206.917 291.87 207.041 292.577 207.697C292.754 207.86 292.117 207.836 291.875 207.865C291.455 207.915 291.045 207.915 290.63 207.989C289.395 208.221 288.343 209.203 287.113 209.253C284.228 209.366 281.002 207.875 278.152 207.46C277.792 207.406 275.742 206.922 275.475 207.283C273.973 209.312 272.812 211.727 271.35 213.825C270.609 214.892 269.517 216.136 269.759 217.538C270.278 220.54 270.826 223.804 270.989 226.836C271.014 227.226 271.38 228.673 271.33 229.418C266.593 223.409 263.184 218.234 263.184 218.234C263.184 218.234 270.11 204.547 269.265 203.698C268.425 202.854 268.613 200.365 268.613 200.365L274.037 198.908L270.846 197.437C270.846 197.437 271.696 194.534 270.594 193.26C269.488 191.991 259.796 185.424 259.796 185.424C259.796 185.424 256.412 180.18 258.071 170.808C259.504 162.711 271.997 142.866 275.376 137.617Z" fill="#CEC7BB"/>
<path fill-rule="evenodd" clip-rule="evenodd" d="M272.105 231.038C275.988 235.442 280.582 240.266 286.189 242.404C288.086 243.13 289.854 244.044 291.85 244.458C292.324 244.557 292.833 244.942 293.312 244.942C293.431 244.942 293.436 244.389 293.421 244.3C293.327 243.728 293.372 242.72 293.075 242.212C293.011 242.103 292.68 242.592 292.606 242.651C292.235 242.943 291.845 243.486 291.346 243.505C289.904 243.565 287.775 242.523 286.51 241.871C282.568 239.832 278.641 237.116 275.331 234.154C274.343 233.265 273.637 232.178 272.733 231.25" fill="#CEC7BB"/>
<path fill-rule="evenodd" clip-rule="evenodd" d="M286.051 192.658C287.202 193.531 288.896 193.867 290.22 194.435C290.833 194.697 291.455 195.279 292.112 195.413C292.611 195.512 292.779 194.48 292.878 194.144C292.912 194.015 293.056 193.704 292.952 193.581C292.631 193.196 291.579 193.388 291.164 193.339C289.573 193.151 288.002 192.766 286.426 192.564" fill="#CEC7BB"/>
<path fill-rule="evenodd" clip-rule="evenodd" d="M304.323 202.794C303.967 203.031 303.74 203.441 303.404 203.713C303.231 203.856 302.174 204.557 302.189 204.809C302.203 205.026 303.191 204.987 303.31 204.992C304.184 204.992 306.23 205.14 306.951 204.661C307.257 204.463 308.482 203.244 307.939 202.785C307.642 202.533 307.01 202.73 306.669 202.745C306.234 202.76 305.805 202.878 305.35 202.883" fill="#CEC7BB"/>
<path fill-rule="evenodd" clip-rule="evenodd" d="M293.687 208.053C294.063 208.354 294.893 208.334 295.342 208.408C296.493 208.601 297.718 208.966 298.83 209.332C299.171 209.445 300.203 209.618 300.411 209.964C300.44 210.008 300.065 210.107 300.035 210.112C299.595 210.221 299.2 210.369 298.746 210.369C297.279 210.374 295.91 209.514 294.557 209.06C294.374 208.996 293.095 208.611 293.559 208.265" fill="#CEC7BB"/>
<path fill-rule="evenodd" clip-rule="evenodd" d="M188.646 125.036L199.331 110.323L229.628 94.1035L232.251 104.948L204.938 128.838L205.077 112.42L200.235 114.07L199.811 117.482L188.646 125.036Z" fill="#EDE8E0"/>
<path fill-rule="evenodd" clip-rule="evenodd" d="M183.316 129.461C183.316 129.461 169.87 163.427 164.9 182.842C159.936 202.251 157.411 212.724 156.868 214.497C156.324 216.269 172.498 245.456 172.498 245.456C172.498 245.456 194.204 216.832 195.532 214.605C196.866 212.383 198.536 209.702 198.536 209.702C198.536 209.702 193.235 132.764 193.384 129.831L183.316 129.461Z" fill="#52504A"/>
<path fill-rule="evenodd" clip-rule="evenodd" d="M186.893 129.589L184.65 130.532C184.408 130.848 187.238 135.884 187.92 136.052C188.819 136.275 190.469 132.068 190.607 135.04C190.622 135.346 190.617 135.652 190.617 135.959C190.622 136.398 190.622 136.837 190.622 137.277C190.622 137.879 190.681 138.521 190.622 139.119C189.036 154.865 191.783 170.744 190.78 186.485C190.518 190.579 190.489 194.751 190.489 198.854C190.489 200.217 190.918 203.11 190.306 204.389C189.822 205.406 187.762 206.493 186.902 207.149C183.173 210.018 179.779 213.302 175.832 215.943C175.037 216.477 172.636 219.523 171.663 219.281C169.919 218.847 165.384 214.521 163.853 213.341C163.349 212.951 162.094 211.524 161.378 211.579C161.21 211.593 161.645 212.813 161.709 212.946C161.946 213.445 164.233 217.01 163.23 217.069C161.314 217.183 158.967 215.104 157.135 213.544C157.021 213.973 156.932 214.294 156.868 214.497C156.324 216.269 172.498 245.456 172.498 245.456C172.498 245.456 194.204 216.832 195.532 214.605C196.866 212.383 198.536 209.702 198.536 209.702C198.536 209.702 193.235 132.764 193.384 129.831L186.893 129.589Z" fill="#42413C"/>
<path fill-rule="evenodd" clip-rule="evenodd" d="M182.607 129.79C182.607 129.79 185.28 132.052 186.945 132.19C188.842 132.343 193.994 130.724 193.994 130.724L193.233 123.776L186.465 122.285L182.607 129.79Z" fill="#6C6961"/>
<path fill-rule="evenodd" clip-rule="evenodd" d="M182.718 129.574C183.548 130.033 184.491 130.443 185.341 130.799C185.381 130.814 186.196 131.204 186.235 131.159C186.472 130.898 186.542 130.404 186.705 130.093C187.406 128.735 187.959 127.308 188.651 125.945C188.893 125.461 189.13 124.972 189.402 124.503C189.441 124.429 189.555 124.098 189.634 124.069C189.718 124.034 189.412 125.041 189.387 125.12C189.165 125.812 189.031 126.513 188.829 127.209C188.794 127.318 188.626 127.723 188.705 127.851C188.73 127.89 189.051 127.846 189.095 127.846C189.723 127.846 189.733 127.698 189.807 127.066C189.906 126.241 190.167 125.466 190.177 124.622C190.182 124.34 190.088 123.812 190.405 123.693C190.617 123.619 190.745 124.864 190.76 125.066C190.76 125.15 190.745 125.427 190.829 125.476C190.973 125.56 191.304 125.456 191.462 125.436C192.069 125.362 192.687 125.362 193.294 125.288C193.319 125.288 193.354 125.278 193.393 125.274L193.991 130.725C193.991 130.725 188.839 132.344 186.942 132.186C185.282 132.053 182.609 129.791 182.609 129.791L182.718 129.574Z" fill="#42413C"/>
<path fill-rule="evenodd" clip-rule="evenodd" d="M185.282 119.18L182.743 117.373L182.16 114.711L177.526 123.037L183.222 128.7L186.458 122.306L185.282 119.18Z" fill="#52504A"/>
<path fill-rule="evenodd" clip-rule="evenodd" d="M178.346 123.851C179.413 122.874 180.476 121.876 181.503 120.859C181.651 120.706 182.852 119.467 183.069 119.59C183.454 119.803 183.77 120.672 183.953 121.037C184.487 122.079 185.005 123.145 185.489 124.222L186.458 122.306L185.282 119.18L182.743 117.373L182.16 114.711L177.526 123.037L178.346 123.851Z" fill="#42413C"/>
<path fill-rule="evenodd" clip-rule="evenodd" d="M193.156 123.758L197.548 119.003L199.756 117.581L200.062 116.442L203.337 113.03L205.002 112.471L204.958 125.925L193.942 129.53L193.156 123.758Z" fill="#52504A"/>
<path fill-rule="evenodd" clip-rule="evenodd" d="M204.958 125.925L201.435 127.076C201.218 126.034 201.04 124.987 200.848 123.92C200.769 123.481 200.833 122.232 200.452 121.921C200.359 121.842 199.889 122.054 199.795 122.089C199.025 122.365 198.289 122.8 197.558 123.17C196.155 123.886 194.752 124.627 193.384 125.422L193.156 123.758L197.548 119.003L199.756 117.581L200.062 116.442L203.337 113.03L205.002 112.471L204.958 125.925Z" fill="#42413C"/>
<path fill-rule="evenodd" clip-rule="evenodd" d="M156.315 28.1139C155.707 28.5666 155.164 29.1424 154.655 29.7586C153.025 31.4917 151.563 33.4011 150.372 35.3524C150.071 35.8457 149.745 36.4254 149.473 37.0426C147.873 39.9509 147.334 42.4873 148.287 46.039C149.132 49.1694 152.239 51.54 155.628 53.0776C156.987 53.6923 161.171 54.2952 161.294 52.2609C161.299 52.2204 158.637 53.1127 155.618 51.4195C152.862 49.8736 149.74 46.5347 149.577 43.1806C149.557 42.8512 149.577 42.5269 149.621 42.2074C151.37 45.7432 155.505 48.2683 159.333 48.612C160.277 48.6969 161.225 48.7557 162.173 48.7947C162.346 48.8016 163.102 48.9122 163.236 48.7962C163.507 48.5611 163.399 47.7538 163.453 47.4423C163.675 46.2 164.046 44.9813 164.258 43.7361C165.098 38.8478 165.681 33.6272 165.696 28.6639C165.706 26.5689 165.503 22.754 162.48 23.745L158.864 25.9976C157.989 26.6439 157.135 27.3545 156.315 28.1139Z" fill="#5E3C2A"/>
<path fill-rule="evenodd" clip-rule="evenodd" d="M162.959 24.5125C162.036 26.6228 161.665 28.9193 160.89 31.0687C159.477 34.9921 157.17 39.9658 157.901 44.2986C158.434 47.4681 160.287 51.1827 159.719 54.4208C158.681 60.3193 157.456 66.4098 157.303 72.4165C157.219 75.6615 157.698 78.8512 157.728 82.0192C157.733 83.0058 157.323 83.894 157.298 84.8747C157.209 88.726 158.059 93.6849 160.07 96.8351C167.8 108.964 183.045 109.266 195.726 108.078C203.792 107.323 211.726 104.181 217.575 98.5657C221.299 94.9904 220.82 90.2705 221.754 85.6514C223.009 79.4363 224.658 73.2752 226.244 67.1352C228.699 57.6194 229.91 47.8685 231.278 38.1542C231.624 35.6691 232.192 33.2536 232.656 30.8001C232.824 29.9221 233.501 28.4764 233.244 27.597C232.029 23.4543 227.568 19.3047 224.258 16.9682C217.911 12.4839 210.367 9.93359 202.478 10.2121C198.823 10.3409 195.167 11.0544 191.571 11.6539C186.523 12.4938 181.41 13.4284 176.589 15.1749C172.795 16.5495 169.544 18.689 166.017 20.5974" fill="#F6BC8B"/>
<path fill-rule="evenodd" clip-rule="evenodd" d="M160.227 32.8496C162.899 33.0787 165.809 32.4175 168.13 31.7031C174.952 29.6016 181.019 26.1714 187.435 23.1037C194.677 19.6419 202.749 16.1263 210.979 16.7153C213.562 16.9 216.176 16.9909 218.685 17.6891C219.411 17.891 220.157 18.1438 220.829 18.4934C220.893 18.526 222.029 19.24 222.049 19.2247C222.84 18.6272 222.681 17.0304 222.281 15.6592C216.368 11.9935 209.561 9.96165 202.477 10.212C198.822 10.3409 195.166 11.0543 191.57 11.6538C186.522 12.4937 181.409 13.4283 176.587 15.1748C172.794 16.5494 169.543 18.6889 166.016 20.5973L162.958 24.5124C162.035 26.6227 161.664 28.9192 160.888 31.0686C160.686 31.6418 160.459 32.2373 160.227 32.8496Z" fill="url(#paint4_linear_561_1097)"/>
<path fill-rule="evenodd" clip-rule="evenodd" d="M221.289 15.0634C221.166 15.3083 221.037 15.5477 220.894 15.7783C217.708 20.8646 214.68 26.1355 211.36 31.129C209.685 33.6462 206.603 38.2253 207.176 41.5444C207.334 42.491 208.584 43.5822 208.989 44.4754C210.51 47.8251 213.178 51.4039 212.635 55.2582C212.195 58.4188 209.488 61.3824 207.038 63.1298C205.585 64.1623 203.446 64.661 202.962 66.6202C202.167 69.8499 203.269 72.4787 203.713 75.6008C203.916 77.046 204.36 78.8053 203.525 80.1592C201.075 84.1286 195.582 84.8386 191.275 84.3192C190.203 84.1898 188.982 83.7454 187.91 83.7864C187.609 83.7983 188.34 84.2145 188.587 84.3859C189.047 84.7004 189.595 84.8668 190.109 85.0618C191.694 85.6647 193.26 85.9116 194.658 86.9574C196.387 88.253 193.078 90.8571 192.312 91.46C188.8 94.2276 184.122 93.3106 180.007 93.3102C178.92 93.3102 175.205 92.6574 176.485 94.868C178.831 98.9238 184.146 100.372 188.37 101.444C192.84 102.58 198.679 103.629 203.269 102.692C210.086 101.3 215.292 96.4856 219.674 91.4427C220.212 90.8255 220.711 90.1742 221.186 89.4943C221.344 88.2234 221.497 86.9337 221.754 85.6514C223.008 79.4364 224.658 73.2752 226.244 67.1352C228.699 57.6194 229.909 47.8685 231.278 38.1542C231.623 35.6691 232.192 33.2536 232.656 30.8001C232.824 29.9222 233.501 28.4764 233.244 27.5971C232.029 23.4544 227.568 19.3048 224.258 16.9683C223.295 16.2874 222.302 15.6514 221.289 15.0634Z" fill="url(#paint5_linear_561_1097)"/>
<path fill-rule="evenodd" clip-rule="evenodd" d="M181.854 45.1307C181.463 46.0189 182.189 47.1511 181.7 47.9777C181.276 48.6932 179.636 48.4641 180.085 49.5721C180.258 50.0061 181.528 50.2362 181.928 50.3478C182.624 50.5433 184.121 51.5259 184.872 51.0548C185.173 50.8662 185.277 50.1192 185.45 49.8229C185.786 49.2432 186.467 48.6724 187.021 48.3046C187.455 48.0167 189.268 47.0494 189.402 46.4638C189.486 46.0807 188.498 46.135 188.33 46.1552C187.021 46.3083 185.736 47.0425 184.378 46.7492C183.266 46.5088 183.113 45.8442 182.669 44.9144C182.59 44.747 182.441 43.8765 182.269 43.8271C182.175 43.8004 182.076 44.1263 182.071 44.1362" fill="#DD9051"/>
<path fill-rule="evenodd" clip-rule="evenodd" d="M171.27 86.1373C171.7 86.9975 173.004 86.9999 173.824 87.0923C176.738 87.4201 179.658 86.9431 182.518 86.4356C183.042 86.3422 185.991 85.1429 185.862 86.5871C185.793 87.4374 184.687 88.2813 184.133 88.8353C181.609 91.3653 176.822 91.787 173.587 90.2692C171.882 89.4707 169.684 87.6966 170.919 85.8297" fill="#DD9051"/>
<path fill-rule="evenodd" clip-rule="evenodd" d="M165.746 79.1844C165.746 79.1844 190.982 73.3572 196.424 73.6469C196.424 73.6469 196.917 89.2911 178.117 89.4474C165.832 89.5506 165.746 79.1844 165.746 79.1844Z" fill="white"/>
<path fill-rule="evenodd" clip-rule="evenodd" d="M181.839 53.955C180.871 57.5699 177.843 68.0273 176.519 69.1985C176.039 69.6226 174.686 69.3906 174.118 69.314C172.908 69.1516 170.675 69.7579 169.445 69.9273C168.234 70.0937 168.393 73.633 168.788 73.8567C171.104 75.1765 174.335 76.242 176.963 76.7215C177.773 76.8696 178.914 77.3752 179.754 77.0893C181.078 76.639 182.027 75.2352 182.995 74.307C183.77 73.5599 184.768 72.5314 185.109 71.4669C185.83 69.2113 183.978 68.6307 183.321 66.6867C182.595 64.5408 182.965 61.756 183.01 59.5355C183.059 57.5131 183.38 55.4822 183.415 53.4845C183.42 52.8811 182.792 51.6738 182.432 52.6974" fill="url(#paint6_linear_561_1097)"/>
<path fill-rule="evenodd" clip-rule="evenodd" d="M176.855 77.1293C176.855 77.1293 170.197 84.009 168.281 84.5372C167.2 84.835 165.384 85.2261 164.273 85.0657C163.973 85.0225 162.863 84.2133 162.735 84.2667C161.289 84.8698 159.31 86.3036 157.579 85.5578C156.812 85.2275 156.941 84.4869 156.534 84.2206C156.046 83.895 154.94 84.3783 154.31 84.0473C152.678 83.1889 151.634 79.9288 153.422 78.5908C153.877 78.2496 153.927 79.6856 154.414 79.9799C155.048 80.3637 155.887 80.2171 156.582 80.1017C159.91 79.5476 162.909 77.2786 165.54 75.3213C167.105 74.1573 168.924 72.226 171.12 72.4538C172.858 72.6346 176.55 74.3364 176.55 74.3364C177.233 73.7211 178.336 72.7739 179.213 72.2948C186.192 68.4754 192.009 70.5918 198.967 73.2867C200.618 73.9254 204.338 73.9871 205.217 72.0959C205.226 72.0748 205.975 73.7716 205.971 74.1107C205.947 75.4613 205.749 76.9584 204.383 77.662C203.988 77.8662 202.833 77.9725 202.592 78.2658C202.123 78.8353 202.936 79.5972 202.059 80.209C200.087 81.585 198.487 80.9354 196.441 80.9254C195.6 80.9215 194.56 82.204 193.36 82.1477C191.621 82.0664 186.43 81.0936 182.408 79.7388C179.209 78.6607 176.855 77.1293 176.855 77.1293Z" fill="#7B4E38"/>
<path fill-rule="evenodd" clip-rule="evenodd" d="M152.884 82.3896C153.312 82.6613 153.864 82.8252 154.187 82.8459C156.32 82.9823 158.037 81.6999 159.756 80.5999C160.382 80.199 161.009 79.7864 161.62 79.3564C161.828 79.2096 162.022 79.0446 162.234 78.9049C162.349 78.8306 162.638 78.6077 162.602 78.7386C162.538 78.9961 161.856 79.3252 161.661 79.4775C161.375 79.6992 161.109 79.9499 160.8 80.1399C160.562 80.287 160.328 80.4333 160.105 80.6009C159.522 81.0376 157.365 82.2084 158.344 83.2508C159.088 84.0397 160.852 83.5036 161.684 83.233C163.965 82.4894 165.803 80.634 167.423 78.8884C168.086 78.1726 168.663 77.1544 169.489 76.6058C169.64 76.5051 169.315 76.9292 169.199 77.068C168.969 77.3391 168.707 77.5918 168.482 77.8699C167.812 78.7119 166.922 80.2282 168.423 80.6956C170.856 81.4558 173.513 79.033 175.136 77.5524C175.632 77.1012 176.314 75.9265 177.035 75.8544C177.313 75.8265 177.629 76.293 177.836 76.4334C178.449 76.8513 179.233 76.9467 179.909 77.2194C181.705 77.9411 183.598 78.7375 185.478 79.2318C186.248 79.4335 187.082 79.5464 187.821 79.8386C188.816 80.2303 190.087 80.6232 191.169 80.4899C191.461 80.4541 191.876 80.523 192.114 80.3056C192.437 80.0107 191.687 79.3808 191.519 79.2515L191.506 79.2427C190.705 78.9577 189.956 78.5987 189.356 78.2211C189.171 78.104 188.99 77.9839 188.815 77.8594C188.606 77.7579 188.404 77.6513 188.209 77.5359C187.976 77.3965 187.727 77.1529 187.567 76.9329C187.496 76.8313 187.211 76.6934 187.326 76.645C187.417 76.6067 187.713 76.9923 187.778 77.0486C188.115 77.3392 188.457 77.6076 188.815 77.8594C189.722 78.3039 190.722 78.6547 191.506 79.2427C192.81 79.7081 194.255 79.9764 195.406 79.8071C196.049 79.7129 197.108 79.5985 197.432 78.9206C197.989 77.7535 196.519 77.0984 195.811 76.5438C195.722 76.4749 194.847 75.8734 194.976 75.7172C195.345 75.2659 196.829 76.2073 197.222 76.3524C198.824 76.9454 201.631 77.6988 203.29 76.9376C204.647 76.3145 205.219 74.3672 205.165 73.0154C205.158 72.8245 205.119 72.5903 205.078 72.3452C205.129 72.2661 205.176 72.1829 205.218 72.0948C205.226 72.0742 205.975 73.7714 205.971 74.1102C205.947 75.461 205.748 76.9585 204.385 77.6621C203.989 77.8661 202.832 77.9728 202.59 78.266C202.12 78.8359 202.934 79.5975 202.059 80.2094C200.089 81.5853 198.486 80.936 196.438 80.9261C195.598 80.9218 194.561 82.2043 193.36 82.148C191.621 82.0667 186.43 81.0936 182.41 79.7382C179.212 78.6597 176.858 77.1281 176.858 77.1281C176.858 77.1281 170.198 84.0086 168.281 84.5374C167.201 84.8347 165.381 85.2263 164.273 85.0658C163.973 85.0224 162.862 84.2135 162.736 84.2661C161.287 84.8698 159.311 86.3034 157.578 85.5576C156.811 85.2274 156.94 84.4868 156.535 84.2201C156.044 83.8947 154.94 84.3776 154.31 84.0468C153.725 83.7379 153.214 83.1183 152.884 82.3896Z" fill="#5E3C2A"/>
<path fill-rule="evenodd" clip-rule="evenodd" d="M153.059 25.3577C149.878 21.9285 150.901 15.9836 153.237 11.7654C155.282 8.08636 161.991 3.73086 163.542 3.15809C163.734 3.08798 163.552 3.56002 163.561 3.76098C163.576 4.09625 163.675 4.4073 163.863 4.68628C164.436 5.53654 165.686 6.29499 166.595 6.71814C169.42 8.03452 172.829 7.79601 175.788 7.06622C182.412 5.43384 188.854 2.54038 195.567 1.35732C202.251 0.179689 208.86 -0.443439 215.638 0.365841C223.507 1.30547 231.633 6.39816 232.181 15.0435C232.275 16.5914 232.004 18.3127 231.381 19.7328C231.07 20.4467 230.349 21.4007 230.196 22.1443V22.7591C227.943 22.7566 228.066 21.7202 226.55 20.3208C225.132 19.0173 223.393 17.8323 221.6 17.1277C214.818 14.4643 207.502 13.5168 200.28 14.8514C191.971 16.3865 183.948 18.7995 176.247 22.2974C172.122 24.1702 163.235 26.9802 160.464 27.8478C157.421 28.7983 152.387 29.1217 149.646 27.1659C147.517 25.6486 145.842 22.6015 146.465 19.8725C146.667 18.9931 147.087 18.2534 147.527 17.4767C147.551 17.4353 147.912 16.8349 147.937 16.8433C147.996 16.8615 147.798 18.21 147.788 18.326C147.704 19.3471 147.838 20.2695 148.253 21.2175C149.186 23.3264 150.985 24.7094 153.059 25.3577Z" fill="#7B4E38"/>
<path fill-rule="evenodd" clip-rule="evenodd" d="M222.84 2.44006C227.839 4.82889 231.801 9.09549 232.181 15.0434C232.275 16.5913 232.004 18.3126 231.381 19.7327C231.07 20.4466 230.349 21.4006 230.196 22.1442V22.2854C229.929 22.4306 229.652 22.5693 229.376 22.6987C227.948 22.4587 227.854 21.524 226.55 20.3207C225.132 19.0172 223.393 17.8322 221.6 17.1276C214.818 14.4642 207.502 13.5167 200.28 14.8513C191.971 16.3864 183.948 18.7994 176.247 22.2973C172.122 24.1701 163.235 26.9801 160.464 27.8477C157.421 28.7982 152.387 29.1216 149.646 27.1658C147.517 25.6485 145.842 22.6014 146.465 19.8724C146.667 18.993 147.087 18.2533 147.527 17.4766C147.551 17.4352 147.912 16.8348 147.937 16.8432C147.996 16.8614 147.798 18.2099 147.788 18.3259C147.704 19.347 147.838 20.2694 148.253 21.2174C149.186 23.3263 150.985 24.7093 153.059 25.3576C150.906 23.0379 150.678 19.5668 151.478 16.2571C151.948 19.1318 153.939 21.29 156.962 22.0099C158.977 22.4898 161.245 21.9072 163.201 21.4322C166.669 20.5923 170.013 19.431 173.377 18.2543C180.076 15.9129 187.011 15.0019 193.996 14.007C197.133 13.5606 200.235 12.9908 203.323 12.2872C203.654 12.2107 205.857 12.2284 205.931 11.7317C206.079 10.7353 203.219 10.56 202.725 10.5279C199.825 10.3393 196.604 10.3516 193.749 10.9017C193.428 10.9629 190.889 11.5678 190.711 11.1871C190.691 11.1496 191.867 10.7461 191.936 10.7219C193.616 10.1324 195.32 9.70332 197.074 9.37892C204.034 8.09217 211.404 9.44707 218.285 7.82801C219.259 7.5994 220.261 7.31645 221.19 6.96341C221.724 6.76294 222.223 6.6183 222.717 6.33488C224.816 5.13454 224.11 3.66065 222.84 2.44006Z" fill="#5E3C2A"/>
<path fill-rule="evenodd" clip-rule="evenodd" d="M184.225 12.0829C177.961 14.0817 170.981 16.0216 164.396 14.4189C162.929 14.0629 160.32 13.655 159.456 12.2019C159.13 11.6528 159.209 10.7971 159.397 10.212C159.466 9.99281 159.54 9.7711 159.644 9.56569C159.698 9.46545 159.896 9.21857 159.797 9.26251C159.421 9.42249 158.997 9.97799 158.71 10.2728C157.574 11.4445 155.825 14.0352 157.035 15.6582C157.964 16.9124 159.846 17.0176 161.264 17.1455C162.746 17.2788 164.139 17.0986 165.606 16.9396C168.792 16.5944 172.087 16.0157 175.155 15.0613C176.696 14.5813 178.198 14.0096 179.724 13.4808C180.283 13.2857 183.632 12.1101 184.225 12.0829Z" fill="#5E3C2A"/>
<path fill-rule="evenodd" clip-rule="evenodd" d="M163.24 7.96684C163.28 8.49813 163.295 8.98743 163.566 9.46688C163.932 10.1182 164.851 10.5616 165.503 10.8188C167.093 11.4513 168.862 11.8211 170.581 11.8419C173.016 11.872 175.402 11.4913 177.803 11.0943C181.854 10.4263 185.88 9.50096 189.733 8.06855C191.096 7.56146 192.499 7.1373 193.848 6.5828C194.154 6.45541 195.083 6.2184 195.305 5.93597C195.305 5.93301 194.544 6.04413 194.495 6.05598C193.912 6.20509 193.354 6.46086 192.766 6.60652C191.101 7.0198 189.431 7.45086 187.791 7.95253C184.793 8.86895 181.681 9.19236 178.598 9.69255C175.536 10.1898 172.364 10.5132 169.267 10.2224C167.75 10.0806 165.982 9.91326 164.589 9.25408C164.144 9.04522 163.275 8.64379 163.63 8.06708" fill="#5E3C2A"/>
<path fill-rule="evenodd" clip-rule="evenodd" d="M198.703 5.69652C203.161 4.32089 207.333 2.20066 212.042 2.85786C213.503 3.06228 215.295 3.38076 216.649 4.0829C217.096 4.31645 217.552 4.52678 217.995 4.78156C218.148 4.86945 218.276 4.99438 218.429 5.0798C218.493 5.11683 218.68 5.17017 218.616 5.2077C218.31 5.38595 217.399 5.13661 217.071 5.09414C215.678 4.91342 214.222 4.93859 212.826 4.92773C208.079 4.89218 203.446 4.59987 198.814 6.00759" fill="#5E3C2A"/>
<path fill-rule="evenodd" clip-rule="evenodd" d="M223.981 65.8631C222.771 70.7346 220.286 82.149 216.601 85.8008C213.158 89.2098 209.483 93.4675 205.042 95.13C202.596 96.0459 199.706 95.9136 197.148 96.1724C193.285 96.5629 188.31 95.8954 184.778 94.182C183.919 93.7667 182.975 92.9762 182.303 92.3121C181.977 91.9902 181.463 90.9375 181.044 90.8358C180.629 90.7355 179.774 91.1375 179.334 91.1819C178.124 91.3038 176.642 91.3596 175.432 91.2061C174.414 91.0772 172.473 90.2457 171.51 90.457C171.48 90.463 173.194 91.5028 173.268 91.5779C173.332 91.6391 172.656 91.7423 172.611 91.7438C172.236 91.7566 171.88 91.8993 171.52 91.9951C170.289 92.321 169.05 92.3975 167.79 92.6202C165.201 93.0789 160.756 92.679 158.676 90.8565C158.048 90.3079 158.162 89.3396 157.688 88.7392C157.55 88.5684 157.624 89.1718 157.624 89.389C157.614 89.7643 157.599 90.2018 157.53 90.5701C157.293 91.8208 156.473 93.0365 155.643 93.9736C152.457 97.5737 147.754 100.653 151.246 105.589C152.363 107.166 154.951 108.246 156.804 108.436C157.564 108.515 158.626 108.354 159.348 108.608C159.516 108.669 159.115 109.522 159.056 109.663C158.868 110.146 158.705 111.261 158.923 111.745C159.886 113.876 161.516 114.92 163.719 115.659C167.973 117.082 173.323 116.869 177.437 115.064C179.033 114.366 180.584 113.595 182.17 112.897C182.54 112.734 183.306 111.892 183.726 111.919C183.845 111.926 183.958 112.809 184.007 112.925C184.225 113.402 184.867 113.875 185.287 114.166C186.932 115.314 189.348 115.753 191.333 115.551C195.068 115.172 198.926 113.099 201.816 110.838C202.987 109.924 204.562 108.589 205.531 107.82C205.629 107.741 206.647 113.519 213.163 110.272C216.517 108.602 218.379 106.288 220.306 103.07C221.027 101.863 221.477 98.4708 221.477 98.4708C221.477 98.4708 224.865 100.113 226.056 100.26C228.763 100.597 232.404 97.9825 233.683 95.7225C236.385 90.9533 233.48 85.6408 231.584 81.2854C229.395 76.2583 228.491 73.3447 229.934 67.9681C231.618 61.6987 236.395 62.1871 240.377 58.6675C241.883 57.3339 243.652 53.8108 244.274 51.9577C245.944 46.9944 246.304 41.8963 246.769 36.7019C246.996 34.1472 247.154 31.4399 246.225 29.0051C246.156 28.7508 246.082 28.4951 245.993 28.2383C245.489 26.7797 243.696 25.2362 242.604 24.2344C241.473 23.195 240.031 22.3097 238.741 21.4747C236.504 20.0265 234.261 19.1945 231.628 18.7714C230.724 18.6267 229.445 18.4045 228.659 19.0449C224.184 22.68 221.18 29.1276 220.123 34.5792C219.743 36.5464 219.881 38.6197 220.083 40.6594C220.227 42.0588 220.647 43.7168 221.477 44.8693C221.936 45.5038 223.487 47.4304 223.487 47.4304C223.487 47.4304 222.603 49.3566 222.42 49.9294C221.852 51.7217 221.847 53.8765 222.119 55.7252C222.42 57.7896 223.388 59.4921 223.798 61.4588C224.1 62.8981 224.332 64.451 223.981 65.8631Z" fill="#7B4E38"/>
<path fill-rule="evenodd" clip-rule="evenodd" d="M224.736 77.9278C226.722 71.299 225.917 63.419 225.28 56.8268C225.181 55.7879 227.557 55.7188 228.101 54.9836C229.197 53.5038 229.069 51.1707 229.019 49.411C228.94 46.5753 227.597 43.7297 226.421 41.214C226.159 40.655 224.756 38.9254 225.013 38.281C225.018 38.2746 226.767 38.9427 226.9 38.9866C227.972 39.3288 229.207 39.4176 230.304 39.0814C231.746 38.6405 232.013 37.3428 231.959 35.9929C231.944 35.6132 231.894 35.1885 231.771 34.8316C231.761 34.8133 231.489 34.0164 231.558 34.0292C234.112 34.4993 236.918 38.8241 239.912 36.6521C240.786 36.0166 238.282 33.177 237.961 32.738C237.714 32.3968 237.422 32.145 237.136 31.8468C236.928 31.7248 236.755 31.591 236.731 31.4532C236.696 31.2804 236.987 31.6912 237.111 31.8186L237.136 31.8468C237.427 32.0171 237.793 32.1638 237.921 32.263C240.016 33.888 242.871 33.9171 244.051 31.0587C244.624 29.6698 244.674 27.5584 244.234 26.1285C244.175 25.9285 244.086 25.7246 243.982 25.5172C244.832 26.3517 245.672 27.312 245.993 28.2383C246.082 28.4951 246.156 28.7509 246.225 29.0051C247.154 31.4399 246.996 34.1472 246.768 36.7019C246.304 41.8963 245.943 46.9945 244.274 51.9578C243.651 53.8109 241.883 57.3339 240.376 58.6676C236.395 62.1871 231.618 61.6988 229.933 67.9681C228.491 73.3447 229.395 76.2584 231.583 81.2854C233.48 85.6409 236.385 90.9533 233.683 95.7226C232.403 97.9825 228.763 100.597 226.055 100.26C224.865 100.113 221.476 98.4709 221.476 98.4709C221.476 98.4709 221.027 101.863 220.305 103.07C218.379 106.288 216.517 108.602 213.162 110.272C206.647 113.519 205.629 107.741 205.53 107.82C204.562 108.589 202.986 109.924 201.815 110.838C198.926 113.099 195.068 115.172 191.333 115.551C189.347 115.753 186.932 115.314 185.287 114.166C184.867 113.875 184.225 113.402 184.007 112.925C183.958 112.809 183.844 111.926 183.726 111.919C183.306 111.892 182.54 112.734 182.17 112.897C180.584 113.595 179.033 114.366 177.437 115.064C173.322 116.87 167.972 117.082 163.719 115.659C161.516 114.92 159.886 113.876 158.922 111.745C158.705 111.261 158.868 110.146 159.056 109.664C159.115 109.522 159.515 108.669 159.347 108.608C158.626 108.354 157.564 108.515 156.803 108.437C154.951 108.246 152.362 107.166 151.246 105.589C149.186 102.677 149.981 100.412 151.626 98.3045C151.626 98.9335 151.849 99.5216 152.481 99.9581C153.573 100.715 155.306 100.856 156.586 100.861C159.486 100.873 162.059 100.55 164.816 99.57C165.942 99.1685 167.226 98.2847 168.451 98.2255C168.56 98.2205 168.432 98.8733 168.422 98.934C168.353 99.293 168.54 99.5887 168.733 99.8811C169.336 100.799 170.319 101.199 171.376 101.337C173.668 101.634 176.454 101.299 178.608 100.509C180.174 99.9349 181.641 98.7528 183.246 98.3677C183.321 98.3509 183.069 99.3374 183.049 99.4312C182.906 100.102 183.128 100.853 183.469 101.424C184.536 103.216 186.625 103.606 188.537 103.769C198.634 104.632 207.896 97.9065 215.054 91.6693C218.083 89.0281 220.202 87.4431 222.439 84.1033C223.25 82.8975 224.988 79.7552 224.791 78.1925C224.781 78.1011 224.761 78.0132 224.736 77.9278ZM157.144 91.7443C157.322 91.3616 157.455 90.9676 157.529 90.5701C157.599 90.2018 157.613 89.7643 157.623 89.3891C157.623 89.1718 157.549 88.5684 157.688 88.7393C158.162 89.3397 158.048 90.308 158.675 90.8565C158.967 91.1113 159.303 91.3384 159.673 91.5394C159.579 91.5794 159.486 91.6204 159.392 91.6614L157.144 91.7443Z" fill="#5E3C2A"/>
<path fill-rule="evenodd" clip-rule="evenodd" d="M236.32 30.8928C235.876 30.5654 235.564 30.0944 235.135 29.7438C233.366 28.2981 231.42 26.842 229.39 25.7873C228.515 25.3355 227.631 24.863 226.732 24.4595C226.613 24.4047 226.045 24.2798 225.986 24.1421C225.956 24.067 226.964 23.8962 227.048 23.8888C228.105 23.7944 229.231 24.0073 230.185 24.503C231.543 25.2101 232.61 26.1413 233.668 27.2399C234.73 28.342 235.481 29.767 236.567 30.8429" fill="#5E3C2A"/>
<path fill-rule="evenodd" clip-rule="evenodd" d="M230.848 33.3439C229.623 32.2601 228.101 31.4059 226.664 30.6188C226.145 30.3349 225.587 30.1443 225.068 29.8658C225.053 29.8594 224.668 29.6762 224.678 29.6466C224.703 29.5883 225.058 29.6777 225.113 29.6846C225.621 29.7567 226.135 29.7513 226.644 29.8574C228.59 30.2643 230.295 31.4049 231.139 33.2446" fill="#5E3C2A"/>
<path fill-rule="evenodd" clip-rule="evenodd" d="M228.031 78.4127C227.498 76.881 227.582 74.2463 227.73 72.1088C228.056 67.3075 230.086 62.2879 233.559 59.1105C234.246 58.4859 235.13 58.1343 235.876 57.6025C238.232 55.937 243.044 54.242 244.926 57.9492C245.232 58.5436 245.346 59.192 245.439 59.8378C245.553 60.5656 245.682 61.3764 245.593 62.1155C244.99 67.142 241.334 71.3874 237.96 74.9302C236.686 76.2703 234.927 77.356 233.786 78.7638C233.485 79.1331 233.47 79.7207 233.228 80.1295C231.988 82.2063 228.985 81.1867 228.031 78.4127Z" fill="#F6BC8B"/>
<path fill-rule="evenodd" clip-rule="evenodd" d="M244.521 57.2885C244.669 57.4869 244.803 57.7067 244.926 57.9491C245.232 58.5436 245.346 59.1919 245.44 59.8378C245.554 60.5656 245.682 61.3763 245.593 62.1155C244.99 67.142 241.335 71.3874 237.961 74.9302C236.686 76.2702 234.928 77.356 233.787 78.7637C233.485 79.1331 233.471 79.7206 233.229 80.1295C231.989 82.2062 228.985 81.1866 228.032 78.4127C227.627 77.2449 227.577 75.4367 227.641 73.6962C228.071 73.912 228.56 74.2616 228.723 74.3253C229.489 74.6235 230.754 73.7851 231.05 73.0869C231.702 71.538 231.267 69.6878 231.781 68.1029C232.334 66.3811 233.145 65.2524 234.226 63.8377C234.76 63.1425 236.01 61.7763 236.929 61.6919C237.749 61.6163 236.711 62.5855 236.533 62.7638C235.491 63.8101 233.352 65.9535 233.391 67.5178C233.411 68.1236 234.261 67.4328 234.483 67.3064C235.486 66.7431 236.296 65.8795 237.338 65.3082C237.6 65.1645 237.916 64.9941 238.213 64.9433C238.371 64.9161 238.776 64.7867 238.687 64.9166C237.269 66.9509 234.666 67.8683 233.584 70.2853C233.229 71.0813 232.423 72.6045 233.718 73.0445C235.279 73.5767 236.894 71.499 237.813 70.5549C240.614 67.6797 242.664 64.2239 244.047 60.4752C244.373 59.5909 244.733 58.3259 244.521 57.2885Z" fill="url(#paint7_linear_561_1097)"/>
<path fill-rule="evenodd" clip-rule="evenodd" d="M238.737 60.8515C239.576 60.2224 240.713 59.7918 241.711 59.4852C241.903 59.4264 242.605 59.2551 242.694 59.5943C242.782 59.9321 242.041 60.2263 241.824 60.3286C241.039 60.6979 240.169 61.1206 239.31 61.2667C239.053 61.3097 238.737 61.4504 238.48 61.4242C238.149 61.3906 238.534 60.9295 238.653 60.8618" fill="#DD9051"/>
<path fill-rule="evenodd" clip-rule="evenodd" d="M208.198 44.2901C206.529 42.5521 201.964 39.3698 198.314 37.8233C196.466 37.0407 194.382 36.3726 192.341 36.5484C190.37 36.7187 188.799 37.8835 187.347 39.1051C186.878 39.5026 185.999 40.2605 185.732 40.8422C185.361 41.649 185.509 42.8557 185.692 43.6783C185.796 44.1469 185.84 45.2673 186.216 45.6228C186.389 45.7857 187.807 45.2569 188.068 45.213C189.837 44.9162 191.665 45.0791 193.448 44.929C197.069 44.6234 200.502 45.6164 203.846 46.8656C204.75 47.2043 205.733 47.6645 206.524 48.2249C206.761 48.3948 207.205 48.9962 207.522 48.9908C207.853 48.9848 208.154 48.4605 208.337 48.2511C209.068 47.4147 209.112 45.2431 208.198 44.2901ZM184.759 45.5932C184.472 45.3774 184.413 44.8338 184.294 44.5207C183.84 43.3544 183.519 42.0124 183.618 40.7538C183.647 40.3509 183.756 39.1708 184.418 39.2596C184.62 39.2878 184.591 39.8309 184.601 39.9717C184.64 40.6965 184.581 41.4263 184.65 42.1536C184.734 43.0606 184.986 44.0437 185.208 44.9251C185.243 45.0569 185.45 45.7235 185.337 45.8376C185.139 46.0336 184.877 45.6544 184.744 45.5329L184.759 45.5932Z" fill="#5E3C2A"/>
<path fill-rule="evenodd" clip-rule="evenodd" d="M175.531 45.4425C175.447 45.3556 175.378 45.2722 175.333 45.2406C174.948 44.9562 174.538 44.7809 174.088 44.6101C172.952 44.182 171.396 44.3266 170.22 44.4728C167.696 44.7873 165.29 45.3142 162.86 46.0484C162.01 46.3057 161.022 47.0888 160.143 47.1658C159.407 47.23 158.473 45.9546 158.71 45.2915C158.982 44.533 160.054 43.5623 160.627 43.0137C161.314 42.3516 162.109 41.6949 162.89 41.1409C164.337 40.1074 165.69 39.1485 167.271 38.3304C169.39 37.2386 171.836 36.7019 172.977 36.9389C174.755 37.3102 176.919 39.1668 177.161 41.0955C177.294 40.9103 177.413 40.7345 177.502 40.5735C177.635 40.3365 178.169 38.6459 178.376 39.6705C178.396 39.7811 178.411 39.8828 178.411 39.9958C178.416 40.1479 178.416 40.3 178.416 40.4521C178.416 40.7256 178.421 40.9962 178.386 41.2668C178.213 42.6454 177.566 44.1598 176.82 45.3166C176.627 45.6124 175.911 45.9338 175.63 45.6114C175.59 45.568 175.555 45.5097 175.531 45.4425Z" fill="#5E3C2A"/>
<path fill-rule="evenodd" clip-rule="evenodd" d="M204.887 57.2141C204.688 56.3906 203.163 48.663 195.634 51.0444C193.997 51.561 192.655 52.2686 191.226 53.3742C191.174 53.4178 190.074 54.4527 190.079 54.4637C190.14 54.5782 190.597 54.4477 190.678 54.426C191.287 54.2575 192.02 54.2363 192.643 54.1388C192.715 54.1279 193.291 53.8995 193.338 53.9922C193.376 54.0577 193.028 54.5208 192.99 54.6026C192.833 54.9242 191.98 56.4119 192.189 56.7774C192.217 56.8211 193.827 55.5848 193.936 55.5194C195.15 54.7136 196.474 53.7715 197.868 53.6255C202.202 53.1877 204.421 56.7666 204.887 57.2141Z" fill="#392A22"/>
<path fill-rule="evenodd" clip-rule="evenodd" d="M206.625 56.6282C207.605 56.2665 208.527 55.7732 209.529 55.4443C211.045 54.9451 212.618 54.6644 214.175 54.3284C215.175 54.1123 216.349 53.6848 217.382 53.7118C217.437 53.713 217.278 53.747 217.228 53.7694C217.159 53.7987 217.093 53.8351 217.023 53.8657C216.761 53.9808 216.775 53.9808 216.517 54.1147C216.032 54.366 215.557 54.6338 215.054 54.8523C213.181 55.6639 211.046 56.6564 208.97 56.8103C208.425 56.8502 207.875 56.842 207.329 56.842C207.19 56.842 206.68 56.9337 206.795 56.7575" fill="#C47B3E"/>
<path fill-rule="evenodd" clip-rule="evenodd" d="M206.418 57.7218C207.673 57.7406 208.879 57.3824 210.108 57.1792C211.393 56.9678 212.7 56.8973 213.997 56.8186C214.781 56.7705 215.564 56.7012 216.346 56.6448C216.786 56.6119 216.843 56.6166 217.256 56.6142C217.365 56.6142 217.474 56.6142 217.584 56.6142C217.677 56.6142 217.908 56.5344 217.862 56.6142C217.798 56.727 217.283 56.7834 217.178 56.8045C216.471 56.9443 215.745 57.0206 215.033 57.1369C212.886 57.4846 210.765 58.0096 208.592 58.1283C208.043 58.1588 206.986 58.3867 206.463 58.0789" fill="#C47B3E"/>
<path fill-rule="evenodd" clip-rule="evenodd" d="M206.277 59.1524C206.604 59.1289 206.932 59.2522 207.253 59.305C208.348 59.4859 209.445 59.6644 210.538 59.8618C211.425 60.0227 212.311 60.1942 213.166 60.4867C213.948 60.7545 214.739 61.0504 215.492 61.3922C215.748 61.5085 215.998 61.6413 216.251 61.7681C216.36 61.8221 216.683 61.9067 216.569 61.9513C215.946 62.1957 214.817 61.9325 214.173 61.8715C212.226 61.6906 210.196 61.1538 208.409 60.3727C207.683 60.0544 206.441 59.8935 206.038 59.1335" fill="#C47B3E"/>
<path fill-rule="evenodd" clip-rule="evenodd" d="M160.609 54.2391C160.417 54.2262 160.222 54.2356 160.03 54.2356C160 54.2356 159.876 54.2016 159.852 54.2251C159.715 54.359 159.994 54.8217 160.17 54.8558C160.251 54.8722 160.295 54.8582 160.37 54.8229C160.5 54.763 161.084 54.5363 161.101 54.3355C161.104 54.3037 160.964 54.2685 160.938 54.2415" fill="#C47B3E"/>
<path fill-rule="evenodd" clip-rule="evenodd" d="M160.657 55.2117C160.312 55.2211 159.894 55.3362 159.613 55.5417C159.565 55.577 159.732 55.5488 159.791 55.5523C159.888 55.5594 159.982 55.5652 160.08 55.5652C160.423 55.5652 160.509 55.4066 160.774 55.2164" fill="#C47B3E"/>
<path fill-rule="evenodd" clip-rule="evenodd" d="M160.243 56.2583C160.14 56.2407 160.045 56.2313 159.943 56.2301C159.855 56.2301 159.765 56.2348 159.679 56.2524C159.659 56.2559 159.522 56.2759 159.503 56.2912C159.414 56.3617 159.57 56.5778 159.644 56.6071C159.772 56.66 160.111 56.4873 160.247 56.4063C160.284 56.384 160.409 56.3499 160.415 56.3053" fill="#C47B3E"/>
<path fill-rule="evenodd" clip-rule="evenodd" d="M160.612 56.5157C160.747 55.8351 161.783 49.4477 166.873 51.4221C167.98 51.8503 168.887 52.4363 169.852 53.3514C169.888 53.3874 170.631 54.2439 170.628 54.2529C170.586 54.3476 170.277 54.2393 170.222 54.2213C169.811 54.0816 169.315 54.0635 168.894 53.9824C168.845 53.9734 168.456 53.7841 168.424 53.8607C168.398 53.9148 168.633 54.298 168.659 54.3656C168.765 54.6315 169.341 55.8621 169.199 56.1642C169.18 56.2002 168.092 55.1769 168.018 55.1229C167.198 54.4557 166.304 53.6759 165.361 53.5542C162.43 53.1891 160.927 56.1461 160.612 56.5157Z" fill="#392A22"/>
<path fill-rule="evenodd" clip-rule="evenodd" d="M184.651 66.9603C184.651 66.9603 197.232 72.518 202.689 68.5037C208.142 64.49 208.897 56.9107 208.04 53.9077C208.04 53.9077 209.369 56.1357 208.848 59.5199C207.972 65.1751 204.632 71.1228 198.21 71.3079C191.677 71.4969 185.679 68.4286 185.299 67.9989C184.919 67.5687 184.651 66.9603 184.651 66.9603Z" fill="url(#paint8_linear_561_1097)"/>
<path fill-rule="evenodd" clip-rule="evenodd" d="M206.393 52.478C200.414 55.6656 194.864 59.8895 189.616 64.3825C188.535 65.3046 187.493 66.2647 186.461 67.2406C187.669 68.0456 189.09 68.5118 190.4 68.8821C194.679 70.0906 199.85 70.8231 203.53 67.5021C206.067 65.2191 207.445 61.1465 207.868 57.6452C207.99 56.599 208.389 55.1275 207.912 54.1189C207.605 53.4724 207.041 52.9354 206.393 52.478ZM199.962 49.615C197.795 51.0424 195.78 52.6697 193.774 54.4179C190.385 57.3626 187.084 60.3666 183.91 63.54C183.998 64.1119 184.158 64.6652 184.47 65.1946C184.621 65.4418 184.782 65.6722 184.957 65.8873C188.847 61.7499 193.126 57.8424 197.435 54.3836C199.071 53.0672 200.726 51.7335 202.308 50.3241C201.549 50.0371 200.755 49.8127 199.962 49.615Z" fill="url(#paint9_linear_561_1097)"/>
<path fill-rule="evenodd" clip-rule="evenodd" d="M155.343 64.4793C155.343 64.4793 164.651 68.8649 168.013 64.3771C171.372 59.8903 171.098 52.2838 170.188 49.3749C170.188 49.3749 171.344 51.4701 171.339 54.8832C171.326 60.5872 169.635 66.8056 165.202 67.5726C160.691 68.3535 156.21 65.8463 155.901 65.4534C155.593 65.06 155.343 64.4793 155.343 64.4793Z" fill="url(#paint10_linear_561_1097)"/>
<path fill-rule="evenodd" clip-rule="evenodd" d="M168.895 48.103C165.085 51.8158 161.681 56.5205 158.514 61.4653C157.861 62.4804 157.24 63.5298 156.627 64.5941C157.549 65.2851 158.583 65.6197 159.53 65.8692C162.625 66.6827 166.287 66.9419 168.49 63.305C170.009 60.8042 170.536 56.6288 170.462 53.1082C170.436 52.0566 170.558 50.5569 170.121 49.5971C169.841 48.982 169.393 48.4992 168.895 48.103ZM164.135 45.8393C162.783 47.4556 161.556 49.2569 160.349 51.1776C158.309 54.4138 156.336 57.701 154.469 61.1453C154.59 61.706 154.759 62.2418 155.031 62.74C155.162 62.9722 155.297 63.1867 155.441 63.3847C157.704 58.9168 160.26 54.6422 162.884 50.8112C163.88 49.3536 164.888 47.8769 165.837 46.3315C165.28 46.115 164.706 45.9639 164.135 45.8393Z" fill="url(#paint11_linear_561_1097)"/>
<path fill-rule="evenodd" clip-rule="evenodd" d="M171.989 53.717C173.152 52.1666 175.262 51.1885 176.561 51.1083C177.883 51.0267 179.077 51.0714 180.303 51.629C181.753 52.2883 182.765 53.9421 183.188 55.3964C183.28 55.7039 183.603 55.8802 183.909 55.79C184.219 55.6998 184.396 55.3768 184.305 55.0688C183.79 53.3193 182.678 51.27 180.937 50.4768C179.533 49.8399 178.006 49.7342 176.493 49.8281C174.957 49.9228 172.436 51.1857 171.06 53.0195C170.864 53.276 170.918 53.6405 171.173 53.8327C171.429 54.0255 171.793 53.9735 171.989 53.717Z" fill="#392A22"/>
<path fill-rule="evenodd" clip-rule="evenodd" d="M186.329 69.0711C186.329 69.0711 200.55 75.2258 205.163 68.1667C205.163 68.1667 203.923 72.0689 198.34 72.0972C192.751 72.1254 186.329 69.0711 186.329 69.0711Z" fill="#392A22"/>
<path fill-rule="evenodd" clip-rule="evenodd" d="M158.211 66.8036C158.211 66.8036 165.467 69.8475 168.694 65.4241C168.694 65.4241 167.992 67.2465 165.864 67.9658C162.546 69.0875 158.211 66.8036 158.211 66.8036Z" fill="#392A22"/>
<path fill-rule="evenodd" clip-rule="evenodd" d="M209.415 56.5177L234.165 58.5078L232.397 60.1393L209.461 57.8485L209.415 56.5177Z" fill="#392A22"/>
<defs>
<linearGradient id="paint0_linear_561_1097" x1="56.0565" y1="199.561" x2="54.0893" y2="177.847" gradientUnits="userSpaceOnUse">
<stop stop-color="#DE9254" stop-opacity="0"/>
<stop offset="1" stop-color="#DE9254"/>
</linearGradient>
<linearGradient id="paint1_linear_561_1097" x1="40.6081" y1="173.702" x2="29.3086" y2="160.738" gradientUnits="userSpaceOnUse">
<stop stop-color="#DE9254" stop-opacity="0"/>
<stop offset="1" stop-color="#DE9254"/>
</linearGradient>
<linearGradient id="paint2_linear_561_1097" x1="29.1372" y1="172.132" x2="28.6489" y2="160.887" gradientUnits="userSpaceOnUse">
<stop stop-color="#DE9254" stop-opacity="0"/>
<stop offset="1" stop-color="#DE9254"/>
</linearGradient>
<linearGradient id="paint3_linear_561_1097" x1="23.2829" y1="157.383" x2="22.3907" y2="144.337" gradientUnits="userSpaceOnUse">
<stop stop-color="#DE9254" stop-opacity="0"/>
<stop offset="1" stop-color="#DE9254"/>
</linearGradient>
<linearGradient id="paint4_linear_561_1097" x1="162.084" y1="31.2281" x2="223.317" y2="14.6613" gradientUnits="userSpaceOnUse">
<stop stop-color="#DE9254" stop-opacity="0"/>
<stop offset="1" stop-color="#DE9254"/>
</linearGradient>
<linearGradient id="paint5_linear_561_1097" x1="209.982" y1="14.1509" x2="229.558" y2="64.8891" gradientUnits="userSpaceOnUse">
<stop stop-color="#DE9254" stop-opacity="0"/>
<stop offset="1" stop-color="#DE9254"/>
</linearGradient>
<linearGradient id="paint6_linear_561_1097" x1="184.793" y1="55.4728" x2="182.755" y2="73.9248" gradientUnits="userSpaceOnUse">
<stop stop-color="#DE9254" stop-opacity="0"/>
<stop offset="1" stop-color="#DE9254"/>
</linearGradient>
<linearGradient id="paint7_linear_561_1097" x1="246.808" y1="59.8555" x2="237.359" y2="72.5487" gradientUnits="userSpaceOnUse">
<stop stop-color="#DE9254" stop-opacity="0"/>
<stop offset="1" stop-color="#DE9254"/>
</linearGradient>
<linearGradient id="paint8_linear_561_1097" x1="195.43" y1="59.973" x2="203.598" y2="72.2177" gradientUnits="userSpaceOnUse">
<stop stop-color="white" stop-opacity="0"/>
<stop offset="1" stop-color="white"/>
</linearGradient>
<linearGradient id="paint9_linear_561_1097" x1="194.611" y1="55.4875" x2="207.425" y2="65.9231" gradientUnits="userSpaceOnUse">
<stop stop-color="white" stop-opacity="0"/>
<stop offset="1" stop-color="white"/>
</linearGradient>
<linearGradient id="paint10_linear_561_1097" x1="162.083" y1="56.5517" x2="173.241" y2="60.7249" gradientUnits="userSpaceOnUse">
<stop stop-color="white" stop-opacity="0"/>
<stop offset="1" stop-color="white"/>
</linearGradient>
<linearGradient id="paint11_linear_561_1097" x1="161.042" y1="52.1654" x2="173.717" y2="54.2583" gradientUnits="userSpaceOnUse">
<stop stop-color="white" stop-opacity="0"/>
<stop offset="1" stop-color="white"/>
</linearGradient>
</defs>
</svg>
