<svg width="332" height="432" viewBox="0 0 332 432" fill="none" xmlns="http://www.w3.org/2000/svg">
<path fill-rule="evenodd" clip-rule="evenodd" d="M160.312 112.586C159.852 114.251 158.816 115.702 158.265 117.341C156.228 123.398 154.645 130.194 154.278 136.592C153.788 145.097 155.358 153.405 153.845 161.914C152.113 171.668 151.029 181.275 150.557 191.152C150.378 194.919 147.243 198.489 146.888 202.13C146.56 205.504 148.567 209.323 149.582 212.453C150.81 216.246 152.35 220.227 153.298 224.095C153.521 225.017 153.058 225.896 153.228 226.774C153.464 227.994 154.317 229.056 154.829 230.161C155.476 231.555 156.984 234.995 158.458 235.93C159.24 236.428 160.364 235.541 160.91 235.082C162.852 233.456 164.137 231.577 165.055 229.226C167.5 222.941 168.225 216.019 169.253 209.411C169.594 207.199 170.945 203.096 170.241 200.884" fill="#CEC7BB"/>
<path fill-rule="evenodd" clip-rule="evenodd" d="M180.545 406.043L164.883 416.521C164.883 416.521 144.672 420.457 143.63 420.473C142.584 420.49 136.951 421.297 136.052 425.555L218.042 425.48L219.339 421.699L218.565 417.776L180.545 406.043Z" fill="#31302C"/>
<path d="M218.453 425.153H135.558V429.316H218.453V425.153Z" fill="#171614"/>
<path fill-rule="evenodd" clip-rule="evenodd" d="M159.853 212.943C158.698 218.656 156.271 221.182 156.058 224.173C155.844 227.168 159.229 255.17 159.229 255.17C159.229 255.17 165.376 282.842 166.46 289.245C167.54 295.649 173.867 325.721 173.867 325.721C173.867 325.721 182.633 371.918 182.738 378.192C182.842 384.465 181.934 397.695 181.934 397.695L178.942 400.74L178.984 405.788C178.984 405.788 178.921 407.014 184.261 409.557C189.596 412.1 206.798 418.574 206.798 418.574C206.798 418.574 220.067 419.612 220.867 419.704C221.666 419.796 223.076 415.312 223.076 415.312L222.201 409.762L223.921 405.144L219.377 394.826C219.377 394.826 222.624 370.307 223.252 364.126C223.883 357.94 217.117 333.748 217.117 333.748L219.235 307.515L223.427 244.295L201.689 205.33C201.689 205.33 161.008 207.229 159.853 212.943Z" fill="#52504A"/>
<path fill-rule="evenodd" clip-rule="evenodd" d="M157.167 237.18C160.673 241.715 164.36 246.01 168.024 250.533C169.194 251.98 173.152 254.747 173.418 256.696C173.464 257.04 171.646 256.935 171.453 256.97C170.499 257.144 169.839 257.974 168.785 257.622C168.603 257.561 166.959 256.661 166.959 257.136C166.947 260.49 169.047 264.399 169.889 267.622C171.962 275.537 174.607 283.321 176.711 291.24C178.966 299.708 181.202 307.777 181.206 316.638C181.206 317.746 181.588 323.836 180.46 324.947C179.708 325.692 175.248 323.411 174.669 323.129C174.294 322.948 173.792 322.771 173.209 322.589C171.565 314.716 167.329 294.378 166.46 289.245C165.379 282.843 159.229 255.168 159.229 255.168C159.229 255.168 158.086 245.697 157.167 237.18Z" fill="#5C5954"/>
<path fill-rule="evenodd" clip-rule="evenodd" d="M174.912 241.29C171.823 239.885 169.325 236.37 167.29 233.795C165.58 231.638 163.283 229.566 161.85 227.219C161.572 226.764 163.136 225.405 163.777 225.699C164.831 226.185 166.12 227.655 167.09 228.377C171.267 231.488 174.777 235.239 178.688 238.662C179.935 239.75 181.244 240.931 182.213 242.29C182.31 242.429 183.09 243.366 183.028 243.559C182.92 243.914 181.688 244.038 181.368 244.104C179.549 244.474 177.719 242.834 175.993 242.17" fill="#5C5954"/>
<path fill-rule="evenodd" clip-rule="evenodd" d="M223.253 246.959L189.061 254.02C186.563 253.79 183.094 252.091 180.805 251.033C180.667 250.971 178.563 250.029 178.466 250.251C177.989 251.326 179.178 253.978 179.429 255.082C180.027 257.746 179.914 260.678 181.211 263.163C182.199 265.049 184.592 265.748 185.245 267.86C189.442 281.374 189.045 295.962 192.371 309.631C192.961 312.044 196.079 324.734 195.2 326.93C194.137 329.599 190.308 330.239 187.727 329.937C187.178 329.875 183.776 328.708 183.425 329.36C182.069 331.87 192.108 331.28 193.099 331.28C194.899 331.28 196.84 330.469 198.64 330.778C199.188 330.874 209.984 338.562 210.335 339.26C210.348 339.285 208.03 339.206 207.879 339.185C206.297 338.963 204.703 338.487 203.155 338.114C198.476 336.985 191.681 336.78 187.547 335.4C185.764 334.806 183.944 334.35 182.174 333.723C181.985 333.656 179.651 332.819 179.651 332.857C179.316 338.211 187.559 339.085 191.087 339.461C191.823 339.536 194.639 339.503 195.171 340.16C195.263 340.264 194.572 340.791 194.543 340.816C193.773 341.423 189.969 343.334 190.342 344.38C190.919 346.024 194.384 346.68 195.664 347.726C197.51 349.236 201.816 356.61 202.703 359.006C204.498 363.883 202.326 370.483 202.841 375.594C203.72 384.34 205.962 393.249 205.192 402.116C205.142 402.685 202.037 402.451 201.665 402.451C198.681 402.451 195.74 401.61 192.924 400.681C192.451 400.522 190.296 399.117 189.902 399.318C189.781 399.385 190.187 400.071 190.233 400.15C190.928 401.342 192.543 402.827 193.945 403.057C198.351 403.781 204.674 403.35 204.184 408.996C204.121 409.703 199.133 409.021 196.61 408.427C191.275 407.164 186.049 405.383 180.667 404.182C180.496 404.145 179.78 403.885 178.968 403.605L178.985 405.788C178.985 405.788 178.922 407.014 184.262 409.557C189.597 412.1 206.799 418.574 206.799 418.574C206.799 418.574 220.068 419.612 220.867 419.704C221.667 419.796 223.077 415.312 223.077 415.312L222.202 409.762L223.922 405.144L219.378 394.826C219.378 394.826 222.625 370.308 223.253 364.126C223.884 357.94 217.118 333.748 217.118 333.748L219.236 307.515L223.253 246.959Z" fill="#43423D"/>
<path fill-rule="evenodd" clip-rule="evenodd" d="M201.309 334.028C200.263 333.748 199.221 333.534 198.175 333.267C197.062 332.982 195.957 332.773 194.836 332.552C194.497 332.485 194.141 332.439 193.794 332.426C193.631 332.422 193.221 332.246 193.3 332.393C193.66 333.066 195.66 333.593 196.317 333.819C198.84 334.681 201.23 335.99 203.711 336.981C204.586 337.332 205.289 337.943 206.276 337.951C206.402 337.951 207.013 338.106 207.075 337.918C207.268 337.315 205.929 336.922 205.64 336.609" fill="#43423D"/>
<path fill-rule="evenodd" clip-rule="evenodd" d="M180.805 328.783C180.127 328.712 179.512 328.737 178.847 328.511C178.428 328.369 177.52 327.741 177.094 327.804C176.834 327.842 177.236 328.628 177.278 328.712C177.663 329.49 178.345 330.46 179.144 330.828C179.859 331.159 180.772 330.979 181.533 331.104C181.78 331.146 182.341 331.305 182.579 331.196C182.989 331.008 182.567 329.544 182.374 329.331" fill="#43423D"/>
<path fill-rule="evenodd" clip-rule="evenodd" d="M167.344 244.605C167.114 244.701 166.784 244.362 166.625 244.232C165.892 243.634 165.273 242.957 164.612 242.288C162.331 240.008 159.653 237.143 158.49 234.065C158.126 233.103 157.959 232.208 157.795 231.204C157.779 231.112 157.64 230.217 157.712 230.175C157.879 230.074 158.314 230.706 158.356 230.811C158.728 231.714 159.164 232.605 159.561 233.504C160.243 235.056 162.553 236.336 163.813 237.264C167.189 239.761 170.545 242.229 174.01 244.605C175.031 245.303 176.111 245.956 177.161 246.612C177.471 246.805 178.429 247.16 178.609 247.512C178.621 247.537 178.04 247.616 177.998 247.624C177.32 247.754 177.015 247.997 176.324 247.645C175.768 247.361 175.182 247.148 174.608 246.893C174.148 246.688 173.692 246.483 173.236 246.261C172.876 246.089 172.516 245.893 172.144 245.747C171.868 245.638 171.587 245.512 171.332 245.366C170.625 244.969 167.487 243.174 168.11 245.249" fill="#43423D"/>
<path fill-rule="evenodd" clip-rule="evenodd" d="M174.78 216.105C174.759 217.251 174.755 218.422 174.855 219.56C174.901 220.112 175.056 220.743 175.006 221.295C174.997 221.417 174.637 221.362 174.575 221.375C174.278 221.425 173.374 221.68 173.219 221.341C173.077 221.036 173.098 220.63 173.047 220.3C172.893 219.204 172.88 218.037 172.939 216.933C172.955 216.59 172.985 216.251 173.01 215.912C173.06 215.214 172.8 214.77 173.554 214.578C173.708 214.54 173.855 214.507 174.01 214.486C174.211 214.461 174.951 214.218 175.064 214.511" fill="#43423D"/>
<path fill-rule="evenodd" clip-rule="evenodd" d="M183.667 213.645C183.667 213.645 186.554 250.548 187.826 253.869C189.103 257.19 225.512 334.241 225.512 334.241C225.512 334.241 226.905 345.153 227.123 350.888C227.34 356.618 226.754 375.899 227.771 384.377C228.788 392.851 228.75 413.099 228.75 413.099L226.842 418.474L229.336 422.071L260.184 415.851L269.85 417.984L273.549 413.978C273.549 413.978 270.691 408.85 270.666 407.495C270.641 406.139 272.286 377.874 272.265 369.55C272.244 361.227 271.863 339.653 270.7 336.107C269.536 332.56 265.03 328.084 263.682 325.349C262.339 322.614 262.364 319.1 262.364 319.1L260.402 315.788L259.314 249.122C260.82 247.256 248.547 210.508 248.547 210.508L184.897 209.881" fill="#52504A"/>
<path fill-rule="evenodd" clip-rule="evenodd" d="M189.615 257.85C194.573 268.618 208.515 298.218 217.496 317.252C219.874 320.216 222.611 323.045 224.557 323.523C227.09 324.145 230.577 322.551 232.974 321.953C235.318 321.366 237.824 320.957 240.09 320.139C240.445 320.011 242.276 319.475 242.21 318.846C240.221 299.854 231.167 282.241 229.963 262.84C229.689 258.452 234.31 252.787 236.654 249.395C237.723 247.843 240.025 244.91 239.789 242.853C239.654 241.649 236.739 239.036 236.009 237.94C235.052 236.509 234.137 234.34 232.291 233.741C231.221 233.398 230.171 234.702 229.36 235.196C226.403 236.991 223.179 238.654 220.418 240.723C214.264 245.327 207.488 248.318 200.847 251.957C197.499 253.79 194.225 256.218 190.839 257.862L189.615 257.85Z" fill="#5C5954"/>
<path fill-rule="evenodd" clip-rule="evenodd" d="M205.356 222.53C204.013 223.379 203.511 225.37 202.723 226.675C200.769 229.928 198.762 233.162 196.742 236.377C195.627 238.16 194.619 239.889 193.712 241.776C193.441 242.34 193.75 244.601 194.658 244.134C195.283 243.81 195.766 243.154 196.306 242.714C198.503 240.946 200.858 239.233 203.156 237.593C205.295 236.068 207.291 234.347 209.434 232.83C211.279 231.526 213.383 230.044 214.735 228.203C216.248 226.142 215.881 223.236 214.631 221.191C213.769 219.782 211.781 219.068 210.376 220.033" fill="#5C5954"/>
<path fill-rule="evenodd" clip-rule="evenodd" d="M220.831 229.496C217.912 231.619 215.317 234.224 212.46 236.462C210.472 238.021 208.538 239.658 206.649 241.336C204.877 242.911 203.186 244.528 201.588 246.269C201.263 246.62 200.151 247.446 200.155 247.99C200.155 248.113 200.85 247.716 200.885 247.693C201.534 247.291 202.194 246.948 202.808 246.481C204.302 245.354 206.009 244.59 207.568 243.571C208.831 242.749 210.202 242.12 211.456 241.294C214.843 239.079 217.982 236.424 221.167 233.931C221.545 233.637 221.897 233.305 222.275 233.008C223.117 232.348 224.48 231.723 225.036 230.766C225.561 229.855 225.124 228.277 224.047 228.026" fill="#5C5954"/>
<path fill-rule="evenodd" clip-rule="evenodd" d="M184.596 215.046C184.036 215.678 184.613 218.254 184.613 219.066C184.617 223.621 185.086 228.221 185.488 232.764C185.789 236.202 186.015 239.648 186.379 243.082C186.919 248.151 187.27 252.284 190.333 256.345C190.442 256.491 190.388 255.981 190.392 255.797C190.4 255.5 190.329 255.212 190.321 254.91C190.287 253.99 190.183 253.07 190.145 252.15C190.04 249.594 189.735 246.349 190.463 243.881C191.162 241.518 190.664 239.226 190.505 236.766C190.174 231.622 189.651 226.473 188.915 221.375C188.66 219.601 188.635 217.74 188.471 215.95C188.413 215.327 188.622 214.39 188.178 213.879C187.86 213.507 186.906 213.478 186.467 213.273" fill="#43423D"/>
<path fill-rule="evenodd" clip-rule="evenodd" d="M188.216 249.892C188.224 251.552 189.446 253.568 189.998 255.132C190.057 255.291 190.413 256.755 190.781 256.692C192.367 256.421 193.731 254.936 195.045 254.112C199.384 251.385 203.744 248.591 207.774 245.416C209.783 243.835 212.009 242.513 213.929 240.824C214.067 240.702 215.779 239.402 215.745 239.272C215.666 238.996 214.745 239.565 214.666 239.615C213.586 240.28 212.448 240.84 211.377 241.518C208.192 243.538 205.016 245.638 201.87 247.733C200.702 248.507 199.501 250.03 198.087 250.339C197.874 250.385 197.782 249.758 197.748 249.641C197.543 248.858 197.551 248.817 198.146 248.147C199.92 246.144 201.857 244.207 203.418 242.012C203.661 241.669 204.832 240.79 204.816 240.334C204.795 239.841 203.841 240.088 203.41 239.845C203.054 239.644 202.343 238.607 201.941 238.958C199.121 241.413 197.028 244.655 193.819 246.7C192.66 247.441 190.634 243.827 190.212 243.174C190.17 243.112 189.346 241.773 189.329 241.79C189.141 241.957 189.115 242.677 189.057 242.919C188.839 243.81 188.392 245.822 188.81 246.658" fill="#43423D"/>
<path fill-rule="evenodd" clip-rule="evenodd" d="M183.438 248.197C182.383 248.16 181.287 247.361 180.362 246.905C179.722 246.591 179.023 246.395 178.387 246.077C177.931 245.847 176.475 245.169 176.357 244.571C176.349 244.529 179.01 244.964 179.228 244.989C181.446 245.253 184.53 245.253 184.659 248.151" fill="#43423D"/>
<path fill-rule="evenodd" clip-rule="evenodd" d="M191.22 256.546C188.437 256.701 185.186 254.944 182.755 253.831C179.922 252.535 177.005 251.56 174.415 249.808C173.131 248.934 171.578 248.423 170.44 247.357C170.386 247.302 169.457 246.328 169.565 246.227C170.151 245.692 172.244 247.01 172.884 247.194C176.143 248.139 179.119 249.21 182.215 250.548C182.454 250.653 184.044 251.318 184.303 250.987C184.567 250.653 184.789 248.888 185.182 248.804C186.362 248.545 188.944 249.916 190.111 250.193C190.454 250.276 190.689 251.347 190.814 251.619C191.187 252.451 191.86 254.772 192.676 255.028" fill="#43423D"/>
<path fill-rule="evenodd" clip-rule="evenodd" d="M189.497 214.628C188.865 220.588 191.099 226.703 191.342 232.655C191.422 234.692 191.74 236.737 191.982 238.758C192.062 239.439 192.083 240.15 192.233 240.819C192.305 241.125 192.401 242.032 192.468 241.727C192.899 239.761 192.422 237.055 192.422 235.048C192.422 230.334 192.334 225.235 192.807 220.538C192.941 219.212 194.539 214.741 192.983 214.013" fill="#43423D"/>
<path fill-rule="evenodd" clip-rule="evenodd" d="M248.853 211.165L238.413 212.114C239.488 214.043 247.673 221.337 247.514 222.09C246.97 224.654 239.179 228.627 237.044 229.748C236.965 229.79 235.438 230.539 235.479 230.622C236.467 232.651 243.786 228.021 245.51 229.351C248.288 231.484 250.1 239.167 250.958 242.605C251.958 246.616 236.149 260.503 239.446 262.949C248.476 269.654 251.234 256.165 258.126 253.873C258.682 253.689 257.594 254.923 257.297 255.429C256.862 256.161 256.322 256.968 255.845 257.667C254.192 260.088 252.343 262.343 250.506 264.635C247.769 268.044 249.167 273.251 248.485 277.333C248.146 279.358 242.066 281.503 240.693 282.946C235.082 288.856 247.38 314.893 247.824 322.484C247.878 323.417 236.835 328.264 237.258 329.829C237.279 329.912 237.978 330.046 238.095 330.038C242.405 329.732 246.347 327.148 250.426 326.955C250.723 326.943 250.338 328.11 250.322 328.16C249.451 330.627 246.677 334.86 251.171 333.656C254.933 332.648 258.051 329.77 261.365 327.917C261.737 327.708 262.314 327.198 262.515 327.712C264.39 332.468 259.431 333.647 256.314 335.111C245.074 340.377 242.476 338.453 231.877 335.99C231.764 335.964 231.952 336.203 231.985 336.312C232.521 337.93 233.923 341.452 235.881 341.837C237.835 342.222 250.083 344.016 250.548 344.585C253.184 347.814 248.501 370.136 248.945 375.49C249.556 382.838 252.904 391.68 256.13 398.23C256.519 399.025 259.745 405.06 259.088 405.663C256.682 407.871 248.815 407.578 242.848 408.022C238.764 408.323 235.576 408.971 235.643 411.008C235.664 411.627 241.643 414.404 242.145 414.316C244.003 414.007 246.334 409.523 248.204 409.293C248.46 409.264 249.803 409.26 252.012 409.281C252.439 409.569 252.837 409.866 252.858 410.255C252.866 410.402 252.146 410.816 252.042 410.912C251.221 411.673 250.606 412.623 249.765 413.388C246.706 416.182 241.878 416.922 237.84 416.588C235.756 416.412 232.998 415.404 230.91 415.893C230.642 415.956 231.366 416.199 231.621 416.312C232.031 416.491 232.467 416.6 232.898 416.73C234.145 417.102 236.53 417.023 237.559 417.792C237.697 417.893 237.22 417.78 237.049 417.78C236.701 417.771 236.396 417.78 236.053 417.834C235.124 417.98 234.132 418.06 233.186 418.068C231.743 418.081 228.537 417.106 227.228 417.88C227.148 417.926 227.073 417.976 227.002 418.031L226.843 418.474L229.337 422.071L260.185 415.851L269.851 417.985L273.55 413.978C273.55 413.978 270.692 408.85 270.667 407.495C270.642 406.139 272.286 377.874 272.265 369.55C272.244 361.227 271.863 339.653 270.7 336.107C269.537 332.56 265.03 328.084 263.683 325.349C262.34 322.614 262.365 319.1 262.365 319.1L260.402 315.788L259.749 250.289C259.72 246.905 260.193 238.841 259.201 236.599L254.481 216.008L248.853 211.165Z" fill="#43423D"/>
<path fill-rule="evenodd" clip-rule="evenodd" d="M228.91 215.306C228.721 215.573 228.822 216.205 228.792 216.519C228.721 217.347 228.726 218.187 228.726 219.024C228.726 219.802 228.688 220.58 228.688 221.358C228.688 222.127 228.345 223.834 229.14 224.189C229.303 224.265 229.734 224.562 229.931 224.436C230.102 224.327 230.102 223.796 230.123 223.625C230.207 223.006 230.37 222.408 230.529 221.805C230.91 220.375 231.429 218.944 231.303 217.443C231.253 216.862 230.906 216.297 230.705 215.757C230.483 215.159 230.357 214.369 229.78 214.009" fill="#43423D"/>
<path fill-rule="evenodd" clip-rule="evenodd" d="M225.245 427.743C225.277 426.881 226.028 423.573 226.182 423.087C226.915 420.779 227.462 419.775 227.462 419.775C227.462 419.775 232.15 419.382 234.276 419.382C237.009 419.377 239.982 419.495 242.81 419.327C245.452 417.654 248.57 416.123 251.511 415.358C256.529 414.049 261.352 414.488 266.478 414.814C270.379 415.061 274.759 415.362 277.437 418.361C279.012 420.126 279.043 426.208 279.288 428.558L225.245 427.743Z" fill="#31302C"/>
<path d="M280.119 427.602H224.155V431.43H280.119V427.602Z" fill="#171614"/>
<path fill-rule="evenodd" clip-rule="evenodd" d="M252.845 207.677L163.335 205.264L158.473 201.386C158.473 201.386 156.933 201.968 156.414 201.872C155.895 201.775 155.59 198.948 155.59 198.948C155.59 198.948 158.431 195.982 158.385 195.916C158.339 195.849 161.13 177.491 160.917 174.994C160.703 172.502 159.64 145.461 158.498 139.238C156.556 128.618 159.322 113.285 159.322 113.285C159.322 113.285 181.793 100.587 187.229 97.9218C192.668 95.2579 205.502 92.3916 205.502 92.3916L239.463 90.2698C239.463 90.2698 256.314 102.473 257.712 103.104C259.114 103.732 260.586 105.35 260.586 105.35C260.586 105.35 261.319 104.384 262.804 104.782C264.29 105.183 267.566 108.036 267.566 108.036L280.174 114.916C280.174 114.916 278.462 136.406 269.788 150.514C261.109 164.622 255.879 175.605 255.046 177.91C254.515 179.382 254.331 188.784 254.155 197.078C254.448 197.442 254.728 197.819 255.025 198.174C255.766 199.061 257.071 202.256 257.071 202.256C257.071 202.256 257.088 205.975 256.875 206.154C256.574 206.401 255.594 206.029 255.301 205.908C255.209 205.87 254.85 205.561 254.753 205.636C254.419 205.899 254.146 206.284 253.87 206.652C253.858 207.326 253.854 207.706 253.854 207.706L252.9 207.681C252.879 207.685 252.866 207.689 252.858 207.685C252.854 207.681 252.849 207.681 252.845 207.677Z" fill="#EDE8E0"/>
<path fill-rule="evenodd" clip-rule="evenodd" d="M273.571 142.972C272.487 145.603 271.232 148.159 269.788 150.514C261.109 164.621 255.879 175.605 255.046 177.909C254.515 179.382 254.331 188.784 254.155 197.078C254.448 197.442 254.728 197.818 255.025 198.174C255.766 199.061 257.071 202.256 257.071 202.256C257.071 202.256 257.088 205.974 256.875 206.154C256.574 206.401 255.594 206.029 255.301 205.907C255.209 205.87 254.849 205.56 254.753 205.636C254.418 205.899 254.146 206.284 253.87 206.652C253.858 207.325 253.854 207.706 253.854 207.706L252.9 207.681C252.879 207.685 252.866 207.689 252.858 207.685C252.853 207.681 252.849 207.681 252.845 207.677L163.335 205.263L158.473 201.386C158.473 201.386 156.933 201.967 156.414 201.871C155.895 201.775 155.59 198.948 155.59 198.948C155.59 198.948 158.431 195.982 158.385 195.915C158.364 195.886 158.891 192.339 159.469 188.157C161.431 186.827 163.649 185.848 166.248 185.409C169.185 184.911 173.349 187.341 176.123 187.91C184.266 189.566 192.288 191.189 200.56 191.934C204.1 192.251 209.071 193.276 212.482 191.511C214.93 190.244 217.336 188.876 219.641 187.366C219.746 187.295 221.729 186.392 221.75 186.316C221.775 186.22 221.211 186.17 219.018 186.446C217.281 186.668 214.896 186.659 213.181 186.245C212.988 186.195 211.394 185.568 211.708 185.283C212.423 184.635 218.851 184.208 220.181 183.92C228.052 182.23 241.731 182.807 248.175 177.546C248.648 177.165 250.376 172.999 250.209 172.455C249.991 171.753 246.891 172.045 247.899 170.385C248.317 169.703 249.937 169.942 250.577 169.699C251.64 169.297 253.004 168.269 253.552 167.235C255.423 163.722 257.561 161.058 259.16 157.423C259.879 155.792 260.942 144.763 261.838 143.228C262.683 141.78 262.75 148.757 263.423 147.222C264.574 144.62 266.754 138.819 268.893 137.042L273.571 142.972Z" fill="#CEC7BB"/>
<path fill-rule="evenodd" clip-rule="evenodd" d="M240.869 170.912C237.346 171.824 233.802 173.146 230.19 173.648C225.713 174.271 219.708 174.743 215.725 176.943C213.888 177.956 211.03 178.437 209.005 178.859C208.214 179.022 207.444 179.277 206.661 179.495C206.264 179.608 205.167 179.524 205.456 179.825C207.234 181.657 212.122 180.988 214.214 180.511C221.307 178.901 228.512 177.6 235.538 175.73C238.153 175.036 241.89 174.927 243.564 172.627" fill="#CEC7BB"/>
<path fill-rule="evenodd" clip-rule="evenodd" d="M248.56 126.309C241.664 132.273 233.371 137.234 225.613 142.01C220.985 144.863 216.679 148.201 212.093 151.099C207.306 154.123 202.606 157.444 198.163 160.945C196.28 162.43 193.735 164.032 193.769 164.119C194.053 164.897 197.995 162.819 198.372 162.639C203.201 160.334 207.95 157.887 212.8 155.625C218.135 153.132 223.144 150.033 228.282 147.209C239.246 141.195 250.862 134.461 253.163 120.834" fill="#CEC7BB"/>
<path fill-rule="evenodd" clip-rule="evenodd" d="M171.684 144.662C174.433 147.954 178.638 150.718 182.513 152.437C183.149 152.722 185.011 154.249 185.748 154.01C189.56 152.78 192.857 149.183 196.82 148.493C197.075 148.447 196.481 148.891 196.318 149.096C195.933 149.581 195.514 150.016 195.045 150.421C193.807 151.496 192.736 152.843 191.756 154.152C189.53 157.134 186.81 159.92 184.739 162.99C184.199 163.789 183.078 165.843 182.082 166.202C181.287 166.491 180.182 165.445 179.596 165.019C177.563 163.551 175.63 162.041 173.839 160.255C173.55 159.962 171.696 158.373 171.88 157.85" fill="#CEC7BB"/>
<path fill-rule="evenodd" clip-rule="evenodd" d="M206.113 145.047C209.951 145.386 214.411 142.341 217.776 140.881C220.002 139.915 222.24 138.966 224.458 137.97C226.262 137.163 227.99 136.084 229.844 135.381C230.894 134.979 232.743 134.607 233.622 133.875C233.827 133.704 233.066 133.896 232.819 134.001C232.153 134.281 231.601 134.595 230.982 134.963C229.287 135.971 227.638 137.029 225.918 137.987C220.78 140.852 215.846 144.047 210.716 146.925C208.846 147.975 206.917 148.882 205.109 150.049C204.996 150.125 203.247 150.953 203.264 151.028" fill="#CEC7BB"/>
<path fill-rule="evenodd" clip-rule="evenodd" d="M241.814 89.0466C238.115 91.7214 235.153 96.3582 231.847 99.5407C224.972 106.162 218.038 112.787 210.841 119.057C208.175 121.378 205.769 123.971 203.183 126.38C202.213 127.284 200.673 128.906 199.338 129.341C199.187 129.387 199.815 127.288 199.819 127.263C200.229 125.857 200.648 124.394 200.92 122.959C201.422 120.353 201.936 117.718 202.326 115.096C202.493 113.979 202.51 112.586 203.326 111.72C207.61 107.166 213.59 103.916 218.586 100.252C222.273 97.5448 225.964 94.8667 229.788 92.3701C231.11 91.5081 232.634 90.0438 234.086 89.4323" fill="#CEC7BB"/>
<path fill-rule="evenodd" clip-rule="evenodd" d="M195.543 94.3398C194.02 98.2133 194.129 102.636 193.254 106.701C193.212 106.894 192.827 110.57 192.898 110.574C193.702 110.658 195.957 106.476 196.727 107.404C199.276 110.482 201.962 113.439 204.598 116.455C205.385 117.35 206.41 119.784 207.716 120.127C208.121 120.232 207.703 119.287 207.661 118.873C207.598 118.153 207.515 117.438 207.452 116.719C207.259 114.632 206.678 112.427 206.289 110.357C205.033 103.74 203.318 97.5872 200.527 91.4844" fill="#CEC7BB"/>
<path fill-rule="evenodd" clip-rule="evenodd" d="M242.911 134.105C245.681 133.194 248.573 130.5 251.037 128.957C253.619 127.342 256.569 126.556 259.138 125.058C259.243 124.996 259.147 125.301 259.113 125.422C258.988 125.92 258.343 126.598 258 126.97C256.937 128.116 255.774 129.149 254.77 130.358C253.602 131.771 252.56 133.29 251.272 134.607C249.514 136.41 247.246 138.455 245.865 140.572" fill="#CEC7BB"/>
<path fill-rule="evenodd" clip-rule="evenodd" d="M261.168 105.17C259.975 106.659 259.682 108.793 259.151 110.562C258.033 114.272 256.77 118.044 255.426 121.683C252.209 130.408 250.786 139.61 248.765 148.657C246.463 158.971 244.07 169.691 243.254 180.252C242.697 187.483 241.906 194.661 241.011 201.859C240.99 202.022 240.157 208.622 240.036 208.685C236.688 210.383 236.981 203.699 237.103 202.482C237.981 193.519 237.772 184.48 238.822 175.504C240.781 158.812 245.212 141.504 250.522 125.531C251.644 122.156 252.941 118.873 254.133 115.535C254.698 113.958 255.255 111.31 256.652 110.21" fill="#CEC7BB"/>
<path fill-rule="evenodd" clip-rule="evenodd" d="M211.122 108.675C211.892 111.294 211.49 114.974 211.49 117.676C211.49 122.461 211.762 127.405 212.231 132.165C213.344 143.504 215.453 154.788 216.357 166.135C216.666 170.008 218.357 174.902 217.733 178.75C217.449 180.511 214.93 182.916 214.018 184.3C211.147 188.65 208.138 193.238 204.9 197.291C204.715 197.517 200.908 203.937 199.795 201.783C199.087 200.412 199.464 198.471 199.368 196.986C199.092 192.603 199.104 188.378 199.343 183.995C199.945 173.116 199.485 161.802 201.083 151.024C202.443 141.83 204.029 132.784 205.82 123.666C206.707 119.148 208.414 114.05 208.486 109.432" fill="#CEC7BB"/>
<path fill-rule="evenodd" clip-rule="evenodd" d="M178.24 103.435C178.345 108.203 177.821 112.837 177.441 117.58C176.759 126.079 175.876 134.871 175.876 143.407C175.876 152.057 176.591 160.895 177.336 169.515C177.717 173.969 177.876 178.428 178.349 182.874C178.889 187.918 179.566 192.937 179.993 197.986C180.077 198.973 181.157 201.884 180.746 202.766C180.558 203.18 178.792 202.963 178.499 202.98C178.194 203.001 176.323 203.858 176.114 203.678C175.03 202.737 175.374 199.516 175.256 198.237C174.771 192.983 173.746 187.789 173.386 182.498C172.064 163.216 171.959 142.855 174.21 123.67C174.666 119.767 174.754 115.857 174.754 111.929C174.754 110.156 174.415 106.956 175.378 105.279" fill="#CEC7BB"/>
<path fill-rule="evenodd" clip-rule="evenodd" d="M230.906 201.114C231.362 194.033 236.597 149.133 240.376 135.912C244.158 122.687 255.816 101.126 255.816 101.126L261.474 104.288C261.474 104.288 249.41 135.967 248.096 142.195C246.778 148.422 237.79 203.097 237.79 203.097C237.79 203.097 230.45 208.196 230.906 201.114Z" fill="#52504A"/>
<path fill-rule="evenodd" clip-rule="evenodd" d="M261.013 104.033C260.691 104.815 260.377 105.606 260.013 106.329C258.172 109.972 256.803 113.674 255.422 117.505C252.581 125.389 249.409 133.164 246.196 140.902C245.777 141.906 241.84 140.459 241.187 140.367C240.584 140.279 239.944 140.254 239.316 140.241C239.68 138.572 240.032 137.113 240.375 135.912C244.158 122.687 255.816 101.126 255.816 101.126L261.013 104.033Z" fill="#6C6961"/>
<path fill-rule="evenodd" clip-rule="evenodd" d="M170.185 202.281C170.185 202.281 168.319 158.415 168.775 141.015C169.231 123.611 171.813 105.35 171.813 105.35L178.228 102.167C178.228 102.167 174.704 132.679 174.897 147.946C175.089 163.216 176.022 202.792 176.022 202.792L170.185 202.281Z" fill="#52504A"/>
<path fill-rule="evenodd" clip-rule="evenodd" d="M177.672 102.443C176.475 108.759 175.366 119.266 174.458 129.981C174.194 133.068 174.048 136.163 173.742 139.242C173.705 139.622 173.809 141.529 173.454 141.776C172.688 142.303 171.165 142.019 170.315 142.111C169.792 142.169 169.269 142.228 168.746 142.286C168.754 141.852 168.767 141.425 168.775 141.015C169.232 123.611 171.813 105.35 171.813 105.35L177.672 102.443Z" fill="#6C6961"/>
<path fill-rule="evenodd" clip-rule="evenodd" d="M184.927 200.173L183.245 199.19C183.245 199.19 160.887 200.445 159.644 200.738C158.402 201.031 158.104 201.424 158.104 201.424L158.364 216.247C158.364 216.247 167.637 215.632 169.495 215.511C171.352 215.389 185.509 214.837 185.509 214.837L184.927 200.173Z" fill="#5C5953"/>
<path fill-rule="evenodd" clip-rule="evenodd" d="M185.207 207.267L185.508 214.837C185.508 214.837 171.352 215.389 169.494 215.511C167.636 215.632 158.363 216.247 158.363 216.247L158.217 207.882C158.317 208.384 158.409 208.886 158.48 209.387C158.522 209.68 158.74 213.227 159.008 213.465C159.351 213.767 160.188 213.616 160.589 213.616C162.083 213.616 172.892 213.273 177.047 212.955C178.553 212.838 180.106 212.817 181.587 212.52C182.729 212.294 184.173 208.225 184.972 207.493C185.018 207.451 185.102 207.367 185.207 207.267Z" fill="#3F3D39"/>
<path fill-rule="evenodd" clip-rule="evenodd" d="M172.7 199.952C173.165 199.922 173.608 199.696 174.081 199.684C174.114 199.68 174.487 199.65 174.508 199.684C174.608 199.872 174.499 200.269 174.487 200.466C174.441 201.156 174.407 201.838 174.407 202.532C174.407 204.891 174.445 207.229 174.671 209.58C174.78 210.717 174.897 211.863 174.96 213.005C174.972 213.281 174.968 213.557 174.993 213.829C174.997 213.854 175.022 214.047 174.997 214.063C174.889 214.143 174.646 214.08 174.52 214.08C174.181 214.076 173.838 214.139 173.503 214.206C173.206 214.268 172.905 214.348 172.604 214.415C172.395 214.461 172.185 214.503 171.972 214.532C171.855 214.549 171.746 214.561 171.629 214.574C171.001 214.636 171.11 214.36 171.11 213.733C171.11 213.557 171.11 213.378 171.11 213.198C171.11 212.917 171.093 212.633 171.11 212.357C171.143 211.826 171.152 211.295 171.169 210.768C171.202 209.576 171.206 208.375 171.265 207.187C171.344 205.519 171.541 203.858 171.775 202.206C171.826 201.846 171.817 200.972 172.098 200.704" fill="#3F3D39"/>
<path fill-rule="evenodd" clip-rule="evenodd" d="M184.257 199.249C186.412 199.086 211.004 198.76 217.695 198.923C224.39 199.086 250.271 202.62 250.46 202.825C250.648 203.026 254.862 205.665 254.862 205.665L254.766 217.23L252.51 218.334C252.51 218.334 238.074 216.448 223.524 215.109C208.975 213.771 183.743 215.444 183.743 215.444L182.186 213.148C182.186 213.148 182.102 199.408 184.257 199.249Z" fill="#5C5953"/>
<path fill-rule="evenodd" clip-rule="evenodd" d="M182.537 204.791C182.596 206.301 182.788 207.806 183.157 209.291C183.295 209.843 183.454 211.654 183.893 212.043C184.22 212.332 185.048 212.311 185.454 212.374C187.119 212.629 188.718 212.863 190.408 212.951C195.4 213.202 200.38 213.127 205.38 213.26C216.791 213.57 228.194 214.172 239.605 214.448C244.564 214.565 249.434 215.364 254.318 216.13C254.473 216.155 254.623 216.18 254.774 216.201L254.765 217.23L252.51 218.334C252.51 218.334 238.074 216.448 223.524 215.109C208.975 213.771 183.743 215.444 183.743 215.444L182.186 213.148C182.186 213.148 182.161 208.668 182.537 204.791Z" fill="#3F3D39"/>
<path fill-rule="evenodd" clip-rule="evenodd" d="M229.905 200.152C229.792 200.052 229.557 200.077 229.419 200.056C229.302 200.039 229.085 199.964 228.967 200.018C228.859 200.073 228.926 200.453 228.926 200.533C228.947 201.123 228.951 201.721 228.955 202.315C228.959 202.566 228.955 202.817 228.955 203.072C228.955 203.983 229.076 204.891 229.08 205.807C229.101 207.777 229.043 209.751 229.043 211.721C229.043 212.495 229.009 213.265 229.001 214.034C228.997 214.222 228.997 214.415 228.984 214.599C228.98 214.649 228.938 214.816 228.972 214.867C228.988 214.892 229.168 214.85 229.193 214.85C229.436 214.846 229.683 214.862 229.926 214.862C230.248 214.862 230.57 214.862 230.892 214.862C230.938 214.862 231.181 214.896 231.21 214.854C231.311 214.716 231.202 214.243 231.202 214.08C231.202 213.888 231.202 213.695 231.202 213.503C231.202 213.148 231.185 212.792 231.185 212.436C231.185 209.626 231.022 206.807 230.784 204.009C230.712 203.18 230.587 202.365 230.478 201.541C230.419 201.114 230.373 200.629 230.147 200.248" fill="#3F3D39"/>
<path fill-rule="evenodd" clip-rule="evenodd" d="M183.918 200.328C183.604 200.888 183.625 201.57 183.462 202.177C183.295 202.812 183.031 203.511 182.977 204.168C182.872 205.355 183.177 206.547 183.274 207.727C183.341 208.513 183.475 209.308 183.613 210.086C183.659 210.341 183.688 210.605 183.755 210.855C183.78 210.968 183.801 211.307 183.839 211.198C183.935 210.935 183.851 210.508 183.851 210.228C183.851 209.475 183.801 208.701 183.851 207.953C183.977 206.012 184.157 204.096 184.412 202.177C184.496 201.537 184.617 200.884 184.621 200.24C184.621 199.964 184.701 199.676 184.337 199.646" fill="#3F3D39"/>
<path fill-rule="evenodd" clip-rule="evenodd" d="M186.579 207.418C186.504 208.304 186.513 209.312 186.931 210.12C188.04 212.265 191.233 212.826 193.279 211.822C193.693 211.617 194.806 211.182 195.053 210.751C195.091 210.684 194.911 210.81 194.835 210.835C194.714 210.868 194.588 210.898 194.467 210.923C194.107 210.994 193.747 211.061 193.388 211.123C192.425 211.299 190.944 211.383 190.073 210.889C189.94 210.81 189.312 210.559 189.266 210.387C189.257 210.354 189.902 210.295 189.944 210.287C190.379 210.22 190.923 210.086 191.287 209.827C192.053 209.283 192.291 208.037 192.433 207.183C192.588 206.276 192.789 204.285 191.89 203.611C191.588 203.386 191.069 203.365 190.714 203.348C190.429 203.331 190.132 203.323 189.856 203.386C189.458 203.482 189.057 203.599 188.709 203.825" fill="#3F3D39"/>
<path d="M189.183 211.232C190.697 211.232 191.925 209.369 191.925 207.07C191.925 204.772 190.697 202.909 189.183 202.909C187.668 202.909 186.44 204.772 186.44 207.07C186.44 209.369 187.668 211.232 189.183 211.232Z" fill="#EDE8E0"/>
<path fill-rule="evenodd" clip-rule="evenodd" d="M228.567 199.901L229.337 199.123C229.337 199.123 234.723 199.479 235.158 199.717C235.158 199.717 234.76 223.357 234.677 224.507L229.852 224.557C229.852 224.557 229.944 204.138 229.931 202.829C229.919 201.52 229.693 200.064 229.693 200.064L228.567 199.901Z" fill="#67645D"/>
<path fill-rule="evenodd" clip-rule="evenodd" d="M174.64 199.613L173.903 198.909C173.903 198.909 168.745 199.229 168.333 199.448C168.333 199.448 168.317 204.713 168.417 210.186C168.521 215.749 168.798 220.856 168.838 221.379L173.458 221.424C173.27 221.488 173.034 203.814 173.322 202.538C173.583 201.386 173.559 199.76 173.559 199.76L174.64 199.613Z" fill="#67645D"/>
<path fill-rule="evenodd" clip-rule="evenodd" d="M204.256 93.9996C204.059 94.2702 203.749 94.4128 203.519 94.6554C203.226 94.9628 202.975 95.4041 202.841 95.8044C202.544 96.7078 202.883 97.4109 203.293 98.2035C203.971 99.5072 204.875 100.578 205.645 101.808C206.051 102.452 206.109 103.004 206.239 103.748C206.268 103.916 206.339 104.401 206.595 104.401C206.72 104.401 206.883 104.259 207.005 104.213C207.628 103.983 208.273 103.414 208.729 102.941C209.687 101.954 210.516 100.867 211.39 99.7958C212.001 99.0471 212.666 98.3365 213.173 97.5067C213.545 96.8939 213.876 96.2561 214.244 95.6425C214.336 95.4886 214.654 95.1527 214.52 94.9382C214.424 94.7817 214.081 94.6905 213.922 94.6533C213.369 94.5224 212.83 94.5027 212.273 94.4132C210.817 94.1794 209.302 94.1606 207.858 93.877C207.068 93.7218 206.247 93.4195 205.436 93.4006" fill="#DE9254"/>
<path fill-rule="evenodd" clip-rule="evenodd" d="M207.058 104.242L206.355 101.712L201.656 93.4714L195.417 93.6835L194.007 108.148L200.388 96.5849L200.844 98.9176L205.543 101.937L206.163 105.338L207.058 104.242Z" fill="#EDE8E0"/>
<path fill-rule="evenodd" clip-rule="evenodd" d="M205.933 105.438L214.984 92.9745L240.647 79.2356L242.869 88.4218L219.733 108.659L219.85 94.7508L215.749 96.1491L215.389 99.0388L205.933 105.438Z" fill="#EDE8E0"/>
<path fill-rule="evenodd" clip-rule="evenodd" d="M201.418 109.186C201.418 109.186 190.028 137.957 185.818 154.403C181.613 170.845 179.475 179.716 179.014 181.218C178.554 182.719 192.254 207.442 192.254 207.442C192.254 207.442 210.64 183.196 211.766 181.31C212.896 179.428 214.31 177.156 214.31 177.156C214.31 177.156 209.82 111.984 209.946 109.499L201.418 109.186Z" fill="#52504A"/>
<path fill-rule="evenodd" clip-rule="evenodd" d="M204.447 109.294L202.548 110.093C202.343 110.361 204.74 114.627 205.318 114.769C206.079 114.958 207.477 111.394 207.594 113.912C207.607 114.171 207.603 114.431 207.603 114.69C207.607 115.062 207.607 115.434 207.607 115.807C207.607 116.317 207.657 116.861 207.607 117.367C206.263 130.705 208.59 144.156 207.741 157.49C207.519 160.957 207.494 164.492 207.494 167.967C207.494 169.122 207.858 171.573 207.339 172.656C206.929 173.518 205.184 174.438 204.456 174.994C201.297 177.424 198.422 180.206 195.078 182.443C194.405 182.895 192.371 185.476 191.547 185.271C190.07 184.903 186.228 181.239 184.931 180.239C184.504 179.909 183.441 178.7 182.835 178.746C182.692 178.759 183.061 179.792 183.115 179.904C183.316 180.327 185.253 183.347 184.404 183.397C182.78 183.493 180.793 181.732 179.24 180.411C179.144 180.775 179.069 181.046 179.014 181.218C178.554 182.719 192.254 207.443 192.254 207.443C192.254 207.443 210.64 183.196 211.766 181.31C212.896 179.428 214.31 177.157 214.31 177.157C214.31 177.157 209.82 111.984 209.946 109.499L204.447 109.294Z" fill="#42413C"/>
<path fill-rule="evenodd" clip-rule="evenodd" d="M200.818 109.465C200.818 109.465 203.082 111.381 204.492 111.498C206.099 111.628 210.464 110.256 210.464 110.256L209.819 104.371L204.086 103.108L200.818 109.465Z" fill="#6C6961"/>
<path fill-rule="evenodd" clip-rule="evenodd" d="M200.911 109.282C201.614 109.671 202.414 110.018 203.133 110.319C203.167 110.332 203.857 110.662 203.891 110.625C204.092 110.403 204.15 109.985 204.288 109.721C204.882 108.571 205.351 107.362 205.937 106.208C206.142 105.798 206.343 105.384 206.573 104.986C206.606 104.924 206.703 104.644 206.77 104.618C206.841 104.589 206.581 105.442 206.56 105.509C206.372 106.095 206.259 106.689 206.088 107.279C206.058 107.371 205.916 107.714 205.983 107.822C206.004 107.856 206.276 107.818 206.314 107.818C206.845 107.818 206.853 107.693 206.916 107.157C207 106.459 207.222 105.802 207.23 105.087C207.234 104.848 207.155 104.401 207.422 104.301C207.602 104.238 207.711 105.292 207.724 105.463C207.724 105.534 207.711 105.769 207.782 105.81C207.904 105.882 208.184 105.794 208.318 105.777C208.833 105.714 209.356 105.714 209.87 105.652C209.891 105.652 209.921 105.643 209.954 105.639L210.46 110.257C210.46 110.257 206.096 111.628 204.489 111.495C203.083 111.382 200.819 109.466 200.819 109.466L200.911 109.282Z" fill="#42413C"/>
<path fill-rule="evenodd" clip-rule="evenodd" d="M203.083 100.478L200.932 98.9467L200.439 96.6919L196.514 103.744L201.338 108.541L204.079 103.125L203.083 100.478Z" fill="#52504A"/>
<path fill-rule="evenodd" clip-rule="evenodd" d="M197.208 104.434C198.112 103.606 199.012 102.761 199.882 101.9C200.008 101.77 201.025 100.72 201.209 100.825C201.535 101.005 201.803 101.741 201.958 102.05C202.41 102.933 202.849 103.836 203.259 104.748L204.079 103.125L203.083 100.478L200.932 98.9467L200.439 96.6919L196.514 103.744L197.208 104.434Z" fill="#42413C"/>
<path fill-rule="evenodd" clip-rule="evenodd" d="M209.753 104.355L213.473 100.327L215.343 99.1225L215.603 98.1584L218.377 95.2678L219.787 94.7939L219.75 106.191L210.418 109.244L209.753 104.355Z" fill="#52504A"/>
<path fill-rule="evenodd" clip-rule="evenodd" d="M219.75 106.191L216.766 107.166C216.582 106.283 216.431 105.396 216.268 104.493C216.201 104.121 216.256 103.062 215.933 102.799C215.854 102.732 215.456 102.912 215.377 102.941C214.724 103.175 214.101 103.543 213.481 103.857C212.293 104.464 211.105 105.091 209.945 105.764L209.753 104.355L213.473 100.327L215.343 99.1225L215.603 98.1584L218.377 95.2678L219.787 94.7939L219.75 106.191Z" fill="#42413C"/>
<path fill-rule="evenodd" clip-rule="evenodd" d="M179.016 23.6109C178.506 23.9912 178.049 24.4747 177.622 24.9922C176.253 26.4477 175.025 28.0512 174.025 29.69C173.772 30.1043 173.498 30.5911 173.27 31.1095C171.926 33.5519 171.474 35.6821 172.274 38.6649C172.984 41.2939 175.593 43.2848 178.439 44.5761C179.58 45.0923 183.094 45.5987 183.198 43.8902C183.202 43.8562 180.966 44.6055 178.431 43.1836C176.116 41.8853 173.494 39.0812 173.357 36.2643C173.341 35.9877 173.357 35.7153 173.394 35.447C174.863 38.4165 178.336 40.5371 181.551 40.8257C182.343 40.8971 183.14 40.9464 183.936 40.9792C184.081 40.985 184.716 41.0779 184.828 40.9804C185.056 40.783 184.965 40.1051 185.011 39.8434C185.197 38.8001 185.509 37.7766 185.687 36.7308C186.392 32.6255 186.882 28.2412 186.894 24.0729C186.902 22.3134 186.732 19.1096 184.193 19.9419L181.157 21.8336C180.422 22.3764 179.705 22.9731 179.016 23.6109Z" fill="#5E3C2A"/>
<path fill-rule="evenodd" clip-rule="evenodd" d="M184.596 20.5863C183.82 22.3586 183.509 24.2872 182.857 26.0923C181.671 29.3873 179.733 33.5644 180.347 37.2031C180.795 39.865 182.351 42.9846 181.874 45.704C181.003 50.6577 179.974 55.7727 179.845 60.8173C179.775 63.5425 180.177 66.2213 180.202 68.8819C180.206 69.7104 179.862 70.4564 179.841 71.2799C179.767 74.5144 180.48 78.679 182.169 81.3246C188.661 91.5111 201.464 91.7645 212.113 90.7668C218.888 90.1323 225.551 87.4937 230.463 82.778C233.591 79.7754 233.189 75.8115 233.973 71.9322C235.026 66.7127 236.412 61.5384 237.744 56.3819C239.806 48.3903 240.822 40.2012 241.971 32.0429C242.262 29.9559 242.739 27.9273 243.129 25.8667C243.27 25.1295 243.838 23.9153 243.622 23.1767C242.602 19.6976 238.856 16.2127 236.076 14.2504C230.745 10.4844 224.41 8.34256 217.785 8.57644C214.715 8.68467 211.645 9.28387 208.624 9.78729C204.385 10.4926 200.091 11.2776 196.042 12.7443C192.856 13.8988 190.126 15.6956 187.164 17.2983" fill="#F6BC8B"/>
<path fill-rule="evenodd" clip-rule="evenodd" d="M182.301 27.5878C184.545 27.7803 186.989 27.225 188.939 26.625C194.668 24.8601 199.762 21.9794 205.151 19.403C211.233 16.4957 218.012 13.5432 224.924 14.0379C227.094 14.193 229.288 14.2693 231.396 14.8557C232.006 15.0253 232.632 15.2376 233.196 15.5312C233.25 15.5585 234.204 16.1581 234.221 16.1453C234.885 15.6435 234.752 14.3025 234.416 13.1509C229.45 10.0724 223.733 8.36598 217.784 8.57623C214.714 8.68446 211.644 9.28365 208.624 9.78707C204.384 10.4924 200.09 11.2774 196.041 12.7441C192.855 13.8986 190.125 15.6954 187.163 17.2981L184.595 20.586C183.819 22.3584 183.508 24.287 182.857 26.0921C182.687 26.5736 182.496 27.0736 182.301 27.5878Z" fill="url(#paint0_linear_250_6039)"/>
<path fill-rule="evenodd" clip-rule="evenodd" d="M233.582 12.6506C233.478 12.8563 233.37 13.0574 233.25 13.2511C230.574 17.5227 228.031 21.9493 225.243 26.1429C223.837 28.2569 221.248 32.1026 221.729 34.8901C221.862 35.685 222.912 36.6014 223.252 37.3516C224.53 40.1647 226.77 43.1703 226.314 46.4073C225.944 49.0616 223.671 51.5505 221.613 53.018C220.393 53.8851 218.597 54.3039 218.191 55.9494C217.523 58.6618 218.448 60.8695 218.821 63.4915C218.991 64.7052 219.365 66.1827 218.663 67.3198C216.606 70.6534 211.992 71.2497 208.375 70.8134C207.475 70.7048 206.45 70.3316 205.55 70.366C205.297 70.3759 205.911 70.7255 206.118 70.8694C206.504 71.1336 206.964 71.2733 207.396 71.4371C208.728 71.9434 210.043 72.1507 211.217 73.029C212.669 74.1171 209.889 76.3041 209.246 76.8105C206.296 79.1347 202.368 78.3647 198.912 78.3642C197.999 78.3642 194.879 77.8161 195.954 79.6726C197.924 83.0787 202.388 84.2949 205.935 85.1956C209.69 86.1489 214.594 87.0305 218.448 86.2431C224.173 85.0741 228.546 81.031 232.225 76.7959C232.678 76.2776 233.097 75.7306 233.495 75.1596C233.628 74.0922 233.756 73.0091 233.972 71.9322C235.026 66.7127 236.411 61.5384 237.743 56.3819C239.805 48.3903 240.821 40.2012 241.97 32.0429C242.261 29.9559 242.738 27.9273 243.128 25.8667C243.269 25.1295 243.837 23.9153 243.622 23.1767C242.601 19.6976 238.855 16.2127 236.075 14.2504C235.266 13.6786 234.432 13.1445 233.582 12.6506Z" fill="url(#paint1_linear_250_6039)"/>
<path fill-rule="evenodd" clip-rule="evenodd" d="M200.465 37.9017C200.137 38.6477 200.747 39.5986 200.337 40.2927C199.98 40.8936 198.602 40.7012 198.98 41.6317C199.125 41.9962 200.191 42.1895 200.527 42.2832C201.112 42.4474 202.369 43.2726 203 42.877C203.253 42.7186 203.34 42.0912 203.485 41.8424C203.767 41.3555 204.34 40.8762 204.805 40.5672C205.17 40.3255 206.692 39.5131 206.804 39.0213C206.875 38.6996 206.045 38.7452 205.904 38.7622C204.805 38.8907 203.726 39.5073 202.585 39.261C201.652 39.0591 201.523 38.5009 201.15 37.7201C201.083 37.5795 200.959 36.8484 200.814 36.807C200.735 36.7846 200.652 37.0583 200.648 37.0665" fill="#DD9051"/>
<path fill-rule="evenodd" clip-rule="evenodd" d="M191.576 72.3404C191.937 73.0627 193.032 73.0648 193.721 73.1424C196.168 73.4177 198.62 73.0171 201.022 72.5908C201.462 72.5125 203.939 71.5052 203.831 72.7181C203.773 73.4322 202.844 74.1409 202.379 74.6062C200.259 76.731 196.239 77.0851 193.522 75.8104C192.09 75.1399 190.244 73.6499 191.281 72.082" fill="#DD9051"/>
<path fill-rule="evenodd" clip-rule="evenodd" d="M186.937 66.5008C186.937 66.5008 208.13 61.607 212.7 61.8503C212.7 61.8503 213.115 74.9887 197.326 75.12C187.008 75.2067 186.937 66.5008 186.937 66.5008Z" fill="white"/>
<path fill-rule="evenodd" clip-rule="evenodd" d="M200.452 45.3127C199.639 48.3486 197.096 57.131 195.984 58.1146C195.582 58.4708 194.445 58.2759 193.968 58.2116C192.951 58.0752 191.076 58.5844 190.043 58.7266C189.027 58.8664 189.16 61.8388 189.491 62.0266C191.437 63.1351 194.15 64.0299 196.357 64.4326C197.038 64.557 197.996 64.9816 198.701 64.7415C199.813 64.3633 200.61 63.1844 201.423 62.4048C202.074 61.7774 202.912 60.9137 203.199 60.0196C203.804 58.1254 202.249 57.6377 201.697 56.0051C201.087 54.2029 201.398 51.8642 201.435 49.9994C201.477 48.3009 201.747 46.5953 201.776 44.9175C201.78 44.4108 201.253 43.3969 200.95 44.2566" fill="url(#paint2_linear_250_6039)"/>
<path fill-rule="evenodd" clip-rule="evenodd" d="M196.266 64.7753C196.266 64.7753 190.674 70.553 189.065 70.9966C188.157 71.2467 186.632 71.5752 185.699 71.4405C185.447 71.4042 184.515 70.7246 184.407 70.7695C183.193 71.2759 181.531 72.4801 180.077 71.8537C179.433 71.5763 179.541 70.9544 179.2 70.7307C178.789 70.4573 177.861 70.8632 177.332 70.5852C175.961 69.8643 175.084 67.1264 176.586 66.0027C176.968 65.7161 177.01 66.9221 177.42 67.1693C177.952 67.4916 178.657 67.3685 179.24 67.2716C182.035 66.8062 184.553 64.9006 186.763 63.2569C188.078 62.2793 189.605 60.6574 191.449 60.8487C192.909 61.0005 196.01 62.4298 196.01 62.4298C196.583 61.913 197.51 61.1175 198.246 60.7151C204.108 57.5075 208.992 59.285 214.836 61.5482C216.222 62.0845 219.347 62.1364 220.085 60.5481C220.092 60.5304 220.722 61.9554 220.718 62.2402C220.698 63.3745 220.531 64.6318 219.385 65.2227C219.052 65.3942 218.082 65.4834 217.88 65.7298C217.487 66.208 218.169 66.8478 217.433 67.3617C215.777 68.5173 214.433 67.9717 212.715 67.9633C212.008 67.9601 211.134 69.0371 210.127 68.9898C208.666 68.9216 204.307 68.1046 200.929 66.9668C198.243 66.0614 196.266 64.7753 196.266 64.7753Z" fill="#7B4E38"/>
<path fill-rule="evenodd" clip-rule="evenodd" d="M176.134 69.1929C176.493 69.4211 176.957 69.5588 177.228 69.5762C179.02 69.6907 180.462 68.6137 181.905 67.6899C182.431 67.3532 182.958 67.0067 183.471 66.6455C183.645 66.5223 183.808 66.3837 183.987 66.2664C184.083 66.204 184.326 66.0168 184.296 66.1267C184.242 66.343 183.669 66.6194 183.505 66.7473C183.265 66.9335 183.042 67.144 182.782 67.3036C182.583 67.4271 182.386 67.55 182.199 67.6908C181.709 68.0575 179.897 69.0408 180.72 69.9162C181.345 70.5788 182.826 70.1285 183.524 69.9012C185.441 69.2768 186.984 67.7185 188.344 66.2526C188.901 65.6514 189.385 64.7963 190.079 64.3355C190.207 64.251 189.934 64.6072 189.836 64.7237C189.643 64.9514 189.423 65.1636 189.234 65.3972C188.671 66.1043 187.923 67.3778 189.184 67.7702C191.227 68.4087 193.459 66.374 194.822 65.1306C195.238 64.7516 195.812 63.7651 196.417 63.7045C196.65 63.6811 196.916 64.0729 197.09 64.1908C197.605 64.5417 198.262 64.6218 198.831 64.8509C200.339 65.457 201.928 66.1258 203.507 66.5409C204.154 66.7104 204.854 66.8051 205.475 67.0506C206.311 67.3795 207.378 67.7094 208.287 67.5975C208.532 67.5674 208.881 67.6253 209.081 67.4428C209.351 67.1951 208.722 66.666 208.581 66.5575L208.57 66.5501C207.897 66.3107 207.268 66.0092 206.765 65.6921C206.609 65.5938 206.457 65.4929 206.31 65.3884C206.135 65.3031 205.965 65.2135 205.801 65.1167C205.605 64.9996 205.396 64.795 205.262 64.6103C205.202 64.5249 204.963 64.4091 205.06 64.3685C205.136 64.3363 205.385 64.6602 205.439 64.7074C205.722 64.9515 206.009 65.1769 206.31 65.3884C207.072 65.7617 207.912 66.0563 208.57 66.5501C209.665 66.9409 210.878 67.1663 211.845 67.0241C212.385 66.945 213.275 66.8489 213.547 66.2796C214.015 65.2994 212.78 64.7492 212.185 64.2835C212.111 64.2256 211.376 63.7204 211.484 63.5892C211.794 63.2103 213.04 64.0009 213.371 64.1227C214.716 64.6208 217.073 65.2535 218.467 64.6142C219.606 64.0909 220.087 62.4555 220.041 61.3202C220.036 61.1599 220.002 60.9632 219.968 60.7574C220.011 60.691 220.05 60.6211 220.086 60.5471C220.092 60.5298 220.721 61.9551 220.718 62.2397C220.697 63.3741 220.531 64.6318 219.386 65.2227C219.053 65.3939 218.081 65.4836 217.879 65.7299C217.484 66.2084 218.168 66.848 217.432 67.3619C215.778 68.5174 214.432 67.9721 212.712 67.9639C212.007 67.9602 211.136 69.0373 210.127 68.99C208.667 68.9217 204.307 68.1045 200.931 66.9662C198.245 66.0604 196.268 64.7742 196.268 64.7742C196.268 64.7742 190.675 70.5526 189.065 70.9967C188.158 71.2464 186.63 71.5753 185.699 71.4405C185.447 71.404 184.514 70.7247 184.408 70.7688C183.191 71.2759 181.532 72.4798 180.076 71.8535C179.432 71.5762 179.54 70.9542 179.2 70.7303C178.788 70.457 177.861 70.8625 177.332 70.5847C176.84 70.3253 176.412 69.8049 176.134 69.1929Z" fill="#5E3C2A"/>
<path fill-rule="evenodd" clip-rule="evenodd" d="M176.282 21.2961C173.61 18.4161 174.469 13.4234 176.431 9.88087C178.149 6.79112 183.782 3.13327 185.085 2.65224C185.247 2.59336 185.093 2.98979 185.102 3.15857C185.114 3.44013 185.197 3.70136 185.355 3.93565C185.836 4.64972 186.886 5.28669 187.649 5.64206C190.022 6.74759 192.885 6.54728 195.37 5.93439C200.933 4.56347 206.343 2.13347 211.981 1.13991C217.594 0.150908 223.145 -0.372411 228.837 0.307242C235.445 1.09637 242.27 5.37334 242.73 12.6339C242.809 13.9339 242.581 15.3795 242.058 16.5721C241.797 17.1717 241.191 17.9728 241.063 18.5973V19.1136C239.171 19.1116 239.275 18.2411 238.001 17.0659C236.81 15.9712 235.35 14.976 233.844 14.3842C228.148 12.1475 222.004 11.3517 215.939 12.4726C208.961 13.7618 202.223 15.7883 195.755 18.7259C192.291 20.2987 184.828 22.6587 182.501 23.3873C179.945 24.1855 175.717 24.4571 173.415 22.8146C171.627 21.5403 170.221 18.9813 170.743 16.6894C170.913 15.9509 171.266 15.3297 171.635 14.6774C171.656 14.6426 171.959 14.1383 171.98 14.1454C172.029 14.1607 171.863 15.2932 171.855 15.3907C171.785 16.2482 171.897 17.0228 172.245 17.819C173.029 19.5901 174.539 20.7516 176.282 21.2961Z" fill="#7B4E38"/>
<path fill-rule="evenodd" clip-rule="evenodd" d="M234.885 2.04932C239.084 4.05552 242.411 7.63871 242.73 12.6339C242.809 13.9339 242.581 15.3795 242.058 16.5721C241.797 17.1717 241.191 17.9728 241.063 18.5973V18.7159C240.839 18.8379 240.606 18.9544 240.374 19.063C239.175 18.8615 239.096 18.0765 238.001 17.0659C236.81 15.9712 235.35 14.976 233.844 14.3842C228.148 12.1475 222.004 11.3517 215.939 12.4726C208.961 13.7618 202.223 15.7883 195.755 18.7259C192.291 20.2987 184.828 22.6587 182.501 23.3873C179.945 24.1855 175.717 24.4571 173.415 22.8146C171.627 21.5403 170.221 18.9813 170.743 16.6894C170.913 15.9509 171.266 15.3297 171.635 14.6774C171.656 14.6426 171.959 14.1383 171.98 14.1454C172.029 14.1607 171.863 15.2932 171.855 15.3907C171.785 16.2482 171.897 17.0228 172.245 17.819C173.029 19.5901 174.539 20.7516 176.282 21.2961C174.473 19.3479 174.282 16.4327 174.954 13.6532C175.348 16.0674 177.02 17.88 179.559 18.4846C181.252 18.8876 183.156 18.3983 184.799 17.9994C187.711 17.294 190.52 16.3187 193.345 15.3305C198.971 13.3641 204.795 12.5991 210.661 11.7635C213.296 11.3886 215.901 10.9101 218.494 10.3192C218.772 10.2549 220.622 10.2698 220.685 9.85268C220.809 9.01586 218.407 8.86863 217.992 8.84168C215.557 8.68327 212.852 8.69365 210.454 9.1556C210.184 9.20702 208.052 9.71499 207.903 9.39528C207.886 9.36376 208.873 9.02497 208.931 9.00465C210.342 8.50953 211.773 8.14918 213.246 7.87674C219.091 6.7961 225.281 7.93397 231.06 6.57425C231.878 6.38226 232.72 6.14463 233.5 5.84814C233.948 5.67978 234.367 5.5583 234.782 5.32028C236.545 4.3122 235.952 3.07439 234.885 2.04932Z" fill="#5E3C2A"/>
<path fill-rule="evenodd" clip-rule="evenodd" d="M202.455 10.1474C197.195 11.826 191.333 13.4553 185.803 12.1092C184.571 11.8102 182.38 11.4677 181.654 10.2473C181.38 9.78622 181.447 9.0676 181.604 8.57621C181.662 8.39209 181.725 8.20589 181.812 8.03339C181.857 7.94921 182.023 7.74186 181.94 7.77877C181.625 7.91313 181.268 8.37964 181.028 8.6272C180.073 9.61123 178.605 11.787 179.621 13.1501C180.401 14.2033 181.982 14.2917 183.172 14.3991C184.417 14.511 185.587 14.3597 186.819 14.2262C189.495 13.9363 192.262 13.4503 194.838 12.6487C196.133 12.2457 197.394 11.7655 198.676 11.3214C199.145 11.1576 201.957 10.1702 202.455 10.1474Z" fill="#5E3C2A"/>
<path fill-rule="evenodd" clip-rule="evenodd" d="M184.832 6.69073C184.865 7.13692 184.878 7.54785 185.106 7.9505C185.413 8.49746 186.184 8.86985 186.732 9.0859C188.068 9.6171 189.553 9.92767 190.997 9.94509C193.042 9.97039 195.046 9.65068 197.062 9.31728C200.464 8.75622 203.845 7.97913 207.081 6.77615C208.226 6.35028 209.404 5.99406 210.537 5.52838C210.794 5.42139 211.574 5.22235 211.761 4.98516C211.761 4.98267 211.122 5.07599 211.08 5.08594C210.591 5.21117 210.122 5.42597 209.628 5.5483C208.23 5.89538 206.828 6.2574 205.451 6.67871C202.933 7.44835 200.319 7.71995 197.73 8.14002C195.158 8.5576 192.495 8.82921 189.893 8.58497C188.62 8.46596 187.135 8.32538 185.965 7.77179C185.591 7.59638 184.861 7.25925 185.16 6.77491" fill="#5E3C2A"/>
<path fill-rule="evenodd" clip-rule="evenodd" d="M214.615 4.78411C218.359 3.62882 221.863 1.8482 225.818 2.40013C227.044 2.57181 228.55 2.83928 229.687 3.42895C230.062 3.62509 230.445 3.80173 230.817 4.0157C230.945 4.08952 231.053 4.19443 231.181 4.26617C231.235 4.29727 231.392 4.34207 231.339 4.37358C231.081 4.52328 230.316 4.31388 230.041 4.27822C228.872 4.12645 227.649 4.14758 226.476 4.13846C222.489 4.1086 218.599 3.86312 214.708 5.04536" fill="#5E3C2A"/>
<path fill-rule="evenodd" clip-rule="evenodd" d="M235.844 55.3136C234.828 59.4048 232.741 68.9908 229.646 72.0578C226.754 74.9207 223.668 78.4964 219.938 79.8926C217.885 80.6619 215.458 80.5507 213.309 80.768C210.064 81.096 205.887 80.5354 202.92 79.0965C202.199 78.7477 201.406 78.0838 200.842 77.5261C200.568 77.2557 200.137 76.3716 199.784 76.2862C199.435 76.202 198.718 76.5396 198.349 76.5769C197.332 76.6793 196.088 76.7262 195.071 76.5972C194.217 76.489 192.586 75.7907 191.777 75.9682C191.752 75.9731 193.192 76.8464 193.254 76.9095C193.308 76.9609 192.74 77.0476 192.702 77.0488C192.387 77.0596 192.088 77.1794 191.785 77.2599C190.752 77.5336 189.711 77.5978 188.653 77.7849C186.479 78.1701 182.746 77.8342 180.999 76.3036C180.472 75.8429 180.568 75.0297 180.169 74.5255C180.053 74.382 180.115 74.8888 180.115 75.0712C180.107 75.3864 180.095 75.7538 180.036 76.0631C179.837 77.1135 179.149 78.1344 178.452 78.9215C175.776 81.9449 171.826 84.5312 174.759 88.6763C175.697 90.0008 177.871 90.9081 179.427 91.0677C180.066 91.1337 180.957 90.9981 181.563 91.212C181.704 91.2626 181.368 91.9792 181.318 92.0982C181.161 92.5033 181.024 93.4397 181.206 93.8465C182.015 95.6358 183.384 96.5124 185.235 97.1332C188.807 98.3283 193.3 98.15 196.756 96.6335C198.096 96.0476 199.398 95.3999 200.73 94.8139C201.041 94.6771 201.684 93.9701 202.037 93.9924C202.136 93.9987 202.232 94.7397 202.273 94.8376C202.456 95.2377 202.995 95.635 203.348 95.8792C204.729 96.8433 206.758 97.2124 208.426 97.0428C211.562 96.7243 214.802 94.9835 217.229 93.0847C218.212 92.3168 219.536 91.1955 220.349 90.5502C220.432 90.4835 221.286 95.336 226.758 92.6091C229.575 91.2067 231.139 89.2635 232.757 86.5606C233.363 85.5472 233.741 82.6984 233.741 82.6984C233.741 82.6984 236.587 84.0771 237.586 84.2011C239.86 84.4839 242.917 82.2882 243.992 80.3903C246.261 76.3849 243.822 71.9234 242.229 68.2656C240.391 64.0437 239.632 61.5968 240.843 57.0814C242.258 51.8162 246.27 52.2263 249.613 49.2705C250.879 48.1505 252.364 45.1918 252.887 43.6355C254.289 39.4672 254.592 35.1857 254.982 30.8233C255.172 28.6777 255.305 26.4041 254.525 24.3593C254.467 24.1457 254.405 23.9309 254.33 23.7153C253.907 22.4904 252.401 21.1941 251.484 20.3527C250.534 19.4798 249.323 18.7363 248.24 18.0351C246.361 16.8189 244.477 16.1201 242.266 15.7647C241.507 15.6432 240.432 15.4566 239.773 15.9945C236.014 19.0473 233.492 24.4621 232.604 29.0406C232.284 30.6926 232.401 32.4339 232.571 34.1469C232.691 35.3221 233.044 36.7146 233.741 37.6824C234.126 38.2153 235.429 39.8333 235.429 39.8333C235.429 39.8333 234.686 41.451 234.533 41.932C234.056 43.4373 234.052 45.2469 234.28 46.7995C234.533 48.5332 235.346 49.963 235.69 51.6147C235.944 52.8235 236.139 54.1276 235.844 55.3136Z" fill="#7B4E38"/>
<path fill-rule="evenodd" clip-rule="evenodd" d="M236.479 65.4459C238.146 59.8789 237.47 53.2611 236.935 47.7247C236.852 46.8523 238.847 46.7942 239.304 46.1768C240.225 44.934 240.117 42.9746 240.075 41.4967C240.009 39.1153 238.881 36.7255 237.893 34.6127C237.673 34.1433 236.495 32.6907 236.711 32.1495C236.715 32.1441 238.184 32.7052 238.296 32.7421C239.196 33.0295 240.233 33.1041 241.154 32.8217C242.365 32.4514 242.59 31.3616 242.544 30.2279C242.531 29.909 242.49 29.5524 242.386 29.2526C242.378 29.2373 242.15 28.568 242.208 28.5787C244.353 28.9735 246.709 32.6057 249.223 30.7815C249.958 30.2478 247.854 27.863 247.584 27.4944C247.377 27.2078 247.132 26.9964 246.892 26.7459C246.717 26.6435 246.572 26.5311 246.551 26.4154C246.522 26.2703 246.767 26.6153 246.871 26.7222L246.892 26.7459C247.136 26.889 247.443 27.0121 247.551 27.0955C249.31 28.4602 251.708 28.4846 252.7 26.0841C253.181 24.9176 253.223 23.1444 252.853 21.9435C252.803 21.7756 252.729 21.6043 252.642 21.4302C253.355 22.131 254.06 22.9375 254.33 23.7154C254.405 23.9311 254.467 24.1459 254.525 24.3594C255.305 26.4042 255.172 28.6779 254.981 30.8234C254.592 35.1858 254.289 39.4673 252.886 43.6356C252.364 45.1919 250.879 48.1506 249.613 49.2707C246.269 52.2265 242.258 51.8164 240.843 57.0815C239.631 61.5969 240.391 64.0439 242.229 68.2657C243.822 71.9235 246.261 76.385 243.992 80.3904C242.917 82.2884 239.86 84.4841 237.586 84.2013C236.586 84.0773 233.74 82.6985 233.74 82.6985C233.74 82.6985 233.363 85.5473 232.757 86.5608C231.139 89.2636 229.575 91.2068 226.758 92.6092C221.286 95.3361 220.432 90.4836 220.349 90.5504C219.536 91.1956 218.212 92.3169 217.229 93.0849C214.802 94.9837 211.562 96.7245 208.425 97.0429C206.758 97.2125 204.729 96.8435 203.348 95.8793C202.995 95.6351 202.456 95.2379 202.273 94.8377C202.232 94.7398 202.136 93.9988 202.037 93.9926C201.684 93.9702 201.041 94.6772 200.73 94.8141C199.398 95.4 198.095 96.0477 196.755 96.6337C193.3 98.1501 188.807 98.3284 185.235 97.1333C183.384 96.5126 182.015 95.6359 181.206 93.8466C181.024 93.4398 181.161 92.5035 181.318 92.0983C181.368 91.9793 181.704 91.2628 181.563 91.2122C180.957 90.9982 180.065 91.1338 179.427 91.0679C177.871 90.9082 175.697 90.0009 174.759 88.6764C173.029 86.2311 173.697 84.3286 175.079 82.5587C175.079 83.087 175.265 83.5809 175.796 83.9475C176.713 84.5828 178.169 84.7014 179.244 84.7055C181.679 84.7155 183.841 84.4447 186.156 83.6215C187.101 83.2844 188.18 82.5422 189.209 82.4924C189.3 82.4882 189.192 83.0364 189.184 83.0875C189.126 83.3889 189.284 83.6373 189.445 83.8828C189.952 84.6537 190.777 84.99 191.665 85.1052C193.59 85.3549 195.93 85.0733 197.739 84.4103C199.054 83.928 200.286 82.9353 201.634 82.6118C201.696 82.5977 201.485 83.4262 201.468 83.505C201.348 84.0681 201.535 84.6989 201.821 85.1782C202.717 86.6839 204.472 87.0115 206.077 87.1484C214.557 87.8728 222.336 82.2245 228.347 76.9863C230.89 74.7682 232.67 73.4371 234.549 70.6323C235.23 69.6196 236.69 66.9806 236.524 65.6682C236.516 65.5915 236.499 65.5176 236.479 65.4459ZM179.713 77.0493C179.862 76.728 179.974 76.3971 180.036 76.0633C180.094 75.7539 180.107 75.3865 180.115 75.0714C180.115 74.8889 180.053 74.3822 180.169 74.5256C180.567 75.0299 180.472 75.8431 180.999 76.3038C181.244 76.5177 181.526 76.7085 181.837 76.8773C181.758 76.9109 181.679 76.9453 181.6 76.9797L179.713 77.0493Z" fill="#5E3C2A"/>
<path fill-rule="evenodd" clip-rule="evenodd" d="M246.207 25.9447C245.834 25.6697 245.572 25.2742 245.211 24.9797C243.726 23.7656 242.091 22.5427 240.386 21.6569C239.652 21.2775 238.909 20.8807 238.154 20.5419C238.055 20.4958 237.578 20.3909 237.528 20.2752C237.503 20.2122 238.349 20.0687 238.42 20.0625C239.308 19.9833 240.254 20.162 241.054 20.5784C242.195 21.1722 243.091 21.9542 243.979 22.8769C244.871 23.8025 245.502 24.9992 246.414 25.9028" fill="#5E3C2A"/>
<path fill-rule="evenodd" clip-rule="evenodd" d="M241.61 28.0029C240.581 27.0927 239.303 26.3753 238.096 25.7143C237.66 25.4759 237.191 25.3158 236.756 25.0819C236.743 25.0765 236.42 24.9227 236.428 24.8978C236.449 24.8489 236.747 24.924 236.793 24.9298C237.22 24.9903 237.652 24.9857 238.079 25.0749C239.714 25.4166 241.145 26.3745 241.854 27.9196" fill="#5E3C2A"/>
<path fill-rule="evenodd" clip-rule="evenodd" d="M239.245 65.853C238.797 64.5666 238.868 62.3539 238.992 60.5588C239.266 56.5265 240.971 52.3109 243.888 49.6425C244.464 49.1179 245.207 48.8227 245.833 48.376C247.812 46.9773 251.853 45.5538 253.434 48.6672C253.691 49.1664 253.786 49.7109 253.865 50.2533C253.961 50.8645 254.069 51.5454 253.994 52.1662C253.488 56.3876 250.418 59.953 247.584 62.9283C246.514 64.0537 245.037 64.9656 244.079 66.1478C243.825 66.458 243.813 66.9514 243.61 67.2948C242.568 69.0389 240.046 68.1826 239.245 65.853Z" fill="#F6BC8B"/>
<path fill-rule="evenodd" clip-rule="evenodd" d="M253.094 48.1123C253.218 48.279 253.33 48.4635 253.434 48.6671C253.691 49.1664 253.787 49.7109 253.866 50.2533C253.961 50.8645 254.069 51.5454 253.994 52.1662C253.488 56.3876 250.418 59.953 247.584 62.9282C246.514 64.0537 245.037 64.9655 244.079 66.1478C243.826 66.458 243.813 66.9514 243.61 67.2948C242.569 69.0389 240.046 68.1826 239.246 65.8529C238.906 64.8722 238.864 63.3537 238.918 61.892C239.279 62.0732 239.69 62.3668 239.827 62.4203C240.47 62.6707 241.532 61.9666 241.781 61.3803C242.328 60.0794 241.963 58.5256 242.395 57.1945C242.859 55.7485 243.54 54.8006 244.448 53.6126C244.896 53.0287 245.946 51.8813 246.717 51.8104C247.406 51.7469 246.535 52.5609 246.386 52.7106C245.51 53.5893 243.714 55.3894 243.747 56.7031C243.764 57.2119 244.477 56.6318 244.664 56.5257C245.506 56.0525 246.186 55.3272 247.062 54.8475C247.282 54.7268 247.547 54.5837 247.796 54.541C247.929 54.5182 248.269 54.4096 248.194 54.5186C247.004 56.2271 244.817 56.9976 243.909 59.0274C243.61 59.6959 242.934 60.9751 244.021 61.3446C245.332 61.7916 246.688 60.0467 247.46 59.2538C249.812 56.8391 251.534 53.9368 252.696 50.7886C252.969 50.0459 253.272 48.9835 253.094 48.1123Z" fill="url(#paint3_linear_250_6039)"/>
<path fill-rule="evenodd" clip-rule="evenodd" d="M248.235 51.1046C248.94 50.5763 249.895 50.2147 250.733 49.9572C250.894 49.9079 251.483 49.764 251.558 50.0488C251.633 50.3325 251.011 50.5796 250.828 50.6655C250.168 50.9756 249.438 51.3306 248.716 51.4534C248.501 51.4894 248.235 51.6076 248.019 51.5856C247.741 51.5574 248.065 51.1701 248.165 51.1133" fill="#DD9051"/>
<path fill-rule="evenodd" clip-rule="evenodd" d="M222.589 37.1959C221.187 35.7363 217.354 33.0637 214.288 31.7649C212.736 31.1077 210.986 30.5466 209.272 30.6942C207.617 30.8373 206.298 31.8155 205.078 32.8414C204.684 33.1752 203.945 33.8118 203.721 34.3003C203.41 34.9778 203.535 35.9913 203.688 36.6821C203.775 37.0757 203.813 38.0166 204.128 38.3151C204.273 38.452 205.464 38.0079 205.684 37.971C207.169 37.7217 208.704 37.8586 210.202 37.7325C213.242 37.4758 216.126 38.3097 218.934 39.3589C219.694 39.6433 220.519 40.0298 221.183 40.5005C221.382 40.6431 221.755 41.1482 222.021 41.1436C222.299 41.1387 222.552 40.6983 222.705 40.5225C223.319 39.82 223.357 37.9962 222.589 37.1959ZM202.904 38.2903C202.663 38.1091 202.614 37.6525 202.514 37.3896C202.132 36.4101 201.863 35.283 201.946 34.226C201.971 33.8876 202.062 32.8966 202.618 32.9712C202.788 32.9948 202.763 33.451 202.771 33.5692C202.804 34.1779 202.755 34.7908 202.813 35.4016C202.883 36.1634 203.095 36.989 203.282 37.7292C203.311 37.8399 203.485 38.3997 203.389 38.4955C203.223 38.6602 203.004 38.3417 202.892 38.2397L202.904 38.2903Z" fill="#5E3C2A"/>
<path fill-rule="evenodd" clip-rule="evenodd" d="M195.155 38.1638C195.084 38.0908 195.026 38.0207 194.989 37.9942C194.665 37.7553 194.321 37.6081 193.943 37.4646C192.989 37.1051 191.682 37.2266 190.695 37.3494C188.575 37.6135 186.555 38.056 184.513 38.6726C183.8 38.8887 182.97 39.5463 182.232 39.611C181.614 39.6649 180.829 38.5938 181.029 38.0369C181.257 37.4 182.157 36.5847 182.638 36.124C183.215 35.5679 183.883 35.0164 184.538 34.5511C185.754 33.6832 186.891 32.8779 188.218 32.1908C189.998 31.2739 192.052 30.8232 193.01 31.0222C194.503 31.3341 196.32 32.8933 196.524 34.513C196.636 34.3575 196.735 34.2099 196.81 34.0747C196.922 33.8756 197.37 32.4558 197.544 33.3162C197.561 33.4091 197.573 33.4946 197.573 33.5895C197.578 33.7172 197.578 33.8449 197.578 33.9727C197.578 34.2024 197.582 34.4296 197.553 34.6569C197.407 35.8147 196.864 37.0865 196.238 38.0581C196.076 38.3064 195.474 38.5764 195.238 38.3056C195.205 38.2691 195.176 38.2202 195.155 38.1638Z" fill="#5E3C2A"/>
<path fill-rule="evenodd" clip-rule="evenodd" d="M219.808 48.05C219.64 47.3584 218.36 40.8685 212.037 42.8685C210.662 43.3023 209.534 43.8966 208.335 44.8251C208.291 44.8617 207.367 45.7309 207.371 45.7401C207.423 45.8363 207.807 45.7267 207.875 45.7084C208.386 45.5669 209.002 45.5492 209.525 45.4672C209.585 45.4581 210.069 45.2663 210.109 45.3441C210.14 45.3991 209.848 45.7881 209.816 45.8567C209.684 46.1268 208.968 47.3763 209.143 47.6832C209.167 47.7199 210.519 46.6816 210.611 46.6267C211.63 45.9499 212.742 45.1587 213.913 45.0362C217.553 44.6685 219.416 47.6741 219.808 48.05Z" fill="#392A22"/>
<path fill-rule="evenodd" clip-rule="evenodd" d="M221.268 47.558C222.091 47.2542 222.865 46.8399 223.706 46.5637C224.979 46.1445 226.301 45.9087 227.608 45.6266C228.448 45.4451 229.434 45.086 230.301 45.1087C230.348 45.1097 230.215 45.1383 230.172 45.157C230.114 45.1817 230.059 45.2123 230 45.2379C229.78 45.3346 229.792 45.3346 229.575 45.4471C229.168 45.6582 228.769 45.883 228.346 46.0665C226.773 46.7481 224.98 47.5817 223.237 47.7109C222.779 47.7444 222.318 47.7375 221.859 47.7375C221.742 47.7375 221.314 47.8145 221.411 47.6665" fill="#C47B3E"/>
<path fill-rule="evenodd" clip-rule="evenodd" d="M221.094 48.4761C222.148 48.4919 223.16 48.191 224.193 48.0204C225.272 47.8428 226.37 47.7837 227.459 47.7176C228.117 47.6771 228.775 47.6189 229.432 47.5716C229.801 47.544 229.849 47.5479 230.196 47.5459C230.288 47.5459 230.379 47.5459 230.471 47.5459C230.549 47.5459 230.743 47.4788 230.705 47.5459C230.651 47.6406 230.218 47.688 230.131 47.7057C229.536 47.8231 228.927 47.8872 228.329 47.9849C226.526 48.2769 224.744 48.7178 222.92 48.8174C222.459 48.8431 221.57 49.0345 221.131 48.776" fill="#C47B3E"/>
<path fill-rule="evenodd" clip-rule="evenodd" d="M220.974 49.6777C221.249 49.6579 221.524 49.7615 221.794 49.8059C222.714 49.9578 223.634 50.1077 224.552 50.2734C225.297 50.4086 226.041 50.5526 226.76 50.7982C227.416 51.0231 228.08 51.2717 228.713 51.5588C228.928 51.6564 229.138 51.7679 229.35 51.8744C229.442 51.9198 229.714 51.9908 229.618 52.0283C229.095 52.2335 228.146 52.0125 227.606 51.9612C225.97 51.8093 224.265 51.3585 222.765 50.7025C222.155 50.4352 221.112 50.3001 220.773 49.6619" fill="#C47B3E"/>
<path fill-rule="evenodd" clip-rule="evenodd" d="M182.622 45.5515C182.461 45.5406 182.297 45.5485 182.135 45.5485C182.11 45.5485 182.006 45.5199 181.986 45.5397C181.87 45.6521 182.105 46.0407 182.252 46.0694C182.321 46.0832 182.358 46.0713 182.421 46.0417C182.53 45.9914 183.02 45.8011 183.035 45.6324C183.037 45.6057 182.92 45.5762 182.898 45.5535" fill="#C47B3E"/>
<path fill-rule="evenodd" clip-rule="evenodd" d="M182.663 46.3682C182.374 46.3761 182.022 46.4727 181.787 46.6454C181.746 46.6749 181.886 46.6513 181.936 46.6542C182.017 46.6602 182.096 46.6651 182.178 46.6651C182.467 46.6651 182.539 46.5319 182.762 46.3721" fill="#C47B3E"/>
<path fill-rule="evenodd" clip-rule="evenodd" d="M182.313 47.247C182.227 47.2323 182.147 47.2244 182.062 47.2234C181.988 47.2234 181.913 47.2273 181.84 47.2421C181.823 47.2451 181.708 47.2619 181.692 47.2747C181.617 47.3339 181.749 47.5154 181.811 47.54C181.918 47.5844 182.203 47.4394 182.317 47.3713C182.348 47.3526 182.453 47.324 182.458 47.2865" fill="#C47B3E"/>
<path fill-rule="evenodd" clip-rule="evenodd" d="M182.623 47.4632C182.737 46.8915 183.607 41.5273 187.882 43.1854C188.811 43.545 189.573 44.0372 190.384 44.8057C190.414 44.8359 191.038 45.5552 191.035 45.5628C191 45.6423 190.741 45.5514 190.695 45.5363C190.349 45.4189 189.933 45.4038 189.579 45.3356C189.538 45.328 189.211 45.1691 189.184 45.2334C189.163 45.2789 189.36 45.6007 189.381 45.6574C189.471 45.8808 189.954 46.9143 189.835 47.1679C189.819 47.1982 188.906 46.3388 188.844 46.2934C188.155 45.7331 187.403 45.0782 186.612 44.976C184.15 44.6694 182.888 47.1527 182.623 47.4632Z" fill="#392A22"/>
<path fill-rule="evenodd" clip-rule="evenodd" d="M202.814 56.2349C202.814 56.2349 213.38 60.9024 217.963 57.5311C222.542 54.1602 223.176 47.7949 222.457 45.2729C222.457 45.2729 223.573 47.1441 223.135 49.9862C222.399 54.7356 219.595 59.7306 214.202 59.8861C208.714 60.0448 203.677 57.4679 203.358 57.1071C203.039 56.7457 202.814 56.2349 202.814 56.2349Z" fill="url(#paint4_linear_250_6039)"/>
<path fill-rule="evenodd" clip-rule="evenodd" d="M221.073 44.0724C216.052 46.7494 211.391 50.2968 206.983 54.0701C206.076 54.8445 205.201 55.6508 204.334 56.4704C205.348 57.1464 206.542 57.5379 207.642 57.849C211.236 58.8639 215.578 59.479 218.669 56.69C220.799 54.7727 221.956 51.3524 222.312 48.412C222.414 47.5333 222.749 46.2975 222.349 45.4504C222.091 44.9075 221.617 44.4566 221.073 44.0724ZM215.672 41.668C213.852 42.8667 212.16 44.2334 210.475 45.7015C207.629 48.1746 204.857 50.6974 202.191 53.3626C202.265 53.8428 202.4 54.3075 202.662 54.7521C202.788 54.9597 202.923 55.1532 203.07 55.3339C206.337 51.8592 209.931 48.5775 213.55 45.6727C214.924 44.5673 216.314 43.4472 217.643 42.2635C217.005 42.0224 216.338 41.834 215.672 41.668Z" fill="url(#paint5_linear_250_6039)"/>
<path fill-rule="evenodd" clip-rule="evenodd" d="M178.2 54.1513C178.2 54.1513 186.017 57.8345 188.841 54.0655C191.662 50.2974 191.432 43.9092 190.668 41.4663C190.668 41.4663 191.639 43.2259 191.634 46.0923C191.623 50.8826 190.203 56.105 186.48 56.7491C182.692 57.405 178.928 55.2994 178.669 54.9694C178.41 54.639 178.2 54.1513 178.2 54.1513Z" fill="url(#paint6_linear_250_6039)"/>
<path fill-rule="evenodd" clip-rule="evenodd" d="M189.583 40.398C186.383 43.5162 183.523 47.4673 180.864 51.6201C180.316 52.4726 179.794 53.3539 179.279 54.2477C180.053 54.828 180.922 55.1091 181.718 55.3186C184.316 56.0017 187.392 56.2195 189.242 53.1651C190.518 51.0649 190.96 47.5582 190.898 44.6015C190.876 43.7184 190.979 42.4589 190.612 41.6528C190.376 41.1363 190 40.7308 189.583 40.398ZM185.585 38.497C184.449 39.8543 183.419 41.3671 182.405 42.9802C180.692 45.698 179.035 48.4587 177.467 51.3513C177.568 51.8222 177.711 52.2722 177.939 52.6906C178.049 52.8856 178.162 53.0657 178.284 53.232C180.183 49.4798 182.331 45.8899 184.534 42.6725C185.371 41.4484 186.217 40.2082 187.014 38.9104C186.546 38.7285 186.064 38.6016 185.585 38.497Z" fill="url(#paint7_linear_250_6039)"/>
<path fill-rule="evenodd" clip-rule="evenodd" d="M192.18 45.113C193.156 43.811 194.928 42.9895 196.019 42.9221C197.129 42.8537 198.132 42.8912 199.162 43.3595C200.379 43.9131 201.229 45.302 201.585 46.5234C201.662 46.7816 201.934 46.9297 202.19 46.854C202.45 46.7782 202.6 46.5069 202.523 46.2483C202.09 44.779 201.156 43.058 199.694 42.3918C198.515 41.8569 197.233 41.7682 195.962 41.847C194.672 41.9266 192.555 42.9872 191.399 44.5272C191.234 44.7427 191.28 45.0487 191.495 45.2102C191.709 45.3721 192.015 45.3285 192.18 45.113Z" fill="#392A22"/>
<path fill-rule="evenodd" clip-rule="evenodd" d="M204.222 58.0078C204.222 58.0078 216.165 63.1766 220.039 57.2483C220.039 57.2483 218.998 60.5254 214.308 60.5492C209.615 60.5729 204.222 58.0078 204.222 58.0078Z" fill="#392A22"/>
<path fill-rule="evenodd" clip-rule="evenodd" d="M180.607 56.1034C180.607 56.1034 186.702 58.6597 189.412 54.9448C189.412 54.9448 188.822 56.4753 187.035 57.0795C184.248 58.0215 180.607 56.1034 180.607 56.1034Z" fill="#392A22"/>
<path fill-rule="evenodd" clip-rule="evenodd" d="M223.611 47.4648L244.397 49.1362L242.912 50.5063L223.65 48.5825L223.611 47.4648Z" fill="#392A22"/>
<path fill-rule="evenodd" clip-rule="evenodd" d="M283.462 117.659C282.784 117.554 282.172 116.911 281.546 116.627C278.91 115.434 276.536 113.743 274.022 112.327C273.51 112.038 271.801 110.666 271.263 110.64C271.014 110.627 270.69 111.247 270.576 111.4C269.837 112.397 269.182 113.415 268.53 114.464C265.601 119.153 263.471 124.149 261.145 129.188C259.825 132.05 258.526 135.14 257.966 138.247C257.555 140.546 258.106 143.234 258.609 145.45C259.392 148.929 260.087 152.442 261.267 155.816C262.413 159.107 263.751 161.917 265.378 164.972C266.134 166.397 266.86 167.966 268.023 169.115C269.195 170.273 271.149 170.959 272.596 171.685C275.565 173.18 278.617 174.587 281.818 175.509C284.454 176.269 286.85 178.179 291.738 180.863C292.272 181.151 293.326 181.16 293.968 180.928C294.174 180.854 294.226 179.779 294.257 179.6C294.497 178.083 294.781 176.558 295.136 175.063C296.522 169.216 297.637 163.259 298.153 157.263C298.874 148.894 297.864 141.093 293.076 134.004" fill="#EDE8E0"/>
<path fill-rule="evenodd" clip-rule="evenodd" d="M259.107 134.078C259.029 134.292 258.959 134.502 258.889 134.716C258.976 134.869 259.068 135.018 259.16 135.171L259.982 151.463C260.353 152.927 260.764 154.387 261.267 155.816C262.413 159.107 258.941 161.843 260.568 164.898C261.324 166.323 266.86 167.966 268.023 169.115C269.194 170.273 271.149 170.96 272.596 171.685C275.565 173.18 278.617 174.587 281.817 175.509C284.454 176.27 286.85 178.179 291.738 180.863C292.272 181.151 293.325 181.16 293.968 180.928C294.174 180.854 294.226 179.779 294.257 179.6C294.497 178.083 294.781 176.558 295.135 175.063C296.08 171.082 296.893 167.048 297.483 162.988C295.254 157.446 292.713 152.032 290.313 146.556C289.425 144.523 288.358 142.522 287.737 140.385C287.685 140.214 287.086 137.57 286.872 137.649C285.884 138.02 285.359 141.211 285.118 142.032C284.003 145.861 282.543 149.466 280.418 152.84C280.147 153.268 279.22 155.93 278.761 156.022C278.424 156.087 277.913 155.051 277.786 154.877C276.715 153.382 275.49 151.94 274.319 150.524C273.96 150.087 273.645 149.667 273.392 149.165C273.261 148.907 273.033 148.155 272.937 148.43C272.649 149.239 271.91 149.991 271.805 150.886C271.787 151.035 271.861 152.469 271.647 152.438C270.917 152.333 270.388 151.341 269.951 150.856C268.928 149.715 267.966 148.601 267.043 147.364C264.848 144.431 262.964 141.276 261.132 138.108C260.668 137.299 259.833 136.241 259.16 135.171L259.107 134.078Z" fill="#CEC7BB"/>
<path fill-rule="evenodd" clip-rule="evenodd" d="M279.602 114.875C279.125 113.957 278.106 112.371 278.115 111.444C278.119 110.557 279.042 109.635 279.527 108.988C280.765 107.349 282.282 106.025 283.572 104.452L283.012 106.868C284.123 106.204 285.351 105.671 286.3 105.173C289.785 103.333 292.837 101.357 296.794 100.785L318 108.472C318.498 112.441 318.013 116.697 318.288 120.722C318.738 127.313 318.988 133.833 318.988 140.459C318.988 144.021 318.883 147.644 319.106 151.201C319.233 153.251 319.775 156.057 319.25 158.093C319.04 158.911 318.389 159.522 318.131 160.322C316.718 164.719 315.044 169.198 312.906 173.298C312.289 174.478 311.83 176.558 310.746 177.428C308.398 179.311 304.165 179.569 301.345 179.914C299.421 180.146 294.236 182.069 292.579 181.492C291.293 181.046 287.66 176.903 286.659 175.903C282.793 172.03 279.724 167.708 276.37 163.412C274.543 161.07 271.906 158.46 270.844 155.611C269.799 152.81 270.874 149.152 271.167 146.293C272.081 137.395 276.038 129.568 277.909 120.945C278.347 118.935 278.941 116.881 279.602 114.875Z" fill="#EDE8E0"/>
<path fill-rule="evenodd" clip-rule="evenodd" d="M270.634 149.951C270.354 151.905 270.21 153.915 270.844 155.611C271.906 158.46 274.543 161.07 276.37 163.412C279.724 167.708 282.793 172.03 286.659 175.903C287.66 176.903 291.293 181.046 292.579 181.492C294.236 182.069 299.421 180.146 301.345 179.914C304.165 179.569 308.398 179.311 310.746 177.428C311.83 176.558 312.289 174.478 312.906 173.298C315.044 169.198 316.718 164.719 318.131 160.322C318.389 159.522 319.04 158.911 319.25 158.093C319.775 156.057 319.233 153.251 319.106 151.201C318.883 147.644 318.988 144.021 318.988 140.459C318.988 133.833 318.738 127.313 318.288 120.722C318.013 116.697 318.498 112.441 318 108.472L296.794 100.785C292.837 101.357 289.785 103.333 286.3 105.173C285.351 105.671 284.123 106.204 283.012 106.868L283.572 104.452C282.282 106.025 280.765 107.349 279.527 108.988C279.042 109.635 278.119 110.557 278.115 111.444C278.111 111.706 278.194 112.021 278.32 112.362C283.72 113.258 299.907 121.57 300.121 124.166C300.213 125.237 300.869 126.08 300.689 127.142C300.265 129.695 301.035 130.224 301.21 132.789C301.861 142.22 302.451 151.533 301.765 161.004C301.411 165.868 301.761 171.209 296.715 173.595C295.823 174.015 294.428 172.651 293.755 172.236C290.847 170.453 288.067 168.425 285.325 166.401C282.133 164.05 278.898 161.743 275.903 159.138C275.439 158.736 273.03 157.324 273.048 156.441C273.061 155.685 276.218 156.704 276.108 156.376C275.719 155.209 273.922 153.867 273.152 152.932C272.335 151.927 271.487 150.939 270.634 149.951Z" fill="#CEC7BB"/>
<path fill-rule="evenodd" clip-rule="evenodd" d="M271.766 126.006C266.773 133.344 268.941 140.9 270.646 148.863C270.708 149.143 270.528 148.295 270.476 148.011C270.38 147.491 270.349 146.958 270.349 146.424C270.34 144.816 270.515 143.182 270.515 141.56C270.515 136.683 271.175 131.797 272.076 127.042" fill="#CEC7BB"/>
<path fill-rule="evenodd" clip-rule="evenodd" d="M265.614 132.618C266.567 134.454 266.781 136.967 267.284 138.964C267.607 140.253 267.957 141.538 268.298 142.819C268.674 144.23 269.457 145.882 269.5 147.347C269.505 147.534 269.828 148.159 269.772 148.286C269.767 148.295 269.361 147.819 269.356 147.819C269.168 147.513 268.95 147.207 268.766 146.896C268.224 145.983 267.616 145.161 267.004 144.296C265.762 142.544 264.569 140.8 263.384 139.017C263.073 138.549 262.295 137.448 262.435 136.858C262.518 136.521 263.121 136.849 263.244 136.928C263.725 137.242 264.84 138.654 265.439 138.676C265.784 138.689 265.225 136.561 265.185 136.351C264.844 134.502 264.232 132.828 265.386 131.128" fill="#CEC7BB"/>
<path fill-rule="evenodd" clip-rule="evenodd" d="M278.98 116.448C277.463 117.436 277.249 119.429 276.698 121.015C274.394 127.619 273.436 133.908 274.097 141.053C274.298 143.251 274.027 145.498 274.027 147.701C274.027 147.954 274.123 149.523 273.581 149.619C273.183 149.685 272.96 147.591 272.938 147.416C272.649 145.196 272.264 142.976 271.888 140.774C271.775 140.114 271.539 139.476 271.508 138.807C271.491 138.462 271.648 137.465 271.499 137.775C270.879 139.047 271.233 140.988 271.058 142.369C271.053 142.417 270.979 143.959 270.944 143.955C270.922 143.955 270.935 142.657 270.935 142.552C270.935 140.874 271.294 139.253 271.307 137.588C271.32 135.962 271.823 134.301 272.107 132.71C272.877 128.41 273.135 124.105 275.072 120.15C275.64 118.983 276.619 117.549 277.629 116.723C277.831 116.557 278.272 115.871 278.539 115.976" fill="#CEC7BB"/>
<path fill-rule="evenodd" clip-rule="evenodd" d="M286.291 118.035C287.72 119.446 288.722 121.758 289.828 123.436C292.036 126.788 294.148 130.193 296.29 133.593C297.374 135.315 298.371 137.198 299.198 139.056C299.508 139.751 299.766 140.459 300.098 141.145C300.273 141.508 300.881 142.539 300.627 142.229C299.04 140.266 297.886 137.784 296.417 135.713C292.954 130.835 289.159 126.002 285.372 121.373C284.909 120.805 284.437 120.255 283.969 119.687C283.527 119.149 283.558 119.206 283.156 118.603C282.64 117.82 278.447 113.315 282.373 114.875" fill="#CEC7BB"/>
<path fill-rule="evenodd" clip-rule="evenodd" d="M309.337 78.3693C309.823 78.3518 310.448 78.8938 310.802 79.1516C312.013 80.0301 313.141 80.9959 314.199 82.0535C314.497 82.355 314.781 82.6479 315.087 82.9451C315.131 82.9888 315.328 83.1242 315.301 83.2204C315.236 83.4782 314.833 83.6618 314.676 83.8584C313.815 84.9204 312.879 85.9169 311.886 86.8609C309.635 88.998 306.863 90.5058 304.126 91.9218C302.993 92.5074 301.817 93.1804 300.619 93.6087C299.355 94.0589 297.725 94.2162 296.391 94.1769C294.97 94.1376 293.671 93.5038 292.465 92.8308C289.828 91.3667 287.196 89.199 285.237 86.8871C284.726 86.2796 284.297 85.6372 283.816 85.0122C283.624 84.7631 283.353 84.6364 283.252 84.3217C282.998 83.5176 283.519 82.7047 284.022 82.1234C284.485 81.5859 284.769 80.9828 285.386 80.5807C285.972 80.2005 286.715 80.0082 287.331 79.6367C287.834 79.3308 288.534 78.4742 289.198 78.5703" fill="#CEC7BB"/>
<path fill-rule="evenodd" clip-rule="evenodd" d="M310.575 77.5345C310.557 78.0545 310.794 80.6025 310.794 80.6025L314.436 83.1242L311.165 86.97L299.605 94.3123L287.336 86.8827L283.348 84.1424L287.069 80.2922L287.152 78.6358L281.936 82.9887L275.797 109.088C275.797 109.088 292.229 117.554 294.266 118.035C296.308 118.515 305.8 120.574 305.8 120.574C305.8 120.574 321.528 110.164 321.641 109.46C321.759 108.761 317.19 83.3034 317.19 83.3034C317.19 83.3034 310.584 77.0144 310.575 77.5345Z" fill="#EDE8E0"/>
<path fill-rule="evenodd" clip-rule="evenodd" d="M317.05 83.1724C316.805 84.0901 314.562 85.7465 314.156 86.3365C312.009 89.4569 308.642 92.2583 305.546 94.4129C304.309 95.2739 303.015 96.7817 301.554 97.2274C299.648 97.8087 296.386 94.9942 294.655 94.1726C294.095 93.9103 293.571 93.5782 293.068 93.2154C292.854 93.0625 292.495 92.5162 292.403 92.7696C292.198 93.329 293.864 94.8674 294.187 95.2564C295.569 96.9346 297.895 99.3164 298.892 101.231C299.29 102.004 298.686 103.302 298.599 104.089C298.393 105.994 297.904 108.748 298.236 110.644C298.49 112.117 300.593 114.385 301.362 115.784C301.467 115.972 302.46 116.968 302.403 117.174C302.241 117.751 299.15 116.654 298.892 116.606C298.039 116.439 297.191 116.177 296.334 116.037C294.922 115.801 293.658 115.229 292.329 114.718C289.767 113.73 287.248 112.629 284.651 111.715C284.476 111.654 284.992 111.864 285.145 111.964C285.438 112.161 285.744 112.331 286.033 112.528C286.947 113.149 287.961 113.721 288.818 114.412C290.077 115.426 291.284 116.435 292.548 117.366C293.365 117.724 293.969 117.965 294.266 118.035C296.308 118.515 305.459 119.669 305.459 119.669C305.459 119.669 321.186 109.263 321.304 108.56C321.418 107.856 317.19 83.3035 317.19 83.3035L317.05 83.1724Z" fill="#CEC7BB"/>
<path fill-rule="evenodd" clip-rule="evenodd" d="M309.822 68.7282C310.12 73.7803 311.488 86.7865 311.488 86.7865C311.488 86.7865 302.201 94.3079 300.081 94.7712C297.96 95.2301 288.276 87.595 288.276 87.595L286.544 86.2577C286.544 86.2577 287.558 74.1213 287.266 69.799C287.086 67.085 286.785 64.0869 286.583 62.2295C285.989 61.2243 285.451 60.2978 285.04 59.5636C284.384 58.3923 283.462 57.1293 283.064 55.84C282.845 55.1233 283.033 54.1793 282.959 53.4451C282.727 51.1419 282.766 48.8125 282.766 46.4919C282.766 45.1851 282.766 43.8784 282.766 42.576C282.766 41.5752 282.679 40.5963 282.648 39.6042C282.583 37.4584 282.609 35.2207 282.325 33.0924C282.18 32.0085 281.813 30.8504 281.944 29.7447C282.045 28.9187 283.046 28.7745 283.715 28.8575C285.613 29.0935 286.732 30.6625 287.646 32.1571C288.35 33.3109 289.154 34.1544 289.552 35.5048C290.164 37.5982 290.182 39.6872 290.737 41.6495C290.96 41.6277 291.179 41.6014 291.384 41.5796C291.612 41.5534 291.944 41.6233 292.294 41.702C293.417 37.7337 295.302 31.6152 296.05 28.2937C296.426 26.6199 295.827 14.8846 295.547 12.1523C295.337 10.0833 295.459 7.54157 296.596 5.72001C297.081 4.94427 299.596 2.8054 300.409 3.80752C300.964 4.48974 301.467 10.9771 302.062 12.8568C302.857 15.375 304.025 18.0824 304.318 20.7304C304.331 20.8349 304.335 20.9397 304.335 21.0442C304.79 17.5055 305.109 13.98 305.03 10.4754C304.969 7.67442 307.396 5.16278 309.232 3.2997C309.744 2.77919 311.423 1.94401 312.031 2.82988C312.577 3.62004 312.581 5.98528 312.433 6.80953C312.092 8.72112 312.275 10.9959 312.275 12.942C312.275 15.8723 312.651 18.4237 312.188 21.3361C312.1 21.8671 312.026 22.4003 311.952 22.9353L311.991 22.8028C312.787 20.7877 312.726 18.4819 313.456 16.4483C314.256 14.2107 316.154 12.0837 317.933 10.5567C319.127 9.53312 324.374 7.15566 324.579 10.3888C324.636 11.2861 323.709 12.3489 323.333 13.1251C322.275 15.3085 321.4 17.7376 320.801 20.0893C319.564 24.9504 318.235 29.7578 317.024 34.6089C318.134 32.4412 319.315 30.2822 320.683 28.2937C322.568 25.5535 324.234 22.6119 327.46 21.3156C328.925 20.7265 329.905 20.0779 330.985 21.5114C331.938 22.7797 329.682 25.1252 329.183 26.161C326.993 30.7018 325.213 35.4043 322.909 39.9014C319.638 46.2865 317.491 53.0911 315.428 59.9744C314.19 64.1088 313.04 66.4076 309.822 68.7282ZM304.16 22.3736C304.147 22.4746 304.134 22.576 304.117 22.677C304.103 22.7784 304.09 22.8793 304.077 22.9803C304.095 22.7779 304.125 22.5756 304.16 22.3736Z" fill="#F6BC8B"/>
<path fill-rule="evenodd" clip-rule="evenodd" d="M313.255 65.2102C312.77 65.656 312.197 66.058 311.856 66.4426C308.034 70.7299 302.425 70.5464 297.2 70.1574C295.7 70.0438 293.872 69.4975 292.6 68.6977C292.097 68.3831 291.542 68.1689 291.07 67.8105C291.052 67.7974 290.44 67.2555 290.436 67.4303C290.418 67.9198 291.341 68.4836 291.638 68.7939C292.565 69.751 293.82 70.5945 295.049 71.1189C295.866 71.4686 296.955 71.639 297.606 72.3033C298.14 72.8539 298.21 73.5794 298.38 74.2918C298.835 76.1885 299.128 78.129 299.281 80.0738C299.661 84.9642 299.561 89.8983 299.871 94.7887C299.95 94.7887 300.02 94.7844 300.081 94.7713C302.202 94.308 311.489 86.7866 311.489 86.7866C311.489 86.7866 310.12 73.7804 309.823 68.7283C311.362 67.6182 312.424 66.5126 313.255 65.2102Z" fill="url(#paint8_linear_250_6039)"/>
<path fill-rule="evenodd" clip-rule="evenodd" d="M325.559 22.3741C323.499 23.8797 322.157 26.1479 320.683 28.2937C319.315 30.2822 318.134 32.4412 317.024 34.6089C318.003 30.68 319.061 26.7816 320.084 22.8618C319.271 25.1777 318.58 27.5333 317.951 29.9195C317.645 31.0733 317.238 32.2227 316.823 33.3371C316.622 33.8878 316.11 34.4472 316.049 35.0416C316.027 35.2557 316.687 35.3344 316.796 35.3825C317.452 35.6578 318.362 36.1473 319.074 36.2041C319.459 36.2347 318.891 35.1071 318.834 35.011C318.51 34.4297 318.572 33.5207 318.681 32.8914C318.812 32.1484 319.485 31.2918 319.774 30.6013C320.683 28.4336 321.501 26.9389 323.045 25.1427C323.744 24.3298 324.623 23.6743 325.257 22.8002C325.362 22.6595 325.462 22.5174 325.559 22.3741ZM312.24 10.8552C311.357 16.1979 311.537 21.4406 310.5 26.7379C310.234 28.0971 309.989 29.6354 309.525 30.9465C309.433 31.2088 309.438 31.9517 309.245 32.109C308.848 32.4281 307.851 32.144 307.387 32.1484C307.208 32.1484 307.719 32.2751 307.894 32.3101C308.17 32.3669 308.401 32.5155 308.664 32.5942C309.512 32.8433 310.439 33.1885 311.313 33.3196C312.14 33.442 311.213 31.0427 311.195 30.7455C311.099 29.0891 312.21 22.9903 312.359 21.7526L312.38 21.5499C312.28 21.9764 312.153 22.3955 311.991 22.8028L311.952 22.9353C312.026 22.4003 312.101 21.8671 312.188 21.3361C312.651 18.4237 312.275 15.8723 312.275 12.942C312.275 12.2755 312.254 11.5706 312.24 10.8552ZM300.479 3.92334C299.762 5.95818 300.212 7.89423 300.496 10.3005C301.012 14.6954 302.184 18.9639 302.674 23.3347C302.844 24.8849 302.801 26.4494 302.801 28.0184C302.801 28.2588 302.945 29.3951 302.831 29.5742C302.779 29.6617 302.066 29.0673 302.018 29.0367C301.554 28.7483 300.628 28.3943 300.077 28.3506C299.928 28.3374 300.3 28.5472 300.418 28.6434C300.719 28.8794 301.073 29.0236 301.362 29.2771C302.206 30.0157 303.238 31.1476 304.506 30.9291C304.619 30.9072 303.881 29.3033 303.876 28.9056C303.854 27.0832 303.771 25.1383 304.003 23.3347C304.13 22.3383 304.213 21.337 304.27 20.3318C303.907 17.8119 302.818 15.2491 302.062 12.8568C301.493 11.0562 301.008 5.02642 300.479 3.92334Z" fill="#DE9254"/>
<path fill-rule="evenodd" clip-rule="evenodd" d="M296.167 25.134C296.181 26.668 296.15 27.8436 296.049 28.2938C295.302 31.6153 293.417 37.7337 292.294 41.702C291.944 41.6234 291.611 41.5534 291.384 41.5796C291.179 41.6015 290.96 41.6277 290.737 41.6496C290.273 40.0107 290.186 38.2801 289.81 36.5319C289.898 37.0695 289.963 37.607 290.016 38.1402C290.322 41.5228 290.204 44.8006 292.254 47.7288C293.592 49.6386 295.831 50.8186 297.182 52.6891C298.034 53.8691 298.45 56.1067 300.181 56.3165C302.035 56.5438 303.788 55.1584 305.459 54.5552C306.512 54.175 307.649 54.1706 308.747 54.057C308.821 54.0526 309.7 53.9434 309.709 53.856C309.77 53.3272 308.13 53.1261 307.855 53.0693C305.983 52.6629 304.16 52.0336 302.276 51.6621C301.239 51.461 300.242 51.4217 299.337 50.8229C297.374 49.525 298.345 46.1467 298.913 46.1511C300.5 46.1554 302.088 46.2428 303.614 46.7542C305.979 47.5452 308.72 49.6386 311.287 49.6299C311.484 49.6299 310.968 49.3982 310.81 49.2758C310.535 49.0617 310.277 48.8563 309.94 48.7383C308.952 48.3974 307.833 48.1308 306.897 47.6588C305.096 46.7542 303.238 45.9981 301.432 45.0716C300.767 44.7307 299.499 44.5471 299.014 43.944C298.568 43.3802 298.73 42.0648 298.786 41.3917C298.804 41.2169 299.224 41.3262 299.302 41.3524C300.006 41.6147 300.776 41.7457 301.519 41.8725C303.684 42.2352 305.52 42.7596 307.492 43.8129C307.789 43.9702 310.076 45.4343 310.185 45.2944C310.369 45.0541 310.032 44.5034 309.888 44.2937C309.254 43.3715 308.725 43.07 307.667 42.7597C306.517 42.4232 305.437 41.9118 304.296 41.5666C303.111 41.2082 298.048 40.8454 296.613 38.197C294.917 35.0635 296.941 29.5612 296.946 29.0717C296.95 27.7257 296.697 26.3708 296.167 25.134Z" fill="#DE9254"/>
<path fill-rule="evenodd" clip-rule="evenodd" d="M297.1 55.9929C296.229 54.3496 295.128 53.0079 293.921 51.6138C292.456 49.9268 291.149 48.2005 289.43 46.7976C289.085 46.5136 288.565 45.6919 288.049 45.7881C287.695 45.858 287.786 46.8238 287.782 47.0467C287.773 48.2792 287.695 49.5247 287.695 50.7659C287.695 55.0751 290.432 58.733 293.156 61.8054C293.895 62.6358 294.813 64.0911 295.797 64.6636C296.579 65.1138 297.681 64.231 298.346 63.9469C300.414 63.0553 302.587 62.4347 304.637 61.5432C305.276 61.2679 305.639 60.4768 305.438 59.8038C304.756 57.4963 301.699 58.7156 300.095 58.0906C299.172 57.7322 298.612 56.7883 297.786 56.4211" fill="url(#paint9_linear_250_6039)"/>
<path fill-rule="evenodd" clip-rule="evenodd" d="M301.126 31.6458C301.992 31.1651 303.925 32.9963 304.624 33.3984C305.162 33.7087 305.713 33.9578 306.242 34.2812C306.579 34.4866 306.924 34.6483 307.221 34.9105C309.338 36.7723 305.354 37.2967 304.108 37.8561C303.059 38.3238 301.1 40.1287 299.762 39.6873C299.181 39.4994 298.7 38.5685 298.455 38.0615C297.76 36.6106 296.514 30.0769 299.762 30.7849" fill="url(#paint10_linear_250_6039)"/>
<path d="M82.1296 53.118C82.1296 53.118 83.3003 68.8904 89.8641 72.613C89.8641 72.613 68.7899 68.9734 63.6078 61.0809C58.4258 53.1879 82.1296 53.118 82.1296 53.118Z" fill="#F8F8F8"/>
<path d="M64.6092 60.0992H26.7747C12.0488 60.0992 0 48.0504 0 33.3245C0 18.5986 12.0488 6.5498 26.7747 6.5498H64.6092C79.3351 6.5498 91.3839 18.5986 91.3839 33.3245C91.3839 48.0504 79.3357 60.0992 64.6092 60.0992Z" fill="#F8F8F8"/>
<path d="M28.721 43.57C28.7351 43.8781 27.8268 44.0738 25.9971 44.1585C24.1669 44.2425 23.245 44.1308 23.2309 43.8228L22.9437 37.5716L19.1389 37.7465L19.426 43.9977C19.4401 44.3057 18.5323 44.5021 16.7021 44.5861C14.8719 44.6702 13.95 44.5585 13.9359 44.2504L13.1077 26.2308C13.0902 25.8505 13.9963 25.6181 15.8265 25.534C17.6567 25.45 18.5803 25.5984 18.5978 25.9786L18.8912 32.3658L22.6966 32.1909L22.4055 25.8584C22.3937 25.6046 22.8382 25.4026 23.7392 25.2525C24.2087 25.195 24.6696 25.1555 25.1232 25.1346L26.5117 25.125C27.4228 25.1921 27.8843 25.3524 27.8956 25.6063L28.721 43.57Z" fill="#FF4C24"/>
<path d="M41.5628 42.7069C40.4519 43.4296 38.9997 43.8325 37.2062 43.9148C35.4126 43.9972 33.8712 43.455 32.5832 42.2889C31.2946 41.1227 30.6006 39.4572 30.5013 37.2918C30.402 35.127 30.9149 33.3555 32.041 31.9777C33.1666 30.6005 34.6357 29.8699 36.4479 29.787C38.2595 29.7035 39.6801 30.1012 40.7103 30.9803C41.7405 31.8593 42.2856 32.96 42.3465 34.2824C42.4813 37.2179 40.8638 38.7627 37.4939 38.9178L35.6185 39.0041C35.6434 39.548 35.8104 39.917 36.1184 40.1116C36.427 40.3063 36.871 40.3904 37.451 40.3633C38.7193 40.3052 39.9109 39.9599 41.0257 39.3274C41.0426 39.3088 41.1301 39.4312 41.2875 39.6964C41.758 40.4558 42.0057 41.1024 42.0305 41.6366C42.0559 42.1721 41.8991 42.5286 41.5628 42.7069ZM37.8048 35.0086C37.7698 34.2475 37.3805 33.8841 36.638 33.9185C36.2933 33.9343 36.0039 34.0523 35.7692 34.2717C35.5339 34.4918 35.4256 34.8009 35.4442 35.1993L35.4831 36.0416L36.9506 35.9739C37.5481 35.9468 37.833 35.6252 37.8048 35.0086Z" fill="#FF4C24"/>
<path d="M49.4695 42.8615C49.4768 43.0245 48.5566 43.1486 46.7083 43.2333C45.2578 43.2818 44.53 43.2429 44.5238 43.1159L43.673 24.6071C43.6606 24.3352 44.5328 24.1592 46.2908 24.0785C47.8327 24.0621 48.6074 24.1174 48.6136 24.2438L49.4695 42.8615Z" fill="#FF4C24"/>
<path d="M56.8601 42.5219C56.8674 42.6849 55.9472 42.809 54.0989 42.8937C52.6484 42.9422 51.9206 42.9033 51.9144 42.7763L51.0636 24.2675C51.0512 23.9956 51.9234 23.8196 53.6814 23.7389C55.2239 23.7225 55.998 23.7778 56.0042 23.9048L56.8601 42.5219Z" fill="#FF4C24"/>
<path d="M60.4252 40.9685C59.2353 39.7702 58.5893 38.0663 58.4878 35.8553C58.3862 33.6448 58.8731 31.8884 59.9479 30.5863C61.0227 29.2841 62.5206 28.5885 64.4411 28.5005C66.3616 28.4125 67.9125 28.9676 69.0934 30.166C70.2742 31.3643 70.9157 33.0693 71.0173 35.2798C71.1188 37.4908 70.6364 39.2466 69.5707 40.5482C68.5044 41.8498 67.011 42.5454 65.091 42.6334C63.1705 42.7214 61.6151 42.1668 60.4252 40.9685ZM64.6634 33.0388C63.6394 33.0856 63.166 33.9432 63.2427 35.6098C63.3195 37.277 63.8696 38.0866 64.893 38.0398C65.9164 37.993 66.3904 37.136 66.3136 35.4688C66.2375 33.8016 65.6868 32.9914 64.6634 33.0388Z" fill="#FF4C24"/>
<path d="M73.0709 37.909C73.0652 37.7821 73.9002 37.68 75.5764 37.6033C77.2521 37.526 78.0927 37.5418 78.0978 37.6507L78.2778 41.5644C78.2862 41.7461 77.4518 41.8747 75.7761 41.952C74.0999 42.0293 73.2593 42.013 73.2548 41.9046L73.0709 37.909ZM77.4806 36.0721C77.4856 36.1809 76.8402 36.265 75.5448 36.3242C74.2489 36.3841 73.5995 36.3688 73.595 36.278L72.4356 22.9039C72.4288 22.7595 73.2542 22.6483 74.9124 22.5721C76.57 22.496 77.4021 22.5214 77.4078 22.6483L77.4806 36.0721Z" fill="#FF4C24"/>
<defs>
<linearGradient id="paint0_linear_250_6039" x1="183.861" y1="26.2261" x2="235.286" y2="12.3129" gradientUnits="userSpaceOnUse">
<stop stop-color="#DE9254" stop-opacity="0"/>
<stop offset="1" stop-color="#DE9254"/>
</linearGradient>
<linearGradient id="paint1_linear_250_6039" x1="224.086" y1="11.8843" x2="240.526" y2="54.4956" gradientUnits="userSpaceOnUse">
<stop stop-color="#DE9254" stop-opacity="0"/>
<stop offset="1" stop-color="#DE9254"/>
</linearGradient>
<linearGradient id="paint2_linear_250_6039" x1="202.933" y1="46.5874" x2="201.222" y2="62.0839" gradientUnits="userSpaceOnUse">
<stop stop-color="#DE9254" stop-opacity="0"/>
<stop offset="1" stop-color="#DE9254"/>
</linearGradient>
<linearGradient id="paint3_linear_250_6039" x1="255.015" y1="50.2682" x2="247.079" y2="60.9282" gradientUnits="userSpaceOnUse">
<stop stop-color="#DE9254" stop-opacity="0"/>
<stop offset="1" stop-color="#DE9254"/>
</linearGradient>
<linearGradient id="paint4_linear_250_6039" x1="211.867" y1="50.3667" x2="218.727" y2="60.6501" gradientUnits="userSpaceOnUse">
<stop stop-color="white" stop-opacity="0"/>
<stop offset="1" stop-color="white"/>
</linearGradient>
<linearGradient id="paint5_linear_250_6039" x1="211.178" y1="46.5998" x2="221.939" y2="55.3639" gradientUnits="userSpaceOnUse">
<stop stop-color="white" stop-opacity="0"/>
<stop offset="1" stop-color="white"/>
</linearGradient>
<linearGradient id="paint6_linear_250_6039" x1="183.86" y1="47.4935" x2="193.232" y2="50.9983" gradientUnits="userSpaceOnUse">
<stop stop-color="white" stop-opacity="0"/>
<stop offset="1" stop-color="white"/>
</linearGradient>
<linearGradient id="paint7_linear_250_6039" x1="182.987" y1="43.8098" x2="193.632" y2="45.5675" gradientUnits="userSpaceOnUse">
<stop stop-color="white" stop-opacity="0"/>
<stop offset="1" stop-color="white"/>
</linearGradient>
<linearGradient id="paint8_linear_250_6039" x1="285.81" y1="90.6369" x2="310.994" y2="75.932" gradientUnits="userSpaceOnUse">
<stop stop-color="#DE9254" stop-opacity="0"/>
<stop offset="1" stop-color="#DE9254"/>
</linearGradient>
<linearGradient id="paint9_linear_250_6039" x1="302.98" y1="70.0741" x2="269.353" y2="40.5626" gradientUnits="userSpaceOnUse">
<stop stop-color="#DE9254" stop-opacity="0"/>
<stop offset="1" stop-color="#DE9254"/>
</linearGradient>
<linearGradient id="paint10_linear_250_6039" x1="306.391" y1="42.2658" x2="293.861" y2="22.9391" gradientUnits="userSpaceOnUse">
<stop stop-color="#DE9254" stop-opacity="0"/>
<stop offset="1" stop-color="#DE9254"/>
</linearGradient>
</defs>
</svg>
