<svg width="330" height="579" viewBox="0 0 330 579" fill="none" xmlns="http://www.w3.org/2000/svg">
<path d="M231.757 55.7461C231.516 56.3825 230.624 74.2201 222.81 78.652C222.81 78.652 247.899 74.3189 254.069 64.9225C244.448 64.6588 237.724 61.0379 231.757 55.7461Z" fill="#F8F8F8"/>
<path d="M254.069 64.9225L297.921 63.7537C315.453 63.7537 329.798 49.4089 329.798 31.8768C329.798 14.3448 315.453 0 297.921 0H252.877C235.345 0 221 14.3448 221 31.8768C221 49.4089 236.536 64.9225 254.069 64.9225Z" fill="#F8F8F8"/>
<path d="M255.194 44.0749C255.211 44.4416 254.13 44.6747 251.951 44.7754C249.772 44.8755 248.675 44.7425 248.658 44.3758L248.316 36.9334L243.786 37.1416L244.128 44.584C244.145 44.9508 243.064 45.1845 240.885 45.2846C238.706 45.3847 237.609 45.2517 237.592 44.8849L236.606 23.4315C236.585 22.9788 237.664 22.7021 239.843 22.602C242.022 22.5019 243.121 22.6785 243.142 23.1313L243.491 30.7356L248.022 30.5274L247.675 22.9882C247.661 22.6859 248.191 22.4455 249.263 22.2668C249.822 22.1983 250.371 22.1513 250.911 22.1264L252.564 22.115C253.649 22.1949 254.198 22.3857 254.212 22.6879L255.194 44.0749Z" fill="#FF4C24"/>
<path d="M270.485 43.0472C269.162 43.9076 267.433 44.3872 265.298 44.4853C263.162 44.5834 261.327 43.9379 259.794 42.5495C258.26 41.1611 257.433 39.1782 257.315 36.6002C257.197 34.0229 257.808 31.9138 259.148 30.2735C260.488 28.6339 262.237 27.764 264.395 27.6653C266.552 27.5659 268.243 28.0394 269.47 29.0859C270.696 30.1324 271.345 31.4429 271.417 33.0174C271.578 36.5122 269.652 38.3514 265.64 38.5361L263.407 38.6388C263.437 39.2864 263.636 39.7256 264.003 39.9574C264.37 40.1891 264.899 40.2892 265.589 40.257C267.099 40.1878 268.518 39.7767 269.845 39.0237C269.865 39.0016 269.969 39.1473 270.157 39.463C270.717 40.3671 271.012 41.1369 271.041 41.773C271.072 42.4104 270.885 42.8349 270.485 43.0472ZM266.01 33.8819C265.969 32.9757 265.505 32.5432 264.621 32.5841C264.211 32.6029 263.866 32.7433 263.587 33.0046C263.307 33.2666 263.178 33.6347 263.2 34.1089L263.246 35.1117L264.993 35.0311C265.705 34.9989 266.044 34.616 266.01 33.8819Z" fill="#FF4C24"/>
<path d="M279.896 43.2312C279.905 43.4253 278.81 43.573 276.609 43.6738C274.882 43.7316 274.016 43.6852 274.008 43.5341L272.995 21.4983C272.98 21.1746 274.019 20.965 276.112 20.8689C277.948 20.8495 278.87 20.9153 278.877 21.0657L279.896 43.2312Z" fill="#FF4C24"/>
<path d="M288.696 42.8269C288.705 43.021 287.609 43.1688 285.409 43.2695C283.682 43.3273 282.815 43.2809 282.808 43.1298L281.795 21.094C281.78 20.7703 282.819 20.5607 284.912 20.4646C286.748 20.4452 287.67 20.511 287.677 20.6621L288.696 42.8269Z" fill="#FF4C24"/>
<path d="M292.94 40.9776C291.524 39.5509 290.755 37.5223 290.634 34.8899C290.513 32.2582 291.093 30.1672 292.372 28.6169C293.652 27.0667 295.435 26.2385 297.722 26.1337C300.008 26.0289 301.855 26.6898 303.26 28.1165C304.666 29.5432 305.43 31.5731 305.551 34.2048C305.672 36.8372 305.098 38.9275 303.829 40.4772C302.559 42.0268 300.781 42.855 298.495 42.9598C296.209 43.0645 294.357 42.4043 292.94 40.9776ZM297.986 31.5368C296.767 31.5926 296.204 32.6136 296.295 34.5978C296.386 36.5826 297.041 37.5465 298.26 37.4908C299.478 37.435 300.042 36.4147 299.951 34.4298C299.86 32.445 299.205 31.4804 297.986 31.5368Z" fill="#FF4C24"/>
<path d="M307.996 37.335C307.989 37.1839 308.983 37.0623 310.979 36.971C312.974 36.8789 313.974 36.8977 313.98 37.0274L314.195 41.687C314.205 41.9032 313.211 42.0564 311.216 42.1484C309.221 42.2404 308.22 42.221 308.215 42.092L307.996 37.335ZM313.246 35.148C313.252 35.2776 312.483 35.3777 310.941 35.4482C309.398 35.5194 308.625 35.5013 308.62 35.3931L307.239 19.4705C307.231 19.2985 308.214 19.1662 310.188 19.0755C312.162 18.9849 313.152 19.0151 313.159 19.1662L313.246 35.148Z" fill="#FF4C24"/>
<path fill-rule="evenodd" clip-rule="evenodd" d="M203.5 199.059C204.047 201.041 205.281 202.769 205.937 204.721C208.363 211.933 210.248 220.025 210.685 227.644C211.268 237.77 209.399 247.663 211.2 257.795C213.262 269.41 214.553 280.848 215.115 292.609C215.329 297.095 219.062 301.346 219.484 305.681C219.874 309.699 217.484 314.247 216.276 317.973C214.814 322.49 212.981 327.23 211.851 331.836C211.586 332.934 212.138 333.98 211.935 335.026C211.653 336.478 210.638 337.742 210.029 339.059C209.258 340.719 207.462 344.814 205.708 345.928C204.776 346.521 203.438 345.465 202.787 344.918C200.476 342.983 198.945 340.745 197.852 337.945C194.941 330.462 194.077 322.219 192.854 314.351C192.448 311.718 190.839 306.831 191.677 304.198" fill="#CEC7BB"/>
<path fill-rule="evenodd" clip-rule="evenodd" d="M179.409 548.486L198.059 560.962C198.059 560.962 222.125 565.648 223.365 565.668C224.611 565.688 231.317 566.649 232.389 571.719L134.761 571.629L133.216 567.127L134.138 562.456L179.409 548.486Z" fill="#31302C"/>
<path d="M134.272 571.241H232.978V576.197H134.272V571.241Z" fill="#171614"/>
<path fill-rule="evenodd" clip-rule="evenodd" d="M204.047 318.556C205.423 325.359 208.312 328.367 208.567 331.928C208.821 335.494 204.79 368.837 204.79 368.837C204.79 368.837 197.47 401.787 196.18 409.411C194.895 417.036 187.361 452.844 187.361 452.844C187.361 452.844 176.922 507.852 176.798 515.322C176.673 522.793 177.755 538.545 177.755 538.545L181.317 542.171L181.267 548.182C181.267 548.182 181.342 549.641 174.984 552.669C168.631 555.697 148.148 563.407 148.148 563.407C148.148 563.407 132.349 564.642 131.397 564.752C130.445 564.861 128.766 559.522 128.766 559.522L129.808 552.913L127.76 547.415L133.171 535.129C133.171 535.129 129.304 505.934 128.557 498.573C127.805 491.208 135.861 462.402 135.861 462.402L133.34 431.165L128.348 355.888L154.232 309.492C154.232 309.492 202.672 311.753 204.047 318.556Z" fill="#52504A"/>
<path fill-rule="evenodd" clip-rule="evenodd" d="M207.247 347.416C203.073 352.816 198.682 357.93 194.319 363.316C192.926 365.039 188.214 368.334 187.897 370.655C187.841 371.064 190.007 370.94 190.237 370.981C191.372 371.188 192.158 372.176 193.414 371.758C193.63 371.684 195.588 370.613 195.588 371.178C195.602 375.172 193.101 379.827 192.099 383.664C189.63 393.089 186.481 402.358 183.975 411.787C181.29 421.869 178.628 431.478 178.624 442.029C178.624 443.348 178.169 450.599 179.511 451.923C180.407 452.81 185.717 450.094 186.407 449.758C186.853 449.542 187.451 449.331 188.145 449.115C190.103 439.741 195.147 415.523 196.181 409.412C197.468 401.788 204.792 368.835 204.792 368.835C204.792 368.835 206.153 357.558 207.247 347.416Z" fill="#5C5954"/>
<path fill-rule="evenodd" clip-rule="evenodd" d="M186.117 352.31C189.795 350.637 192.769 346.451 195.192 343.386C197.229 340.817 199.964 338.349 201.67 335.556C202.001 335.013 200.139 333.396 199.376 333.745C198.121 334.324 196.585 336.075 195.431 336.934C190.457 340.638 186.278 345.105 181.621 349.181C180.136 350.476 178.577 351.883 177.423 353.5C177.308 353.666 176.38 354.782 176.453 355.012C176.582 355.435 178.049 355.582 178.43 355.66C180.595 356.101 182.775 354.148 184.83 353.358" fill="#5C5954"/>
<path fill-rule="evenodd" clip-rule="evenodd" d="M128.557 359.061L169.27 367.467C172.244 367.193 176.375 365.171 179.1 363.911C179.265 363.837 181.771 362.716 181.885 362.98C182.453 364.26 181.038 367.418 180.739 368.732C180.027 371.905 180.161 375.396 178.617 378.354C177.441 380.6 174.591 381.432 173.814 383.947C168.816 400.038 169.29 417.41 165.328 433.685C164.626 436.559 160.914 451.669 161.96 454.284C163.226 457.461 167.785 458.223 170.859 457.865C171.512 457.79 175.563 456.4 175.981 457.177C177.595 460.165 165.642 459.463 164.461 459.463C162.319 459.463 160.007 458.497 157.865 458.866C157.212 458.98 144.357 468.134 143.938 468.966C143.923 468.995 146.684 468.901 146.863 468.876C148.747 468.612 150.645 468.044 152.488 467.601C158.059 466.256 166.151 466.012 171.073 464.369C173.196 463.662 175.363 463.119 177.471 462.372C177.695 462.292 180.475 461.296 180.475 461.341C180.874 467.716 171.058 468.756 166.858 469.205C165.981 469.294 162.628 469.254 161.995 470.036C161.885 470.161 162.708 470.788 162.742 470.818C163.659 471.54 168.188 473.816 167.745 475.062C167.057 477.019 162.932 477.801 161.407 479.046C159.21 480.844 154.083 489.624 153.027 492.478C150.889 498.285 153.475 506.143 152.862 512.229C151.816 522.643 149.145 533.251 150.062 543.809C150.122 544.487 153.819 544.208 154.262 544.208C157.815 544.208 161.317 543.207 164.671 542.101C165.234 541.912 167.8 540.239 168.268 540.478C168.413 540.557 167.929 541.374 167.875 541.469C167.047 542.888 165.124 544.656 163.455 544.93C158.208 545.792 150.68 545.279 151.263 552.002C151.337 552.844 157.277 552.032 160.281 551.325C166.634 549.821 172.857 547.699 179.265 546.27C179.469 546.225 180.321 545.916 181.287 545.582L181.268 548.182C181.268 548.182 181.342 549.641 174.985 552.669C168.632 555.697 148.149 563.407 148.149 563.407C148.149 563.407 132.349 564.642 131.397 564.751C130.446 564.861 128.766 559.522 128.766 559.522L129.808 552.913L127.76 547.415L133.171 535.129C133.171 535.129 129.305 505.934 128.557 498.573C127.805 491.208 135.862 462.402 135.862 462.402L133.34 431.165L128.557 359.061Z" fill="#43423D"/>
<path fill-rule="evenodd" clip-rule="evenodd" d="M154.685 462.735C155.93 462.402 157.171 462.148 158.417 461.829C159.742 461.49 161.057 461.241 162.393 460.977C162.796 460.898 163.22 460.843 163.633 460.828C163.828 460.823 164.316 460.614 164.221 460.788C163.793 461.59 161.411 462.217 160.629 462.486C157.624 463.512 154.779 465.071 151.825 466.251C150.783 466.67 149.946 467.397 148.77 467.407C148.621 467.407 147.894 467.591 147.819 467.367C147.59 466.65 149.184 466.182 149.528 465.808" fill="#43423D"/>
<path fill-rule="evenodd" clip-rule="evenodd" d="M179.1 456.49C179.908 456.406 180.64 456.435 181.432 456.166C181.93 455.997 183.012 455.25 183.52 455.325C183.829 455.37 183.35 456.306 183.301 456.405C182.842 457.332 182.03 458.487 181.078 458.926C180.226 459.319 179.14 459.105 178.233 459.254C177.939 459.304 177.272 459.493 176.988 459.364C176.499 459.14 177.003 457.397 177.232 457.143" fill="#43423D"/>
<path fill-rule="evenodd" clip-rule="evenodd" d="M195.129 356.257C195.403 356.371 195.797 355.968 195.986 355.814C196.858 355.102 197.596 354.295 198.383 353.498C201.098 350.784 204.287 347.372 205.672 343.707C206.106 342.561 206.305 341.495 206.499 340.3C206.519 340.191 206.684 339.125 206.599 339.075C206.4 338.955 205.881 339.707 205.832 339.832C205.388 340.908 204.87 341.968 204.397 343.039C203.585 344.887 200.834 346.411 199.334 347.517C195.313 350.49 191.317 353.428 187.192 356.257C185.976 357.089 184.691 357.866 183.44 358.648C183.071 358.877 181.93 359.3 181.716 359.718C181.701 359.748 182.394 359.843 182.444 359.853C183.251 360.007 183.615 360.296 184.437 359.878C185.099 359.539 185.797 359.285 186.479 358.981C187.028 358.737 187.571 358.493 188.114 358.229C188.542 358.025 188.971 357.791 189.414 357.617C189.743 357.487 190.077 357.338 190.381 357.163C191.223 356.69 194.96 354.554 194.217 357.024" fill="#43423D"/>
<path fill-rule="evenodd" clip-rule="evenodd" d="M186.275 322.321C186.3 323.686 186.305 325.08 186.185 326.435C186.131 327.092 185.946 327.844 186.006 328.502C186.016 328.646 186.444 328.581 186.519 328.596C186.873 328.656 187.949 328.96 188.134 328.557C188.303 328.193 188.278 327.71 188.338 327.316C188.522 326.012 188.537 324.622 188.467 323.307C188.447 322.899 188.413 322.496 188.383 322.092C188.323 321.26 188.632 320.732 187.735 320.503C187.551 320.459 187.376 320.419 187.192 320.394C186.953 320.364 186.071 320.075 185.936 320.424" fill="#43423D"/>
<path fill-rule="evenodd" clip-rule="evenodd" d="M175.691 319.393C175.691 319.393 172.253 363.334 170.739 367.288C169.219 371.242 125.866 462.989 125.866 462.989C125.866 462.989 124.207 475.983 123.948 482.811C123.689 489.634 124.386 512.593 123.175 522.688C121.965 532.778 122.009 556.888 122.009 556.888L124.281 563.287L121.312 567.57L84.5806 560.165L73.0709 562.705L68.6664 557.933C68.6664 557.933 72.0694 551.828 72.0993 550.214C72.1292 548.6 70.171 514.944 70.1959 505.033C70.2208 495.122 70.6742 469.434 72.0594 465.21C73.4445 460.987 78.8107 455.658 80.4151 452.401C82.0145 449.144 81.9847 444.961 81.9847 444.961L84.3215 441.016L85.617 361.635C83.8233 359.414 98.4371 315.657 98.4371 315.657L174.227 314.91" fill="#52504A"/>
<path fill-rule="evenodd" clip-rule="evenodd" d="M168.61 372.029C162.707 384.85 146.106 420.096 135.412 442.76C132.58 446.289 129.321 449.657 127.004 450.227C123.988 450.967 119.837 449.069 116.982 448.357C114.191 447.658 111.207 447.171 108.509 446.197C108.086 446.045 105.906 445.407 105.985 444.657C108.352 422.044 119.133 401.071 120.568 377.97C120.894 372.745 115.391 366 112.6 361.96C111.327 360.113 108.587 356.621 108.867 354.171C109.028 352.737 112.499 349.626 113.368 348.321C114.508 346.616 115.598 344.034 117.795 343.322C119.069 342.913 120.319 344.466 121.285 345.054C124.806 347.191 128.645 349.171 131.932 351.635C139.261 357.117 147.329 360.678 155.237 365.012C159.222 367.194 163.121 370.085 167.153 372.042L168.61 372.029Z" fill="#5C5954"/>
<path fill-rule="evenodd" clip-rule="evenodd" d="M149.867 329.972C151.467 330.983 152.064 333.354 153.002 334.907C155.328 338.781 157.719 342.632 160.123 346.46C161.452 348.583 162.652 350.642 163.732 352.889C164.054 353.56 163.686 356.253 162.606 355.697C161.861 355.311 161.287 354.529 160.643 354.006C158.027 351.901 155.223 349.861 152.487 347.908C149.94 346.092 147.563 344.043 145.012 342.237C142.814 340.684 140.309 338.919 138.7 336.727C136.897 334.273 137.334 330.813 138.824 328.378C139.849 326.7 142.217 325.85 143.89 326.999" fill="#5C5954"/>
<path fill-rule="evenodd" clip-rule="evenodd" d="M131.441 338.267C134.916 340.794 138.006 343.896 141.408 346.561C143.775 348.418 146.079 350.366 148.327 352.365C150.437 354.24 152.451 356.166 154.354 358.238C154.74 358.656 156.064 359.64 156.06 360.288C156.06 360.435 155.232 359.961 155.191 359.934C154.418 359.456 153.632 359.047 152.901 358.491C151.122 357.149 149.09 356.239 147.233 355.026C145.729 354.047 144.097 353.298 142.603 352.315C138.571 349.677 134.833 346.515 131.041 343.547C130.59 343.198 130.172 342.803 129.721 342.449C128.719 341.663 127.096 340.918 126.434 339.779C125.809 338.694 126.328 336.815 127.611 336.516" fill="#5C5954"/>
<path fill-rule="evenodd" clip-rule="evenodd" d="M174.585 321.061C175.253 321.813 174.565 324.881 174.565 325.847C174.56 331.271 174.002 336.749 173.524 342.157C173.165 346.251 172.896 350.355 172.463 354.444C171.82 360.48 171.401 365.4 167.754 370.236C167.625 370.411 167.689 369.803 167.684 369.584C167.675 369.23 167.759 368.887 167.769 368.528C167.809 367.432 167.934 366.337 167.978 365.241C168.103 362.198 168.467 358.333 167.6 355.395C166.768 352.581 167.361 349.852 167.55 346.924C167.944 340.798 168.566 334.667 169.443 328.596C169.747 326.485 169.777 324.268 169.971 322.137C170.041 321.395 169.792 320.279 170.32 319.672C170.699 319.228 171.835 319.193 172.358 318.949" fill="#43423D"/>
<path fill-rule="evenodd" clip-rule="evenodd" d="M170.275 362.552C170.265 364.529 168.811 366.93 168.153 368.792C168.083 368.982 167.66 370.725 167.221 370.65C165.333 370.326 163.708 368.558 162.144 367.577C156.977 364.33 151.785 361.003 146.987 357.223C144.595 355.341 141.945 353.767 139.658 351.755C139.493 351.61 137.455 350.061 137.495 349.907C137.59 349.578 138.686 350.256 138.781 350.315C140.066 351.107 141.421 351.775 142.697 352.581C146.489 354.987 150.27 357.487 154.017 359.982C155.407 360.904 156.837 362.716 158.522 363.085C158.776 363.14 158.885 362.393 158.925 362.253C159.169 361.322 159.159 361.272 158.452 360.475C156.339 358.09 154.032 355.784 152.174 353.169C151.885 352.761 150.49 351.715 150.51 351.172C150.535 350.584 151.671 350.878 152.184 350.589C152.607 350.35 153.454 349.115 153.933 349.534C157.291 352.457 159.782 356.317 163.604 358.752C164.984 359.634 167.395 355.331 167.899 354.554C167.949 354.479 168.93 352.885 168.95 352.905C169.174 353.104 169.204 353.961 169.274 354.25C169.533 355.311 170.066 357.706 169.568 358.702" fill="#43423D"/>
<path fill-rule="evenodd" clip-rule="evenodd" d="M175.966 360.535C177.222 360.49 178.527 359.539 179.628 358.996C180.391 358.622 181.223 358.388 181.98 358.01C182.523 357.736 184.257 356.929 184.396 356.217C184.406 356.167 181.238 356.685 180.978 356.715C178.338 357.029 174.666 357.029 174.511 360.48" fill="#43423D"/>
<path fill-rule="evenodd" clip-rule="evenodd" d="M166.698 370.475C170.011 370.66 173.883 368.568 176.778 367.243C180.151 365.699 183.624 364.539 186.708 362.452C188.238 361.411 190.086 360.804 191.441 359.534C191.506 359.469 192.612 358.308 192.483 358.189C191.785 357.551 189.294 359.12 188.531 359.339C184.65 360.465 181.107 361.74 177.42 363.334C177.136 363.458 175.243 364.25 174.934 363.857C174.62 363.458 174.356 361.356 173.888 361.257C172.483 360.948 169.408 362.582 168.018 362.91C167.61 363.01 167.331 364.285 167.181 364.609C166.738 365.6 165.936 368.364 164.964 368.667" fill="#43423D"/>
<path fill-rule="evenodd" clip-rule="evenodd" d="M168.751 320.563C169.504 327.66 166.843 334.941 166.554 342.028C166.459 344.454 166.081 346.889 165.792 349.294C165.697 350.106 165.672 350.953 165.493 351.75C165.408 352.113 165.293 353.194 165.214 352.83C164.7 350.49 165.268 347.267 165.268 344.877C165.268 339.264 165.373 333.193 164.81 327.6C164.651 326.022 162.747 320.698 164.601 319.831" fill="#43423D"/>
<path fill-rule="evenodd" clip-rule="evenodd" d="M98.0741 316.439L110.506 317.57C109.225 319.866 99.4792 328.552 99.6685 329.448C100.316 332.501 109.594 337.232 112.135 338.567C112.23 338.617 114.048 339.508 113.998 339.608C112.822 342.023 104.108 336.51 102.055 338.094C98.7468 340.634 96.5893 349.782 95.5679 353.876C94.377 358.652 113.201 375.187 109.275 378.1C98.5225 386.084 95.239 370.022 87.0327 367.293C86.37 367.074 87.6655 368.543 88.0192 369.146C88.5374 370.017 89.1802 370.979 89.7482 371.81C91.7163 374.694 93.9186 377.378 96.1059 380.107C99.3645 384.166 97.7004 390.367 98.5125 395.228C98.9161 397.638 106.156 400.193 107.79 401.911C114.472 408.948 99.8279 439.951 99.2998 448.99C99.235 450.1 112.384 455.872 111.881 457.735C111.856 457.835 111.024 457.994 110.884 457.984C105.752 457.621 101.059 454.543 96.2007 454.314C95.8469 454.299 96.3053 455.688 96.3252 455.748C97.3616 458.686 100.665 463.726 95.3138 462.292C90.8345 461.092 87.1224 457.665 83.1762 455.459C82.7328 455.21 82.0452 454.602 81.806 455.215C79.5738 460.878 85.4782 462.282 89.1902 464.025C102.573 470.295 105.667 468.004 118.288 465.071C118.423 465.041 118.199 465.325 118.159 465.455C117.521 467.382 115.852 471.575 113.52 472.034C111.193 472.492 96.6092 474.628 96.0562 475.306C92.9172 479.15 98.4927 505.73 97.9645 512.105C97.2371 520.855 93.2509 531.384 89.4094 539.183C88.946 540.129 85.1044 547.316 85.8867 548.033C88.7517 550.662 98.1189 550.314 105.224 550.842C110.087 551.2 113.884 551.972 113.804 554.397C113.779 555.135 106.659 558.441 106.061 558.337C103.849 557.968 101.074 552.63 98.8463 552.356C98.5424 552.321 96.9431 552.316 94.3123 552.341C93.804 552.684 93.3307 553.038 93.3058 553.501C93.2958 553.675 94.1528 554.168 94.2774 554.283C95.2539 555.189 95.9863 556.32 96.9878 557.231C100.63 560.558 106.38 561.44 111.188 561.041C113.669 560.832 116.953 559.632 119.439 560.214C119.758 560.289 118.896 560.578 118.592 560.713C118.104 560.927 117.586 561.056 117.072 561.211C115.588 561.654 112.748 561.559 111.522 562.475C111.358 562.595 111.926 562.461 112.13 562.461C112.543 562.451 112.907 562.461 113.316 562.525C114.422 562.7 115.603 562.794 116.729 562.804C118.448 562.819 122.264 561.659 123.824 562.58C123.919 562.635 124.008 562.695 124.093 562.759L124.282 563.287L121.313 567.57L84.5813 560.165L73.0716 562.705L68.6671 557.933C68.6671 557.933 72.0701 551.828 72.1 550.214C72.1299 548.6 70.1718 514.944 70.1967 505.033C70.2216 495.122 70.675 469.434 72.0601 465.211C73.4453 460.987 78.8115 455.658 80.4159 452.401C82.0153 449.144 81.9855 444.961 81.9855 444.961L84.3222 441.016L85.0995 363.025C85.1344 358.996 84.5714 349.394 85.7523 346.725L91.3725 322.207L98.0741 316.439Z" fill="#43423D"/>
<path fill-rule="evenodd" clip-rule="evenodd" d="M121.82 321.37C122.044 321.689 121.925 322.441 121.96 322.814C122.044 323.8 122.039 324.801 122.039 325.797C122.039 326.724 122.084 327.65 122.084 328.576C122.084 329.493 122.493 331.525 121.546 331.948C121.352 332.038 120.839 332.391 120.604 332.242C120.4 332.112 120.4 331.48 120.375 331.276C120.276 330.539 120.081 329.826 119.892 329.109C119.438 327.406 118.821 325.703 118.97 323.915C119.03 323.222 119.443 322.55 119.683 321.908C119.947 321.196 120.096 320.254 120.784 319.826" fill="#43423D"/>
<path fill-rule="evenodd" clip-rule="evenodd" d="M126.186 574.324C126.148 573.298 125.253 569.358 125.07 568.781C124.197 566.032 123.546 564.836 123.546 564.836C123.546 564.836 117.964 564.368 115.432 564.368C112.178 564.363 108.638 564.503 105.271 564.303C102.124 562.311 98.4123 560.488 94.9104 559.577C88.9355 558.018 83.1922 558.541 77.088 558.93C72.4439 559.223 67.2287 559.582 64.0392 563.153C62.1643 565.255 62.1267 572.496 61.8358 575.295L126.186 574.324Z" fill="#31302C"/>
<path d="M60.8438 574.156H127.481V578.714H60.8438V574.156Z" fill="#171614"/>
<path fill-rule="evenodd" clip-rule="evenodd" d="M93.3197 312.286L199.901 309.412L205.691 304.796C205.691 304.796 207.525 305.488 208.142 305.373C208.76 305.259 209.124 301.892 209.124 301.892C209.124 301.892 205.741 298.361 205.796 298.281C205.851 298.202 202.527 276.343 202.781 273.37C203.035 270.402 204.301 238.204 205.661 230.794C207.973 218.149 204.68 199.891 204.68 199.891C204.68 199.891 177.923 184.771 171.451 181.598C164.974 178.426 149.692 175.013 149.692 175.013L109.254 172.486C109.254 172.486 89.1891 187.017 87.525 187.769C85.8558 188.516 84.102 190.443 84.102 190.443C84.102 190.443 83.2301 189.293 81.4613 189.766C79.6924 190.244 75.7912 193.641 75.7912 193.641L60.7787 201.833C60.7787 201.833 62.8166 227.422 73.1454 244.22C83.4792 261.019 89.7074 274.097 90.6989 276.841C91.3317 278.594 91.5509 289.79 91.7601 299.666C91.4114 300.099 91.0776 300.547 90.7238 300.971C89.8419 302.027 88.2873 305.831 88.2873 305.831C88.2873 305.831 88.2674 310.259 88.5215 310.473C88.8802 310.767 90.0461 310.324 90.3949 310.179C90.5045 310.134 90.9331 309.766 91.0477 309.856C91.4463 310.169 91.7702 310.628 92.099 311.066C92.114 311.868 92.1189 312.321 92.1189 312.321L93.2549 312.291C93.2798 312.296 93.2948 312.301 93.3048 312.296C93.3098 312.291 93.3148 312.291 93.3197 312.286Z" fill="#EDE8E0"/>
<path fill-rule="evenodd" clip-rule="evenodd" d="M68.6412 235.241C69.9317 238.373 71.4265 241.416 73.1454 244.22C83.4792 261.019 89.7074 274.097 90.6989 276.841C91.3317 278.594 91.5509 289.79 91.7601 299.666C91.4114 300.099 91.0776 300.547 90.7239 300.971C89.8419 302.026 88.2873 305.831 88.2873 305.831C88.2873 305.831 88.2674 310.259 88.5215 310.473C88.8802 310.767 90.0462 310.324 90.3949 310.179C90.5046 310.134 90.9331 309.766 91.0477 309.855C91.4463 310.169 91.7702 310.627 92.0991 311.066C92.114 311.867 92.1189 312.321 92.1189 312.321L93.2549 312.291C93.2798 312.296 93.2948 312.301 93.3048 312.296C93.3098 312.291 93.3148 312.291 93.3197 312.286L199.901 309.412L205.691 304.795C205.691 304.795 207.525 305.488 208.142 305.373C208.76 305.259 209.124 301.892 209.124 301.892C209.124 301.892 205.741 298.361 205.796 298.281C205.821 298.246 205.193 294.023 204.505 289.043C202.168 287.459 199.528 286.294 196.433 285.771C192.936 285.178 187.978 288.072 184.675 288.749C174.979 290.721 165.427 292.653 155.577 293.54C151.361 293.918 145.442 295.139 141.381 293.037C138.467 291.528 135.602 289.899 132.856 288.102C132.732 288.017 130.37 286.941 130.345 286.851C130.315 286.737 130.988 286.677 133.599 287.006C135.666 287.27 138.506 287.26 140.549 286.767C140.778 286.707 142.677 285.96 142.303 285.621C141.451 284.849 133.798 284.341 132.213 283.998C122.841 281.986 106.553 282.673 98.8802 276.408C98.3172 275.955 96.2595 270.994 96.4588 270.347C96.7179 269.51 100.41 269.859 99.2092 267.882C98.7109 267.07 96.7826 267.354 96.0202 267.065C94.7547 266.587 93.1304 265.362 92.4777 264.131C90.2505 259.948 87.7044 256.776 85.801 252.448C84.944 250.505 83.6785 237.372 82.6123 235.545C81.6058 233.821 81.5261 242.129 80.7239 240.301C79.3537 237.203 76.7577 230.295 74.2116 228.179L68.6412 235.241Z" fill="#CEC7BB"/>
<path fill-rule="evenodd" clip-rule="evenodd" d="M107.58 268.509C111.776 269.595 115.996 271.169 120.296 271.766C125.627 272.508 132.777 273.071 137.521 275.691C139.708 276.896 143.111 277.469 145.522 277.972C146.464 278.166 147.381 278.47 148.313 278.729C148.786 278.863 150.092 278.764 149.748 279.122C147.63 281.304 141.811 280.507 139.319 279.939C130.874 278.022 122.294 276.473 113.928 274.247C110.814 273.42 106.365 273.29 104.372 270.551" fill="#CEC7BB"/>
<path fill-rule="evenodd" clip-rule="evenodd" d="M98.4223 215.399C106.633 222.501 116.509 228.408 125.747 234.095C131.257 237.492 136.384 241.466 141.845 244.917C147.545 248.518 153.141 252.473 158.432 256.641C160.674 258.409 163.704 260.317 163.664 260.421C163.325 261.347 158.631 258.872 158.183 258.658C152.433 255.914 146.778 253 141.003 250.306C134.65 247.338 128.686 243.648 122.568 240.286C109.513 233.124 95.6819 225.106 92.9415 208.88" fill="#CEC7BB"/>
<path fill-rule="evenodd" clip-rule="evenodd" d="M189.962 237.253C186.688 241.172 181.681 244.464 177.067 246.511C176.31 246.85 174.093 248.668 173.216 248.384C168.676 246.92 164.75 242.637 160.032 241.815C159.728 241.76 160.435 242.288 160.63 242.532C161.088 243.11 161.586 243.628 162.144 244.111C163.619 245.391 164.895 246.994 166.061 248.553C168.711 252.104 171.95 255.421 174.416 259.077C175.059 260.028 176.394 262.473 177.58 262.901C178.527 263.245 179.842 262 180.54 261.492C182.961 259.744 185.263 257.946 187.396 255.819C187.74 255.471 189.947 253.578 189.728 252.956" fill="#CEC7BB"/>
<path fill-rule="evenodd" clip-rule="evenodd" d="M148.965 237.711C144.396 238.114 139.085 234.489 135.079 232.751C132.428 231.6 129.762 230.47 127.122 229.284C124.974 228.323 122.916 227.038 120.709 226.202C119.459 225.723 117.256 225.28 116.21 224.409C115.966 224.204 116.873 224.433 117.167 224.558C117.959 224.892 118.616 225.265 119.354 225.703C121.372 226.904 123.335 228.164 125.383 229.304C131.501 232.716 137.376 236.521 143.484 239.947C145.712 241.197 148.008 242.278 150.161 243.667C150.295 243.757 152.378 244.743 152.358 244.833" fill="#CEC7BB"/>
<path fill-rule="evenodd" clip-rule="evenodd" d="M106.454 171.03C110.858 174.215 114.386 179.736 118.322 183.526C126.509 191.409 134.765 199.298 143.335 206.764C146.509 209.528 149.374 212.615 152.453 215.484C153.609 216.56 155.442 218.492 157.032 219.01C157.211 219.065 156.464 216.565 156.459 216.535C155.97 214.861 155.472 213.118 155.148 211.41C154.55 208.307 153.938 205.17 153.474 202.047C153.275 200.717 153.255 199.059 152.283 198.028C147.181 192.605 140.061 188.735 134.112 184.372C129.722 181.149 125.328 177.96 120.774 174.987C119.199 173.961 117.386 172.217 115.657 171.489" fill="#CEC7BB"/>
<path fill-rule="evenodd" clip-rule="evenodd" d="M161.552 177.333C163.365 181.945 163.236 187.211 164.277 192.052C164.327 192.281 164.785 196.659 164.701 196.664C163.744 196.763 161.058 191.783 160.141 192.889C157.107 196.554 153.908 200.075 150.769 203.666C149.833 204.732 148.612 207.63 147.057 208.039C146.574 208.163 147.072 207.038 147.122 206.545C147.197 205.688 147.296 204.836 147.371 203.98C147.6 201.494 148.293 198.87 148.756 196.405C150.251 188.526 152.294 181.199 155.617 173.933" fill="#CEC7BB"/>
<path fill-rule="evenodd" clip-rule="evenodd" d="M105.148 224.683C101.85 223.597 98.4071 220.39 95.4724 218.552C92.3981 216.63 88.8854 215.693 85.8261 213.91C85.7015 213.836 85.8162 214.199 85.856 214.344C86.0055 214.936 86.7728 215.743 87.1814 216.186C88.4469 217.551 89.8321 218.781 91.0279 220.22C92.418 221.904 93.6587 223.712 95.1933 225.28C97.286 227.427 99.9865 229.862 101.631 232.382" fill="#CEC7BB"/>
<path fill-rule="evenodd" clip-rule="evenodd" d="M83.4101 190.229C84.8301 192.002 85.1789 194.542 85.8117 196.649C87.142 201.066 88.6467 205.558 90.2461 209.891C94.0777 220.28 95.7718 231.237 98.1784 242.009C100.919 254.29 103.769 267.055 104.74 279.63C105.403 288.241 106.345 296.787 107.411 305.358C107.436 305.553 108.427 313.411 108.572 313.486C112.558 315.508 112.209 307.55 112.065 306.1C111.018 295.428 111.268 284.665 110.017 273.978C107.685 254.101 102.409 233.493 96.0858 214.473C94.7505 210.454 93.2058 206.544 91.7858 202.57C91.1131 200.693 90.4504 197.54 88.7863 196.23" fill="#CEC7BB"/>
<path fill-rule="evenodd" clip-rule="evenodd" d="M143.001 194.402C142.085 197.52 142.563 201.903 142.563 205.12C142.563 210.817 142.239 216.704 141.681 222.372C140.356 235.873 137.844 249.31 136.768 262.822C136.4 267.433 134.387 273.26 135.129 277.842C135.468 279.939 138.467 282.802 139.553 284.451C142.972 289.63 146.554 295.094 150.41 299.92C150.63 300.189 155.164 307.833 156.489 305.269C157.331 303.635 156.883 301.324 156.997 299.556C157.326 294.337 157.311 289.307 157.027 284.087C156.31 271.134 156.858 257.662 154.955 244.828C153.335 233.881 151.447 223.109 149.314 212.252C148.258 206.873 146.225 200.802 146.14 195.304" fill="#CEC7BB"/>
<path fill-rule="evenodd" clip-rule="evenodd" d="M182.154 188.162C182.029 193.84 182.652 199.358 183.105 205.006C183.918 215.126 184.969 225.594 184.969 235.759C184.969 246.058 184.117 256.582 183.23 266.846C182.777 272.15 182.587 277.459 182.024 282.753C181.381 288.759 180.574 294.736 180.066 300.747C179.966 301.922 178.681 305.388 179.169 306.439C179.393 306.932 181.496 306.673 181.845 306.693C182.209 306.718 184.436 307.739 184.685 307.525C185.975 306.404 185.567 302.569 185.706 301.046C186.284 294.79 187.505 288.605 187.933 282.305C189.508 259.346 189.633 235.102 186.952 212.257C186.409 207.61 186.304 202.954 186.304 198.277C186.304 196.166 186.708 192.356 185.562 190.359" fill="#CEC7BB"/>
<path fill-rule="evenodd" clip-rule="evenodd" d="M119.443 304.472C118.9 296.04 112.667 242.577 108.168 226.834C103.664 211.086 89.7824 185.413 89.7824 185.413L83.046 189.178C83.046 189.178 97.4106 226.899 98.9751 234.315C100.545 241.73 111.247 306.832 111.247 306.832C111.247 306.832 119.987 312.903 119.443 304.472Z" fill="#52504A"/>
<path fill-rule="evenodd" clip-rule="evenodd" d="M83.5943 188.874C83.9779 189.806 84.3516 190.747 84.7851 191.609C86.9774 195.946 88.6067 200.354 90.2509 204.916C93.634 214.304 97.4108 223.562 101.237 232.776C101.736 233.971 106.424 232.248 107.202 232.138C107.919 232.034 108.681 232.004 109.429 231.989C108.995 230.002 108.577 228.263 108.168 226.834C103.664 211.086 89.7826 185.413 89.7826 185.413L83.5943 188.874Z" fill="#6C6961"/>
<path fill-rule="evenodd" clip-rule="evenodd" d="M191.745 305.861C191.745 305.861 193.967 253.628 193.424 232.91C192.881 212.187 189.807 190.443 189.807 190.443L182.169 186.653C182.169 186.653 186.364 222.984 186.135 241.162C185.906 259.345 184.795 306.469 184.795 306.469L191.745 305.861Z" fill="#52504A"/>
<path fill-rule="evenodd" clip-rule="evenodd" d="M182.831 186.982C184.256 194.502 185.577 207.013 186.658 219.772C186.972 223.448 187.146 227.133 187.51 230.798C187.555 231.252 187.43 233.523 187.854 233.817C188.765 234.444 190.579 234.105 191.591 234.215C192.213 234.285 192.836 234.354 193.459 234.424C193.449 233.906 193.434 233.398 193.424 232.91C192.881 212.187 189.807 190.443 189.807 190.443L182.831 186.982Z" fill="#6C6961"/>
<path fill-rule="evenodd" clip-rule="evenodd" d="M174.192 303.351L176.195 302.181C176.195 302.181 202.817 303.675 204.296 304.024C205.776 304.372 206.13 304.84 206.13 304.84L205.821 322.49C205.821 322.49 194.78 321.758 192.567 321.614C190.355 321.47 173.499 320.812 173.499 320.812L174.192 303.351Z" fill="#5C5953"/>
<path fill-rule="evenodd" clip-rule="evenodd" d="M173.859 311.798L173.5 320.812C173.5 320.812 190.356 321.469 192.568 321.614C194.78 321.758 205.822 322.49 205.822 322.49L205.996 312.53C205.877 313.127 205.767 313.725 205.682 314.323C205.632 314.671 205.373 318.895 205.054 319.179C204.646 319.537 203.649 319.358 203.171 319.358C201.392 319.358 188.522 318.949 183.575 318.571C181.781 318.431 179.932 318.407 178.169 318.053C176.808 317.784 175.089 312.938 174.138 312.067C174.083 312.017 173.983 311.917 173.859 311.798Z" fill="#3F3D39"/>
<path fill-rule="evenodd" clip-rule="evenodd" d="M188.751 303.087C188.198 303.052 187.67 302.783 187.107 302.769C187.067 302.764 186.624 302.729 186.599 302.769C186.479 302.993 186.609 303.466 186.624 303.7C186.678 304.522 186.718 305.333 186.718 306.16C186.718 308.969 186.673 311.753 186.404 314.552C186.275 315.907 186.135 317.271 186.061 318.631C186.046 318.959 186.051 319.288 186.021 319.612C186.016 319.642 185.986 319.871 186.016 319.891C186.145 319.985 186.434 319.911 186.584 319.911C186.987 319.906 187.396 319.98 187.794 320.06C188.148 320.135 188.507 320.229 188.866 320.309C189.115 320.364 189.364 320.414 189.618 320.449C189.758 320.468 189.887 320.483 190.027 320.498C190.774 320.573 190.644 320.244 190.644 319.497C190.644 319.288 190.644 319.074 190.644 318.86C190.644 318.526 190.664 318.187 190.644 317.859C190.605 317.226 190.595 316.594 190.575 315.966C190.535 314.547 190.53 313.118 190.46 311.703C190.365 309.716 190.131 307.739 189.852 305.772C189.792 305.343 189.802 304.302 189.469 303.984" fill="#3F3D39"/>
<path fill-rule="evenodd" clip-rule="evenodd" d="M174.989 302.25C172.423 302.056 143.141 301.668 135.174 301.862C127.202 302.056 96.3845 306.265 96.1603 306.509C95.9361 306.748 90.9187 309.89 90.9187 309.89L91.0332 323.661L93.7189 324.975C93.7189 324.975 110.909 322.729 128.233 321.136C145.557 319.542 175.602 321.534 175.602 321.534L177.456 318.8C177.456 318.8 177.555 302.44 174.989 302.25Z" fill="#5C5953"/>
<path fill-rule="evenodd" clip-rule="evenodd" d="M177.037 308.849C176.967 310.647 176.738 312.44 176.3 314.208C176.135 314.866 175.946 317.022 175.423 317.485C175.034 317.829 174.048 317.804 173.564 317.879C171.581 318.183 169.678 318.461 167.665 318.566C161.721 318.865 155.792 318.775 149.837 318.935C136.25 319.303 122.673 320.02 109.085 320.349C103.181 320.488 97.3812 321.44 91.5665 322.351C91.3822 322.381 91.2028 322.411 91.0234 322.436L91.0334 323.661L93.719 324.976C93.719 324.976 110.909 322.73 128.233 321.136C145.557 319.542 175.602 321.534 175.602 321.534L177.456 318.8C177.456 318.8 177.485 313.466 177.037 308.849Z" fill="#3F3D39"/>
<path fill-rule="evenodd" clip-rule="evenodd" d="M120.635 303.326C120.77 303.207 121.049 303.237 121.213 303.212C121.353 303.192 121.612 303.102 121.751 303.167C121.881 303.232 121.801 303.685 121.801 303.779C121.776 304.482 121.771 305.194 121.766 305.901C121.761 306.2 121.766 306.499 121.766 306.803C121.766 307.888 121.622 308.969 121.617 310.06C121.592 312.405 121.661 314.756 121.661 317.102C121.661 318.023 121.701 318.94 121.711 319.856C121.716 320.08 121.716 320.309 121.731 320.528C121.736 320.588 121.786 320.787 121.746 320.847C121.726 320.877 121.512 320.827 121.482 320.827C121.193 320.822 120.899 320.842 120.61 320.842C120.226 320.842 119.843 320.842 119.459 320.842C119.404 320.842 119.115 320.882 119.08 320.832C118.961 320.668 119.09 320.105 119.09 319.911C119.09 319.682 119.09 319.452 119.09 319.223C119.09 318.8 119.11 318.377 119.11 317.953C119.11 314.607 119.305 311.25 119.589 307.918C119.673 306.932 119.823 305.961 119.952 304.98C120.022 304.472 120.077 303.894 120.346 303.441" fill="#3F3D39"/>
<path fill-rule="evenodd" clip-rule="evenodd" d="M175.393 303.536C175.767 304.203 175.742 305.015 175.936 305.737C176.136 306.494 176.45 307.326 176.514 308.108C176.639 309.522 176.275 310.941 176.161 312.346C176.081 313.282 175.921 314.228 175.757 315.155C175.702 315.458 175.667 315.772 175.588 316.071C175.558 316.205 175.533 316.609 175.488 316.479C175.373 316.166 175.473 315.658 175.473 315.324C175.473 314.428 175.533 313.506 175.473 312.615C175.324 310.304 175.109 308.023 174.805 305.737C174.706 304.975 174.561 304.198 174.556 303.431C174.556 303.102 174.462 302.759 174.895 302.724" fill="#3F3D39"/>
<path fill-rule="evenodd" clip-rule="evenodd" d="M172.224 311.977C172.314 313.033 172.304 314.233 171.806 315.195C170.485 317.749 166.684 318.417 164.247 317.221C163.754 316.977 162.428 316.459 162.135 315.946C162.09 315.867 162.304 316.016 162.394 316.046C162.538 316.086 162.688 316.121 162.832 316.151C163.261 316.235 163.689 316.315 164.118 316.39C165.264 316.599 167.027 316.699 168.064 316.111C168.223 316.016 168.971 315.717 169.025 315.513C169.035 315.473 168.268 315.404 168.218 315.394C167.7 315.314 167.052 315.155 166.619 314.846C165.707 314.198 165.423 312.714 165.254 311.698C165.069 310.618 164.83 308.247 165.901 307.445C166.26 307.176 166.878 307.151 167.301 307.131C167.64 307.111 167.994 307.102 168.323 307.176C168.796 307.291 169.274 307.43 169.688 307.699" fill="#3F3D39"/>
<path d="M169.125 316.519C167.321 316.519 165.859 314.3 165.859 311.564C165.859 308.827 167.321 306.609 169.125 306.609C170.928 306.609 172.39 308.827 172.39 311.564C172.39 314.3 170.928 316.519 169.125 316.519Z" fill="#EDE8E0"/>
<path fill-rule="evenodd" clip-rule="evenodd" d="M122.229 303.027L121.312 302.101C121.312 302.101 114.899 302.524 114.381 302.808C114.381 302.808 114.854 330.957 114.954 332.326L120.699 332.386C120.699 332.386 120.589 308.072 120.604 306.514C120.619 304.955 120.888 303.222 120.888 303.222L122.229 303.027Z" fill="#67645D"/>
<path fill-rule="evenodd" clip-rule="evenodd" d="M186.441 302.685L187.319 301.846C187.319 301.846 193.46 302.227 193.951 302.487C193.951 302.487 193.97 308.757 193.851 315.273C193.727 321.897 193.398 327.979 193.35 328.602L187.848 328.656C188.072 328.732 188.353 307.686 188.01 306.167C187.7 304.795 187.729 302.859 187.729 302.859L186.441 302.685Z" fill="#67645D"/>
<path fill-rule="evenodd" clip-rule="evenodd" d="M151.178 176.928C151.412 177.25 151.781 177.42 152.055 177.709C152.404 178.075 152.702 178.6 152.862 179.077C153.216 180.153 152.812 180.99 152.324 181.933C151.517 183.486 150.44 184.761 149.524 186.225C149.04 186.992 148.971 187.649 148.816 188.536C148.781 188.735 148.696 189.313 148.393 189.313C148.243 189.313 148.049 189.143 147.904 189.089C147.162 188.815 146.395 188.137 145.851 187.575C144.71 186.399 143.724 185.104 142.683 183.829C141.955 182.938 141.163 182.092 140.56 181.104C140.117 180.374 139.723 179.615 139.284 178.884C139.175 178.701 138.796 178.301 138.956 178.045C139.07 177.859 139.479 177.751 139.668 177.706C140.326 177.55 140.969 177.527 141.631 177.42C143.365 177.142 145.169 177.12 146.888 176.782C147.83 176.597 148.806 176.237 149.773 176.215" fill="#DE9254"/>
<path fill-rule="evenodd" clip-rule="evenodd" d="M147.839 189.123L148.676 186.11L154.272 176.299L161.701 176.551L163.38 193.775L155.782 180.006L155.238 182.784L149.643 186.379L148.906 190.428L147.839 189.123Z" fill="#EDE8E0"/>
<path fill-rule="evenodd" clip-rule="evenodd" d="M149.18 190.548L138.402 175.707L107.844 159.348L105.199 170.286L132.747 194.383L132.608 177.822L137.491 179.487L137.919 182.928L149.18 190.548Z" fill="#EDE8E0"/>
<path fill-rule="evenodd" clip-rule="evenodd" d="M154.556 195.01C154.556 195.01 168.119 229.269 173.131 248.852C178.138 268.429 180.685 278.993 181.233 280.78C181.781 282.568 165.468 312.007 165.468 312.007C165.468 312.007 143.574 283.136 142.234 280.89C140.889 278.649 139.205 275.945 139.205 275.945C139.205 275.945 144.551 198.342 144.402 195.384L154.556 195.01Z" fill="#52504A"/>
<path fill-rule="evenodd" clip-rule="evenodd" d="M150.949 195.14L153.211 196.091C153.455 196.41 150.6 201.489 149.912 201.659C149.005 201.883 147.341 197.64 147.202 200.638C147.187 200.947 147.192 201.255 147.192 201.564C147.187 202.007 147.187 202.451 147.187 202.894C147.187 203.502 147.127 204.149 147.187 204.752C148.786 220.634 146.016 236.65 147.027 252.527C147.291 256.656 147.321 260.864 147.321 265.003C147.321 266.378 146.888 269.296 147.506 270.586C147.994 271.612 150.072 272.708 150.939 273.37C154.701 276.264 158.124 279.575 162.105 282.24C162.907 282.778 165.328 285.851 166.31 285.607C168.069 285.168 172.643 280.806 174.187 279.615C174.695 279.222 175.961 277.783 176.684 277.837C176.853 277.852 176.414 279.082 176.35 279.217C176.111 279.72 173.804 283.316 174.815 283.375C176.748 283.49 179.115 281.393 180.964 279.819C181.078 280.253 181.168 280.576 181.233 280.781C181.781 282.569 165.468 312.007 165.468 312.007C165.468 312.007 143.574 283.136 142.234 280.89C140.889 278.649 139.205 275.945 139.205 275.945C139.205 275.945 144.551 198.342 144.402 195.384L150.949 195.14Z" fill="#42413C"/>
<path fill-rule="evenodd" clip-rule="evenodd" d="M155.271 195.343C155.271 195.343 152.575 197.624 150.896 197.763C148.983 197.918 143.786 196.284 143.786 196.284L144.553 189.277L151.379 187.773L155.271 195.343Z" fill="#6C6961"/>
<path fill-rule="evenodd" clip-rule="evenodd" d="M155.159 195.125C154.322 195.588 153.37 196.001 152.513 196.36C152.473 196.375 151.651 196.768 151.611 196.723C151.372 196.459 151.302 195.961 151.138 195.648C150.43 194.278 149.872 192.839 149.175 191.464C148.931 190.976 148.692 190.483 148.418 190.01C148.378 189.935 148.263 189.602 148.183 189.572C148.099 189.537 148.408 190.553 148.433 190.632C148.657 191.33 148.791 192.037 148.996 192.739C149.03 192.849 149.2 193.257 149.12 193.387C149.095 193.426 148.771 193.382 148.726 193.382C148.094 193.382 148.084 193.232 148.009 192.595C147.909 191.763 147.645 190.981 147.635 190.129C147.63 189.846 147.725 189.313 147.406 189.193C147.192 189.118 147.062 190.373 147.047 190.578C147.047 190.662 147.062 190.941 146.978 190.991C146.833 191.076 146.499 190.971 146.34 190.951C145.727 190.876 145.104 190.876 144.491 190.802C144.466 190.802 144.432 190.792 144.392 190.787L143.789 196.285C143.789 196.285 148.986 197.919 150.899 197.759C152.573 197.625 155.269 195.344 155.269 195.344L155.159 195.125Z" fill="#42413C"/>
<path fill-rule="evenodd" clip-rule="evenodd" d="M152.573 184.641L155.134 182.818L155.722 180.134L160.396 188.531L154.651 194.243L151.387 187.794L152.573 184.641Z" fill="#52504A"/>
<path fill-rule="evenodd" clip-rule="evenodd" d="M159.568 189.353C158.492 188.366 157.421 187.36 156.385 186.334C156.235 186.18 155.024 184.93 154.805 185.055C154.416 185.269 154.098 186.145 153.913 186.514C153.375 187.565 152.852 188.64 152.364 189.726L151.387 187.794L152.573 184.641L155.134 182.818L155.722 180.134L160.396 188.531L159.568 189.353Z" fill="#42413C"/>
<path fill-rule="evenodd" clip-rule="evenodd" d="M144.631 189.258L140.201 184.462L137.974 183.028L137.665 181.88L134.362 178.438L132.683 177.873L132.728 191.444L143.839 195.08L144.631 189.258Z" fill="#52504A"/>
<path fill-rule="evenodd" clip-rule="evenodd" d="M132.728 191.444L136.28 192.605C136.499 191.554 136.679 190.498 136.873 189.422C136.953 188.979 136.888 187.719 137.272 187.405C137.366 187.325 137.84 187.54 137.934 187.575C138.712 187.853 139.454 188.292 140.191 188.665C141.606 189.387 143.021 190.134 144.402 190.936L144.631 189.258L140.201 184.462L137.974 183.028L137.665 181.88L134.362 178.438L132.683 177.873L132.728 191.444Z" fill="#42413C"/>
<path fill-rule="evenodd" clip-rule="evenodd" d="M181.23 93.114C181.838 93.5668 182.381 94.1425 182.89 94.7587C184.52 96.4918 185.982 98.4012 187.173 100.353C187.474 100.846 187.8 101.426 188.072 102.043C189.672 104.951 190.211 107.487 189.257 111.039C188.413 114.17 185.306 116.54 181.917 118.078C180.558 118.692 176.374 119.295 176.251 117.261C176.246 117.221 178.908 118.113 181.927 116.42C184.683 114.874 187.805 111.535 187.968 108.181C187.988 107.851 187.968 107.527 187.924 107.208C186.175 110.743 182.04 113.268 178.212 113.612C177.268 113.697 176.32 113.756 175.371 113.795C175.199 113.802 174.443 113.912 174.309 113.796C174.038 113.561 174.146 112.754 174.092 112.442C173.87 111.2 173.499 109.981 173.287 108.736C172.447 103.848 171.864 98.6274 171.849 93.6641C171.839 91.569 172.042 87.7542 175.065 88.7452L178.681 90.9977C179.555 91.644 180.41 92.3546 181.23 93.114Z" fill="#5E3C2A"/>
<path fill-rule="evenodd" clip-rule="evenodd" d="M174.587 89.5125C175.51 91.6228 175.881 93.9193 176.656 96.0687C178.069 99.9921 180.376 104.966 179.645 109.299C179.111 112.468 177.259 116.183 177.827 119.421C178.864 125.319 180.09 131.41 180.243 137.417C180.327 140.662 179.847 143.851 179.818 147.019C179.813 148.006 180.223 148.894 180.248 149.875C180.337 153.726 179.487 158.685 177.476 161.835C169.745 173.964 154.501 174.266 141.82 173.078C133.753 172.323 125.82 169.181 119.971 163.566C116.246 159.99 116.726 155.271 115.792 150.651C114.537 144.436 112.887 138.275 111.302 132.135C108.847 122.619 107.636 112.869 106.268 103.154C105.922 100.669 105.354 98.2536 104.89 95.8001C104.722 94.9222 104.045 93.4764 104.302 92.597C105.517 88.4543 109.978 84.3047 113.288 81.9682C119.635 77.4839 127.178 74.9336 135.067 75.2121C138.723 75.3409 142.378 76.0544 145.975 76.6539C151.023 77.4938 156.136 78.4284 160.957 80.1749C164.751 81.5495 168.002 83.689 171.529 85.5974" fill="#F6BC8B"/>
<path fill-rule="evenodd" clip-rule="evenodd" d="M177.318 97.8496C174.646 98.0787 171.736 97.4175 169.415 96.7031C162.593 94.6016 156.526 91.1714 150.109 88.1037C142.868 84.6419 134.796 81.1263 126.566 81.7153C123.982 81.9 121.369 81.9909 118.86 82.6891C118.134 82.891 117.388 83.1438 116.716 83.4934C116.652 83.526 115.516 84.24 115.496 84.2247C114.705 83.6272 114.863 82.0304 115.264 80.6592C121.177 76.9935 127.984 74.9616 135.068 75.212C138.723 75.3409 142.379 76.0543 145.975 76.6538C151.023 77.4937 156.136 78.4284 160.957 80.1748C164.751 81.5494 168.002 83.6889 171.529 85.5973L174.587 89.5124C175.51 91.6227 175.881 93.9192 176.656 96.0686C176.859 96.6419 177.086 97.2373 177.318 97.8496Z" fill="url(#paint0_linear_561_1261)"/>
<path fill-rule="evenodd" clip-rule="evenodd" d="M116.257 80.0632C116.38 80.3081 116.509 80.5476 116.652 80.7782C119.838 85.8645 122.866 91.1354 126.186 96.1288C127.86 98.646 130.943 103.225 130.37 106.544C130.212 107.491 128.962 108.582 128.557 109.475C127.035 112.825 124.368 116.404 124.911 120.258C125.351 123.419 128.058 126.382 130.508 128.13C131.961 129.162 134.099 129.661 134.584 131.62C135.379 134.85 134.277 137.479 133.833 140.601C133.63 142.046 133.186 143.805 134.02 145.159C136.471 149.129 141.964 149.839 146.271 149.319C147.343 149.19 148.563 148.745 149.635 148.786C149.937 148.798 149.206 149.214 148.959 149.386C148.499 149.7 147.951 149.867 147.437 150.062C145.851 150.665 144.286 150.911 142.888 151.957C141.159 153.253 144.468 155.857 145.234 156.46C148.746 159.227 153.424 158.311 157.539 158.31C158.626 158.31 162.341 157.657 161.061 159.868C158.715 163.924 153.4 165.372 149.176 166.444C144.705 167.579 138.866 168.629 134.277 167.692C127.46 166.3 122.254 161.485 117.872 156.443C117.333 155.825 116.835 155.174 116.36 154.494C116.202 153.223 116.049 151.934 115.792 150.651C114.538 144.436 112.888 138.275 111.302 132.135C108.847 122.619 107.637 112.868 106.268 103.154C105.922 100.669 105.354 98.2535 104.89 95.8C104.722 94.9221 104.045 93.4763 104.302 92.5969C105.517 88.4543 109.978 84.3047 113.288 81.9682C114.251 81.2873 115.244 80.6513 116.257 80.0632Z" fill="url(#paint1_linear_561_1261)"/>
<path fill-rule="evenodd" clip-rule="evenodd" d="M155.691 110.131C156.082 111.019 155.355 112.151 155.844 112.978C156.269 113.693 157.909 113.464 157.46 114.572C157.287 115.006 156.017 115.236 155.617 115.348C154.921 115.543 153.424 116.526 152.673 116.055C152.372 115.866 152.268 115.119 152.095 114.823C151.759 114.243 151.077 113.672 150.524 113.304C150.09 113.017 148.277 112.049 148.143 111.464C148.059 111.081 149.047 111.135 149.215 111.155C150.524 111.308 151.809 112.042 153.167 111.749C154.279 111.509 154.432 110.844 154.876 109.914C154.955 109.747 155.103 108.876 155.276 108.827C155.37 108.8 155.469 109.126 155.474 109.136" fill="#DD9051"/>
<path fill-rule="evenodd" clip-rule="evenodd" d="M166.275 151.137C165.845 151.998 164.541 152 163.721 152.092C160.807 152.42 157.887 151.943 155.027 151.436C154.503 151.342 151.554 150.143 151.683 151.587C151.752 152.438 152.858 153.281 153.412 153.835C155.936 156.365 160.723 156.787 163.958 155.269C165.663 154.471 167.861 152.697 166.626 150.83" fill="#DD9051"/>
<path fill-rule="evenodd" clip-rule="evenodd" d="M171.799 144.184C171.799 144.184 146.563 138.357 141.121 138.647C141.121 138.647 140.628 154.291 159.428 154.447C171.713 154.551 171.799 144.184 171.799 144.184Z" fill="white"/>
<path fill-rule="evenodd" clip-rule="evenodd" d="M155.706 118.955C156.674 122.57 159.702 133.027 161.026 134.199C161.505 134.623 162.859 134.391 163.427 134.314C164.637 134.152 166.87 134.758 168.1 134.927C169.311 135.094 169.152 138.633 168.757 138.857C166.44 140.177 163.21 141.242 160.582 141.722C159.772 141.87 158.63 142.375 157.791 142.089C156.467 141.639 155.518 140.235 154.55 139.307C153.775 138.56 152.777 137.532 152.436 136.467C151.715 134.211 153.567 133.631 154.224 131.687C154.95 129.541 154.58 126.756 154.535 124.536C154.486 122.513 154.165 120.482 154.13 118.485C154.125 117.881 154.753 116.674 155.113 117.698" fill="url(#paint2_linear_561_1261)"/>
<path fill-rule="evenodd" clip-rule="evenodd" d="M160.69 142.129C160.69 142.129 167.348 149.009 169.264 149.537C170.345 149.835 172.161 150.226 173.272 150.066C173.572 150.023 174.682 149.213 174.81 149.267C176.256 149.87 178.234 151.304 179.966 150.558C180.733 150.228 180.604 149.487 181.011 149.221C181.499 148.895 182.605 149.378 183.235 149.047C184.867 148.189 185.911 144.929 184.123 143.591C183.668 143.25 183.618 144.686 183.13 144.98C182.496 145.364 181.658 145.217 180.963 145.102C177.635 144.548 174.636 142.279 172.005 140.321C170.44 139.157 168.621 137.226 166.425 137.454C164.687 137.635 160.995 139.337 160.995 139.337C160.312 138.721 159.209 137.774 158.332 137.295C151.352 133.476 145.536 135.592 138.578 138.287C136.927 138.925 133.207 138.987 132.328 137.096C132.319 137.075 131.57 138.772 131.574 139.111C131.598 140.461 131.796 141.959 133.162 142.662C133.557 142.866 134.712 142.973 134.953 143.266C135.422 143.835 134.609 144.597 135.486 145.209C137.458 146.585 139.058 145.935 141.104 145.925C141.945 145.922 142.985 147.204 144.185 147.148C145.924 147.067 151.115 146.094 155.137 144.739C158.336 143.661 160.69 142.129 160.69 142.129Z" fill="#7B4E38"/>
<path fill-rule="evenodd" clip-rule="evenodd" d="M184.661 147.39C184.233 147.661 183.681 147.825 183.358 147.846C181.225 147.982 179.508 146.7 177.789 145.6C177.163 145.199 176.535 144.786 175.925 144.356C175.717 144.21 175.523 144.045 175.311 143.905C175.196 143.831 174.907 143.608 174.942 143.739C175.007 143.996 175.689 144.325 175.884 144.478C176.17 144.699 176.436 144.95 176.745 145.14C176.983 145.287 177.217 145.433 177.44 145.601C178.023 146.038 180.18 147.208 179.201 148.251C178.457 149.04 176.693 148.504 175.861 148.233C173.58 147.489 171.742 145.634 170.122 143.888C169.459 143.173 168.882 142.154 168.056 141.606C167.904 141.505 168.23 141.929 168.346 142.068C168.576 142.339 168.838 142.592 169.063 142.87C169.733 143.712 170.623 145.228 169.122 145.696C166.689 146.456 164.032 144.033 162.409 142.552C161.913 142.101 161.231 140.927 160.51 140.854C160.232 140.827 159.916 141.293 159.709 141.433C159.096 141.851 158.312 141.947 157.636 142.219C155.84 142.941 153.947 143.738 152.067 144.232C151.297 144.434 150.463 144.546 149.724 144.839C148.729 145.23 147.458 145.623 146.376 145.49C146.084 145.454 145.669 145.523 145.431 145.306C145.108 145.011 145.858 144.381 146.026 144.252L146.039 144.243C146.84 143.958 147.589 143.599 148.188 143.221C148.373 143.104 148.555 142.984 148.73 142.859C148.939 142.758 149.141 142.651 149.336 142.536C149.569 142.396 149.818 142.153 149.978 141.933C150.049 141.831 150.334 141.693 150.219 141.645C150.128 141.607 149.831 141.992 149.767 142.049C149.43 142.339 149.088 142.608 148.73 142.859C147.823 143.304 146.823 143.655 146.039 144.243C144.735 144.708 143.29 144.976 142.139 144.807C141.496 144.713 140.437 144.598 140.113 143.921C139.556 142.753 141.026 142.098 141.734 141.544C141.823 141.475 142.698 140.873 142.569 140.717C142.2 140.266 140.716 141.207 140.323 141.352C138.721 141.945 135.914 142.699 134.255 141.938C132.898 141.314 132.326 139.367 132.38 138.015C132.386 137.824 132.426 137.59 132.467 137.345C132.416 137.266 132.369 137.183 132.327 137.095C132.319 137.074 131.57 138.771 131.574 139.11C131.598 140.461 131.797 141.959 133.16 142.662C133.556 142.866 134.713 142.973 134.954 143.266C135.425 143.836 134.61 144.597 135.486 145.209C137.456 146.585 139.059 145.936 141.107 145.926C141.947 145.922 142.984 147.204 144.185 147.148C145.924 147.067 151.115 146.094 155.135 144.738C158.333 143.66 160.687 142.128 160.687 142.128C160.687 142.128 167.347 149.009 169.264 149.537C170.344 149.835 172.163 150.226 173.272 150.066C173.572 150.022 174.683 149.214 174.809 149.266C176.258 149.87 178.234 151.303 179.967 150.558C180.734 150.227 180.605 149.487 181.01 149.22C181.501 148.895 182.605 149.378 183.235 149.047C183.82 148.738 184.331 148.118 184.661 147.39Z" fill="#5E3C2A"/>
<path fill-rule="evenodd" clip-rule="evenodd" d="M184.486 90.3578C187.667 86.9286 186.644 80.9836 184.308 76.7654C182.263 73.0864 175.554 68.7309 174.003 68.1581C173.811 68.088 173.993 68.56 173.983 68.761C173.969 69.0963 173.87 69.4073 173.682 69.6863C173.109 70.5365 171.859 71.295 170.95 71.7181C168.125 73.0345 164.716 72.796 161.757 72.0662C155.133 70.4338 148.691 67.5404 141.978 66.3573C135.294 65.1797 128.685 64.5566 121.907 65.3658C114.038 66.3055 105.912 71.3982 105.364 80.0435C105.27 81.5914 105.541 83.3127 106.164 84.7328C106.475 85.4468 107.196 86.4007 107.349 87.1443V87.7591C109.602 87.7566 109.478 86.7202 110.995 85.3208C112.413 84.0173 114.152 82.8323 115.945 82.1277C122.727 79.4643 130.043 78.5168 137.265 79.8514C145.574 81.3865 153.597 83.7995 161.298 87.2974C165.423 89.1702 174.309 91.9802 177.081 92.8478C180.124 93.7983 185.157 94.1217 187.899 92.1659C190.028 90.6486 191.703 87.6016 191.08 84.8725C190.878 83.9931 190.458 83.2534 190.018 82.4768C189.994 82.4353 189.633 81.8349 189.608 81.8433C189.549 81.8615 189.747 83.21 189.757 83.326C189.84 84.3471 189.707 85.2695 189.292 86.2175C188.359 88.3264 186.56 89.7094 184.486 90.3578Z" fill="#7B4E38"/>
<path fill-rule="evenodd" clip-rule="evenodd" d="M114.705 67.4402C109.706 69.829 105.744 74.0956 105.364 80.0435C105.27 81.5915 105.541 83.3127 106.164 84.7328C106.475 85.4468 107.196 86.4007 107.349 87.1443V87.2855C107.616 87.4307 107.893 87.5695 108.169 87.6988C109.597 87.4589 109.691 86.5242 110.995 85.3209C112.413 84.0173 114.152 82.8323 115.945 82.1277C122.727 79.4643 130.043 78.5168 137.265 79.8514C145.574 81.3866 153.597 83.7996 161.298 87.2974C165.423 89.1702 174.309 91.9803 177.081 92.8478C180.124 93.7983 185.157 94.1217 187.899 92.1659C190.028 90.6486 191.703 87.6016 191.08 84.8725C190.878 83.9931 190.458 83.2535 190.018 82.4768C189.994 82.4353 189.633 81.8349 189.608 81.8433C189.549 81.8616 189.747 83.21 189.757 83.3261C189.84 84.3472 189.707 85.2695 189.292 86.2175C188.359 88.3264 186.56 89.7095 184.486 90.3578C186.639 88.0381 186.867 84.5669 186.066 81.2572C185.597 84.1319 183.606 86.2901 180.583 87.01C178.568 87.49 176.3 86.9073 174.344 86.4323C170.876 85.5924 167.532 84.4311 164.168 83.2544C157.469 80.913 150.534 80.002 143.549 79.0071C140.412 78.5607 137.31 77.9909 134.222 77.2873C133.891 77.2108 131.688 77.2286 131.614 76.7318C131.466 75.7354 134.326 75.5601 134.82 75.528C137.72 75.3394 140.941 75.3518 143.796 75.9018C144.117 75.963 146.656 76.5679 146.834 76.1872C146.854 76.1497 145.678 75.7463 145.609 75.7221C143.929 75.1325 142.225 74.7034 140.471 74.379C133.511 73.0923 126.141 74.4472 119.259 72.8281C118.286 72.5995 117.283 72.3166 116.355 71.9635C115.821 71.7631 115.322 71.6184 114.828 71.335C112.729 70.1347 113.435 68.6608 114.705 67.4402Z" fill="#5E3C2A"/>
<path fill-rule="evenodd" clip-rule="evenodd" d="M153.32 77.0829C159.584 79.0817 166.564 81.0216 173.149 79.4189C174.616 79.0629 177.224 78.655 178.089 77.2019C178.415 76.6528 178.336 75.7971 178.148 75.212C178.079 74.9928 178.005 74.7711 177.901 74.5657C177.847 74.4655 177.649 74.2186 177.748 74.2625C178.124 74.4225 178.548 74.978 178.835 75.2728C179.971 76.4445 181.72 79.0352 180.509 80.6582C179.581 81.9124 177.699 82.0176 176.281 82.1455C174.799 82.2788 173.406 82.0986 171.939 81.9396C168.753 81.5944 165.458 81.0157 162.39 80.0613C160.849 79.5814 159.347 79.0096 157.821 78.4808C157.262 78.2857 153.913 77.1101 153.32 77.0829Z" fill="#5E3C2A"/>
<path fill-rule="evenodd" clip-rule="evenodd" d="M174.305 72.9668C174.265 73.4981 174.25 73.9874 173.979 74.4669C173.613 75.1182 172.694 75.5616 172.042 75.8188C170.452 76.4513 168.683 76.8211 166.964 76.8419C164.529 76.872 162.143 76.4913 159.742 76.0943C155.691 75.4263 151.665 74.501 147.812 73.0686C146.449 72.5615 145.046 72.1373 143.697 71.5828C143.391 71.4554 142.462 71.2184 142.24 70.936C142.24 70.933 143.001 71.0441 143.05 71.056C143.633 71.2051 144.191 71.4609 144.779 71.6065C146.444 72.0198 148.113 72.4509 149.753 72.9525C152.752 73.869 155.864 74.1924 158.947 74.6925C162.009 75.1898 165.181 75.5132 168.278 75.2224C169.795 75.0806 171.563 74.9133 172.956 74.2541C173.401 74.0452 174.27 73.6438 173.914 73.0671" fill="#5E3C2A"/>
<path fill-rule="evenodd" clip-rule="evenodd" d="M138.841 70.6965C134.383 69.3209 130.211 67.2007 125.502 67.8579C124.041 68.0623 122.249 68.3808 120.895 69.0829C120.448 69.3164 119.992 69.5268 119.549 69.7816C119.396 69.8695 119.268 69.9944 119.115 70.0798C119.051 70.1168 118.864 70.1702 118.928 70.2077C119.234 70.3859 120.145 70.1366 120.473 70.0941C121.866 69.9134 123.322 69.9386 124.718 69.9277C129.465 69.8922 134.098 69.5999 138.73 71.0076" fill="#5E3C2A"/>
<path fill-rule="evenodd" clip-rule="evenodd" d="M113.564 130.863C114.774 135.735 117.259 147.149 120.944 150.801C124.387 154.21 128.062 158.468 132.503 160.13C134.949 161.046 137.838 160.914 140.397 161.173C144.26 161.563 149.235 160.896 152.767 159.182C153.626 158.767 154.57 157.976 155.242 157.312C155.568 156.99 156.081 155.938 156.501 155.836C156.916 155.736 157.771 156.138 158.211 156.182C159.421 156.304 160.903 156.36 162.113 156.206C163.131 156.077 165.072 155.246 166.035 155.457C166.065 155.463 164.351 156.503 164.277 156.578C164.212 156.639 164.889 156.742 164.934 156.744C165.309 156.757 165.665 156.899 166.025 156.995C167.255 157.321 168.495 157.398 169.755 157.62C172.344 158.079 176.789 157.679 178.869 155.857C179.496 155.308 179.383 154.34 179.857 153.739C179.995 153.569 179.921 154.172 179.921 154.389C179.931 154.764 179.946 155.202 180.015 155.57C180.252 156.821 181.072 158.037 181.902 158.974C185.088 162.574 189.791 165.653 186.299 170.589C185.182 172.166 182.594 173.247 180.741 173.437C179.981 173.515 178.918 173.354 178.197 173.608C178.029 173.669 178.429 174.522 178.489 174.664C178.676 175.146 178.839 176.261 178.622 176.745C177.659 178.876 176.029 179.92 173.825 180.659C169.572 182.082 164.222 181.87 160.107 180.064C158.512 179.366 156.961 178.595 155.375 177.897C155.005 177.734 154.239 176.892 153.819 176.919C153.7 176.927 153.587 177.809 153.537 177.925C153.32 178.402 152.678 178.875 152.258 179.166C150.613 180.314 148.197 180.753 146.212 180.551C142.477 180.172 138.619 178.099 135.729 175.838C134.558 174.924 132.983 173.589 132.014 172.82C131.915 172.741 130.898 178.519 124.382 175.272C121.028 173.602 119.166 171.288 117.239 168.07C116.518 166.863 116.068 163.471 116.068 163.471C116.068 163.471 112.68 165.113 111.489 165.26C108.782 165.597 105.141 162.983 103.862 160.723C101.16 155.953 104.064 150.641 105.961 146.286C108.15 141.258 109.054 138.345 107.611 132.968C105.927 126.699 101.15 127.187 97.1683 123.668C95.6617 122.334 93.8932 118.811 93.2708 116.958C91.6011 111.995 91.2405 106.896 90.7761 101.702C90.5489 99.1473 90.3909 96.44 91.3196 94.0052C91.3887 93.751 91.4628 93.4952 91.5517 93.2384C92.0556 91.7799 93.8487 90.2363 94.9404 89.2345C96.0717 88.1951 97.5141 87.3098 98.8035 86.4749C101.041 85.0266 103.284 84.1946 105.917 83.7715C106.821 83.6268 108.1 83.4046 108.886 84.045C113.361 87.6801 116.365 94.1277 117.422 99.5794C117.802 101.547 117.664 103.62 117.461 105.66C117.318 107.059 116.898 108.717 116.068 109.869C115.609 110.504 114.058 112.431 114.058 112.431C114.058 112.431 114.942 114.357 115.125 114.93C115.693 116.722 115.698 118.877 115.426 120.725C115.125 122.79 114.157 124.492 113.747 126.459C113.445 127.898 113.213 129.451 113.564 130.863Z" fill="#7B4E38"/>
<path fill-rule="evenodd" clip-rule="evenodd" d="M112.808 142.928C110.823 136.299 111.628 128.419 112.265 121.827C112.364 120.788 109.988 120.719 109.444 119.984C108.348 118.504 108.476 116.171 108.525 114.411C108.605 111.575 109.948 108.73 111.124 106.214C111.386 105.655 112.789 103.925 112.532 103.281C112.527 103.275 110.778 103.943 110.645 103.987C109.573 104.329 108.338 104.418 107.241 104.081C105.799 103.64 105.532 102.343 105.586 100.993C105.601 100.613 105.651 100.189 105.774 99.8316C105.784 99.8133 106.056 99.0164 105.986 99.0292C103.433 99.4993 100.627 103.824 97.633 101.652C96.7586 101.017 99.2633 98.177 99.5844 97.738C99.8314 97.3968 100.123 97.145 100.409 96.8468C100.617 96.7248 100.79 96.591 100.814 96.4532C100.849 96.2804 100.557 96.6912 100.434 96.8186L100.409 96.8468C100.118 97.0171 99.7522 97.1638 99.6238 97.263C97.5293 98.888 94.6741 98.9171 93.4934 96.0587C92.9204 94.6698 92.871 92.5584 93.3106 91.1285C93.3699 90.9285 93.4588 90.7246 93.5625 90.5172C92.7129 91.3517 91.8732 92.312 91.5521 93.2383C91.4632 93.4951 91.3891 93.7509 91.3199 94.0051C90.3912 96.4399 90.5493 99.1472 90.7765 101.702C91.2409 106.896 91.6015 111.994 93.2712 116.958C93.8936 118.811 95.662 122.334 97.1687 123.668C101.15 127.187 105.927 126.699 107.612 132.968C109.054 138.345 108.15 141.258 105.962 146.285C104.065 150.641 101.16 155.953 103.862 160.723C105.142 162.983 108.782 165.597 111.489 165.26C112.68 165.113 116.069 163.471 116.069 163.471C116.069 163.471 116.518 166.863 117.239 168.07C119.166 171.288 121.028 173.602 124.383 175.272C130.898 178.519 131.916 172.741 132.015 172.82C132.983 173.589 134.559 174.924 135.729 175.838C138.619 178.099 142.477 180.172 146.212 180.551C148.198 180.753 150.613 180.314 152.258 179.166C152.678 178.875 153.32 178.402 153.538 177.925C153.587 177.809 153.701 176.926 153.819 176.919C154.239 176.892 155.005 177.734 155.375 177.897C156.961 178.595 158.512 179.366 160.108 180.064C164.223 181.87 169.573 182.082 173.826 180.659C176.029 179.92 177.659 178.876 178.622 176.745C178.84 176.261 178.677 175.146 178.489 174.664C178.43 174.522 178.03 173.669 178.198 173.608C178.919 173.354 179.981 173.515 180.742 173.437C182.594 173.246 185.183 172.166 186.299 170.589C188.359 167.677 187.564 165.412 185.919 163.304C185.919 163.934 185.696 164.522 185.064 164.958C183.972 165.715 182.238 165.856 180.959 165.861C178.059 165.873 175.486 165.55 172.729 164.57C171.603 164.169 170.319 163.285 169.093 163.226C168.985 163.221 169.113 163.873 169.123 163.934C169.192 164.293 169.004 164.589 168.812 164.881C168.209 165.799 167.226 166.199 166.169 166.337C163.877 166.634 161.091 166.299 158.937 165.509C157.371 164.935 155.904 163.753 154.298 163.368C154.224 163.351 154.476 164.337 154.496 164.431C154.639 165.102 154.417 165.853 154.076 166.424C153.009 168.216 150.92 168.607 149.008 168.769C138.911 169.632 129.648 162.907 122.491 156.669C119.462 154.028 117.343 152.443 115.105 149.103C114.295 147.898 112.556 144.755 112.754 143.192C112.764 143.101 112.784 143.013 112.808 142.928ZM180.401 156.744C180.223 156.362 180.09 155.968 180.016 155.57C179.946 155.202 179.932 154.764 179.922 154.389C179.922 154.172 179.996 153.568 179.857 153.739C179.383 154.34 179.497 155.308 178.869 155.857C178.578 156.111 178.242 156.338 177.872 156.539C177.965 156.579 178.059 156.62 178.153 156.661L180.401 156.744Z" fill="#5E3C2A"/>
<path fill-rule="evenodd" clip-rule="evenodd" d="M101.225 95.8928C101.669 95.5654 101.98 95.0944 102.41 94.7438C104.179 93.2981 106.125 91.842 108.155 90.7873C109.03 90.3355 109.914 89.863 110.813 89.4595C110.932 89.4047 111.5 89.2798 111.559 89.1421C111.589 89.067 110.581 88.8962 110.497 88.8888C109.44 88.7944 108.313 89.0073 107.36 89.503C106.002 90.2101 104.935 91.1413 103.877 92.2399C102.815 93.342 102.064 94.767 100.978 95.8429" fill="#5E3C2A"/>
<path fill-rule="evenodd" clip-rule="evenodd" d="M106.697 98.3437C107.922 97.2599 109.444 96.4057 110.881 95.6187C111.4 95.3348 111.958 95.1442 112.477 94.8657C112.492 94.8592 112.877 94.6761 112.867 94.6465C112.842 94.5882 112.487 94.6776 112.432 94.6845C111.924 94.7566 111.41 94.7511 110.901 94.8573C108.955 95.2642 107.25 96.4047 106.406 98.2445" fill="#5E3C2A"/>
<path fill-rule="evenodd" clip-rule="evenodd" d="M109.514 143.413C110.047 141.881 109.963 139.246 109.815 137.109C109.489 132.307 107.459 127.288 103.986 124.11C103.299 123.486 102.415 123.134 101.669 122.603C99.3128 120.937 94.5013 119.242 92.6192 122.949C92.313 123.544 92.1993 124.192 92.1055 124.838C91.9918 125.566 91.8634 126.376 91.9523 127.116C92.555 132.142 96.2106 136.387 99.5845 139.93C100.859 141.27 102.618 142.356 103.759 143.764C104.06 144.133 104.075 144.721 104.317 145.13C105.557 147.206 108.56 146.187 109.514 143.413Z" fill="#F6BC8B"/>
<path fill-rule="evenodd" clip-rule="evenodd" d="M93.0239 122.288C92.8757 122.487 92.7423 122.707 92.6188 122.949C92.3125 123.544 92.1989 124.192 92.105 124.838C91.9914 125.566 91.8629 126.376 91.9518 127.115C92.5545 132.142 96.2101 136.387 99.5841 139.93C100.859 141.27 102.617 142.356 103.758 143.764C104.06 144.133 104.074 144.721 104.316 145.129C105.556 147.206 108.56 146.187 109.513 143.413C109.918 142.245 109.968 140.437 109.903 138.696C109.474 138.912 108.985 139.262 108.822 139.325C108.056 139.624 106.791 138.785 106.495 138.087C105.843 136.538 106.278 134.688 105.764 133.103C105.211 131.381 104.4 130.252 103.319 128.838C102.785 128.143 101.535 126.776 100.616 126.692C99.7964 126.616 100.834 127.586 101.012 127.764C102.054 128.81 104.193 130.954 104.153 132.518C104.134 133.124 103.284 132.433 103.062 132.306C102.059 131.743 101.249 130.879 100.206 130.308C99.9447 130.164 99.6285 129.994 99.3321 129.943C99.174 129.916 98.769 129.787 98.8579 129.917C100.276 131.951 102.879 132.868 103.961 135.285C104.316 136.081 105.122 137.605 103.827 138.044C102.266 138.577 100.651 136.499 99.7322 135.555C96.9312 132.68 94.8813 129.224 93.4981 125.475C93.1721 124.591 92.8115 123.326 93.0239 122.288Z" fill="url(#paint3_linear_561_1261)"/>
<path fill-rule="evenodd" clip-rule="evenodd" d="M98.8082 125.851C97.9684 125.222 96.8322 124.792 95.8344 124.485C95.6417 124.426 94.9403 124.255 94.8514 124.594C94.7624 124.932 95.5034 125.226 95.7208 125.329C96.5062 125.698 97.3757 126.121 98.2352 126.267C98.4921 126.31 98.8082 126.45 99.0651 126.424C99.3961 126.391 99.0107 125.929 98.8921 125.862" fill="#DD9051"/>
<path fill-rule="evenodd" clip-rule="evenodd" d="M129.347 109.29C131.016 107.552 135.581 104.37 139.231 102.823C141.079 102.041 143.163 101.373 145.204 101.548C147.175 101.719 148.745 102.884 150.198 104.105C150.667 104.503 151.546 105.261 151.813 105.842C152.184 106.649 152.035 107.856 151.853 108.678C151.749 109.147 151.704 110.267 151.329 110.623C151.156 110.786 149.738 110.257 149.477 110.213C147.708 109.916 145.88 110.079 144.097 109.929C140.476 109.623 137.043 110.616 133.699 111.866C132.795 112.204 131.812 112.664 131.021 113.225C130.784 113.395 130.339 113.996 130.023 113.991C129.692 113.985 129.391 113.46 129.208 113.251C128.477 112.415 128.433 110.243 129.347 109.29ZM152.786 110.593C153.073 110.377 153.132 109.834 153.251 109.521C153.705 108.354 154.026 107.012 153.927 105.754C153.898 105.351 153.789 104.171 153.127 104.26C152.925 104.288 152.954 104.831 152.944 104.972C152.905 105.697 152.964 106.426 152.895 107.154C152.811 108.061 152.559 109.044 152.337 109.925C152.302 110.057 152.095 110.724 152.208 110.838C152.406 111.034 152.668 110.654 152.801 110.533L152.786 110.593Z" fill="#5E3C2A"/>
<path fill-rule="evenodd" clip-rule="evenodd" d="M162.014 110.443C162.098 110.356 162.167 110.272 162.212 110.241C162.597 109.956 163.007 109.781 163.457 109.61C164.593 109.182 166.149 109.327 167.325 109.473C169.849 109.787 172.255 110.314 174.685 111.048C175.535 111.306 176.523 112.089 177.402 112.166C178.138 112.23 179.072 110.955 178.834 110.291C178.563 109.533 177.491 108.562 176.918 108.014C176.231 107.352 175.436 106.695 174.655 106.141C173.208 105.107 171.854 104.149 170.274 103.33C168.154 102.239 165.709 101.702 164.568 101.939C162.79 102.31 160.626 104.167 160.384 106.095C160.251 105.91 160.132 105.735 160.043 105.574C159.91 105.337 159.376 103.646 159.169 104.67C159.149 104.781 159.134 104.883 159.134 104.996C159.129 105.148 159.129 105.3 159.129 105.452C159.129 105.726 159.124 105.996 159.159 106.267C159.332 107.645 159.979 109.16 160.725 110.317C160.918 110.612 161.634 110.934 161.915 110.611C161.955 110.568 161.989 110.51 162.014 110.443Z" fill="#5E3C2A"/>
<path fill-rule="evenodd" clip-rule="evenodd" d="M132.658 122.214C132.857 121.391 134.382 113.663 141.911 116.045C143.548 116.561 144.89 117.269 146.319 118.374C146.371 118.418 147.471 119.453 147.466 119.464C147.405 119.578 146.948 119.448 146.867 119.426C146.258 119.258 145.525 119.236 144.902 119.139C144.83 119.128 144.254 118.9 144.207 118.992C144.169 119.058 144.517 119.521 144.555 119.603C144.712 119.924 145.565 121.412 145.356 121.778C145.328 121.821 143.718 120.585 143.609 120.52C142.395 119.714 141.071 118.772 139.677 118.626C135.343 118.188 133.124 121.767 132.658 122.214Z" fill="#392A22"/>
<path fill-rule="evenodd" clip-rule="evenodd" d="M130.921 121.628C129.941 121.267 129.018 120.773 128.017 120.444C126.501 119.945 124.928 119.664 123.371 119.329C122.371 119.112 121.197 118.685 120.164 118.712C120.109 118.713 120.267 118.747 120.318 118.769C120.387 118.799 120.453 118.835 120.522 118.866C120.784 118.981 120.77 118.981 121.029 119.115C121.514 119.366 121.989 119.634 122.492 119.852C124.365 120.664 126.5 121.657 128.575 121.81C129.121 121.85 129.671 121.842 130.217 121.842C130.356 121.842 130.866 121.934 130.751 121.758" fill="#C47B3E"/>
<path fill-rule="evenodd" clip-rule="evenodd" d="M131.127 122.722C129.872 122.741 128.666 122.382 127.437 122.179C126.152 121.968 124.845 121.897 123.548 121.819C122.764 121.77 121.981 121.701 121.198 121.645C120.759 121.612 120.701 121.617 120.289 121.614C120.18 121.614 120.07 121.614 119.961 121.614C119.868 121.614 119.637 121.534 119.683 121.614C119.747 121.727 120.262 121.783 120.367 121.804C121.074 121.944 121.8 122.021 122.512 122.137C124.659 122.485 126.78 123.01 128.953 123.128C129.502 123.159 130.559 123.387 131.082 123.079" fill="#C47B3E"/>
<path fill-rule="evenodd" clip-rule="evenodd" d="M131.268 124.152C130.94 124.129 130.613 124.252 130.292 124.305C129.197 124.486 128.1 124.664 127.007 124.862C126.12 125.023 125.234 125.194 124.379 125.487C123.597 125.754 122.806 126.05 122.053 126.392C121.797 126.509 121.547 126.641 121.294 126.768C121.185 126.822 120.862 126.907 120.976 126.951C121.598 127.196 122.728 126.933 123.372 126.871C125.319 126.691 127.349 126.154 129.135 125.373C129.862 125.054 131.104 124.893 131.507 124.134" fill="#C47B3E"/>
<path fill-rule="evenodd" clip-rule="evenodd" d="M176.936 119.239C177.127 119.226 177.323 119.236 177.515 119.236C177.545 119.236 177.669 119.202 177.693 119.225C177.83 119.359 177.551 119.822 177.375 119.856C177.294 119.872 177.25 119.858 177.174 119.823C177.045 119.763 176.461 119.536 176.444 119.336C176.441 119.304 176.581 119.269 176.607 119.242" fill="#C47B3E"/>
<path fill-rule="evenodd" clip-rule="evenodd" d="M176.888 120.212C177.233 120.221 177.651 120.336 177.932 120.542C177.98 120.577 177.813 120.549 177.754 120.552C177.657 120.559 177.563 120.565 177.465 120.565C177.122 120.565 177.036 120.407 176.771 120.216" fill="#C47B3E"/>
<path fill-rule="evenodd" clip-rule="evenodd" d="M177.302 121.258C177.405 121.241 177.5 121.231 177.602 121.23C177.69 121.23 177.779 121.235 177.866 121.252C177.886 121.256 178.023 121.276 178.042 121.291C178.131 121.362 177.975 121.578 177.901 121.607C177.772 121.66 177.434 121.487 177.298 121.406C177.261 121.384 177.136 121.35 177.13 121.305" fill="#C47B3E"/>
<path fill-rule="evenodd" clip-rule="evenodd" d="M176.934 121.516C176.799 120.835 175.763 114.448 170.673 116.422C169.566 116.85 168.659 117.436 167.693 118.351C167.658 118.387 166.915 119.244 166.918 119.253C166.96 119.347 167.269 119.239 167.323 119.221C167.735 119.081 168.231 119.063 168.652 118.982C168.701 118.973 169.09 118.784 169.122 118.861C169.148 118.915 168.913 119.298 168.887 119.365C168.781 119.631 168.205 120.862 168.347 121.164C168.366 121.2 169.453 120.177 169.527 120.123C170.348 119.456 171.242 118.676 172.185 118.554C175.116 118.189 176.619 121.146 176.934 121.516Z" fill="#392A22"/>
<path fill-rule="evenodd" clip-rule="evenodd" d="M152.893 131.96C152.893 131.96 140.312 137.518 134.855 133.504C129.402 129.49 128.647 121.911 129.504 118.908C129.504 118.908 128.175 121.136 128.696 124.52C129.572 130.175 132.912 136.123 139.334 136.308C145.867 136.497 151.865 133.429 152.245 132.999C152.625 132.569 152.893 131.96 152.893 131.96Z" fill="url(#paint4_linear_561_1261)"/>
<path fill-rule="evenodd" clip-rule="evenodd" d="M131.152 117.478C137.13 120.666 142.681 124.89 147.929 129.383C149.01 130.305 150.052 131.265 151.084 132.241C149.876 133.046 148.455 133.512 147.145 133.882C142.866 135.091 137.695 135.823 134.015 132.502C131.478 130.219 130.1 126.147 129.677 122.645C129.555 121.599 129.156 120.128 129.633 119.119C129.94 118.473 130.504 117.936 131.152 117.478ZM137.583 114.615C139.75 116.043 141.765 117.67 143.771 119.418C147.16 122.363 150.46 125.367 153.635 128.54C153.547 129.112 153.387 129.665 153.075 130.195C152.924 130.442 152.763 130.672 152.588 130.887C148.698 126.75 144.419 122.842 140.11 119.384C138.474 118.067 136.819 116.734 135.237 115.324C135.996 115.037 136.79 114.813 137.583 114.615Z" fill="url(#paint5_linear_561_1261)"/>
<path fill-rule="evenodd" clip-rule="evenodd" d="M182.203 129.479C182.203 129.479 172.895 133.865 169.533 129.377C166.174 124.89 166.448 117.284 167.357 114.375C167.357 114.375 166.202 116.47 166.207 119.883C166.22 125.587 167.911 131.806 172.344 132.573C176.855 133.354 181.336 130.846 181.645 130.453C181.953 130.06 182.203 129.479 182.203 129.479Z" fill="url(#paint6_linear_561_1261)"/>
<path fill-rule="evenodd" clip-rule="evenodd" d="M168.649 113.103C172.46 116.816 175.864 121.52 179.031 126.465C179.684 127.48 180.305 128.53 180.918 129.594C179.996 130.285 178.962 130.62 178.015 130.869C174.92 131.683 171.258 131.942 169.055 128.305C167.536 125.804 167.009 121.629 167.083 118.108C167.109 117.057 166.987 115.557 167.424 114.597C167.704 113.982 168.152 113.499 168.649 113.103ZM173.41 110.839C174.762 112.456 175.989 114.257 177.196 116.178C179.236 119.414 181.209 122.701 183.076 126.145C182.955 126.706 182.786 127.242 182.514 127.74C182.383 127.972 182.248 128.187 182.104 128.385C179.841 123.917 177.285 119.642 174.661 115.811C173.665 114.354 172.657 112.877 171.708 111.332C172.265 111.115 172.839 110.964 173.41 110.839Z" fill="url(#paint7_linear_561_1261)"/>
<path fill-rule="evenodd" clip-rule="evenodd" d="M165.557 118.717C164.394 117.167 162.284 116.189 160.985 116.108C159.663 116.027 158.469 116.072 157.243 116.629C155.793 117.288 154.781 118.942 154.357 120.396C154.266 120.704 153.943 120.88 153.637 120.79C153.327 120.7 153.15 120.377 153.241 120.069C153.756 118.319 154.868 116.27 156.609 115.477C158.013 114.84 159.54 114.734 161.053 114.828C162.589 114.923 165.11 116.186 166.486 118.02C166.682 118.276 166.628 118.641 166.372 118.833C166.117 119.026 165.753 118.974 165.557 118.717Z" fill="#392A22"/>
<path fill-rule="evenodd" clip-rule="evenodd" d="M151.217 134.071C151.217 134.071 136.996 140.226 132.383 133.167C132.383 133.167 133.623 137.069 139.206 137.097C144.794 137.125 151.217 134.071 151.217 134.071Z" fill="#392A22"/>
<path fill-rule="evenodd" clip-rule="evenodd" d="M179.335 131.804C179.335 131.804 172.079 134.847 168.851 130.424C168.851 130.424 169.553 132.246 171.682 132.966C175 134.088 179.335 131.804 179.335 131.804Z" fill="#392A22"/>
<path fill-rule="evenodd" clip-rule="evenodd" d="M128.13 121.518L103.38 123.508L105.148 125.139L128.084 122.849L128.13 121.518Z" fill="#392A22"/>
<path fill-rule="evenodd" clip-rule="evenodd" d="M56.8638 205.099C57.6708 204.974 58.3997 204.209 59.1442 203.871C62.2836 202.45 65.1105 200.436 68.104 198.75C68.7132 198.407 70.7488 196.773 71.3892 196.741C71.686 196.726 72.0714 197.465 72.2068 197.647C73.0866 198.833 73.8674 200.046 74.6431 201.295C78.1313 206.879 80.6668 212.827 83.4365 218.827C85.0088 222.235 86.5551 225.914 87.2215 229.614C87.7109 232.352 87.0548 235.552 86.4561 238.19C85.5241 242.333 84.6966 246.517 83.2909 250.534C81.9268 254.453 80.3335 257.799 78.3968 261.436C77.4961 263.133 76.632 265.001 75.2471 266.369C73.8519 267.749 71.5247 268.566 69.8014 269.429C66.2664 271.209 62.6324 272.885 58.8214 273.983C55.682 274.888 52.829 277.162 47.0084 280.358C46.3733 280.701 45.1185 280.711 44.3532 280.436C44.1085 280.347 44.0461 279.067 44.0096 278.854C43.7233 277.048 43.3849 275.232 42.9632 273.452C41.3128 266.489 39.9851 259.396 39.3708 252.257C38.5118 242.291 39.7145 233.002 45.4153 224.561" fill="#EDE8E0"/>
<path fill-rule="evenodd" clip-rule="evenodd" d="M85.8624 224.65C85.9561 224.905 86.0394 225.155 86.1227 225.41C86.0186 225.592 85.9092 225.769 85.7998 225.951L84.8211 245.351C84.3786 247.094 83.8892 248.832 83.2905 250.534C81.9265 254.453 86.06 257.71 84.1233 261.348C83.2226 263.044 76.6316 265.001 75.2468 266.369C73.8515 267.749 71.5243 268.566 69.801 269.429C66.266 271.209 62.632 272.885 58.821 273.983C55.6817 274.888 52.8287 277.162 47.0081 280.358C46.3729 280.701 45.1182 280.711 44.3528 280.436C44.1081 280.347 44.0457 279.067 44.0093 278.854C43.7229 277.048 43.3845 275.232 42.9628 273.452C41.8383 268.711 40.8698 263.908 40.167 259.074C42.8222 252.475 45.8471 246.027 48.7053 239.507C49.7622 237.087 51.0325 234.704 51.7717 232.159C51.8342 231.956 52.5475 228.808 52.8026 228.902C53.9792 229.344 54.6039 233.143 54.8903 234.121C56.2179 238.68 57.9568 242.973 60.487 246.99C60.8098 247.5 61.9135 250.669 62.4602 250.779C62.8611 250.857 63.4702 249.623 63.6212 249.415C64.8967 247.635 66.3545 245.918 67.7498 244.232C68.1767 243.712 68.5514 243.212 68.8533 242.614C69.0095 242.307 69.2803 241.412 69.3948 241.739C69.7384 242.702 70.6185 243.597 70.7434 244.664C70.7642 244.841 70.6756 246.548 70.9308 246.511C71.8002 246.387 72.4301 245.205 72.9507 244.628C74.169 243.269 75.3143 241.942 76.4128 240.47C79.0264 236.978 81.2703 233.221 83.4517 229.448C84.0035 228.485 84.9981 227.226 85.7998 225.951L85.8624 224.65Z" fill="#CEC7BB"/>
<path fill-rule="evenodd" clip-rule="evenodd" d="M61.4602 201.784C62.0276 200.691 63.2407 198.802 63.2302 197.699C63.225 196.643 62.1265 195.545 61.5486 194.775C60.0753 192.823 58.2687 191.246 56.7329 189.373L57.3993 192.251C56.0769 191.46 54.6139 190.825 53.4842 190.232C49.3348 188.041 45.7008 185.689 40.9892 185.007L15.7389 194.161C15.1454 198.886 15.7233 203.954 15.3953 208.747C14.8591 216.595 14.5622 224.359 14.5622 232.248C14.5622 236.489 14.6872 240.803 14.4217 245.039C14.2707 247.48 13.6251 250.821 14.2498 253.246C14.4997 254.219 15.2755 254.947 15.5827 255.899C17.2643 261.135 19.2582 266.469 21.8041 271.35C22.5382 272.755 23.0849 275.232 24.3761 276.268C27.1718 278.51 32.2115 278.817 35.5695 279.228C37.8603 279.504 44.0348 281.794 46.0079 281.107C47.5386 280.576 51.865 275.643 53.0572 274.451C57.6595 269.841 61.3145 264.694 65.3077 259.579C67.4839 256.789 70.623 253.683 71.8882 250.29C73.1325 246.954 71.8519 242.598 71.503 239.195C70.4149 228.6 65.7033 219.28 63.475 209.012C62.9544 206.619 62.2463 204.173 61.4602 201.784Z" fill="#EDE8E0"/>
<path fill-rule="evenodd" clip-rule="evenodd" d="M72.1381 243.551C72.4713 245.877 72.6431 248.271 71.8882 250.29C70.6231 253.683 67.4839 256.789 65.3077 259.579C61.3145 264.694 57.6595 269.841 53.0572 274.451C51.865 275.643 47.5386 280.576 46.0079 281.107C44.0348 281.794 37.8603 279.504 35.5695 279.228C32.2115 278.817 27.1718 278.51 24.3761 276.268C23.0849 275.232 22.5382 272.755 21.8041 271.35C19.2582 266.469 17.2643 261.135 15.5827 255.899C15.2755 254.947 14.4997 254.219 14.2498 253.246C13.6251 250.821 14.2707 247.48 14.4217 245.039C14.6872 240.803 14.5622 236.489 14.5622 232.248C14.5622 224.359 14.8591 216.595 15.3953 208.747C15.7233 203.954 15.1454 198.886 15.7389 194.161L40.9892 185.007C45.7008 185.689 49.3348 188.041 53.4842 190.232C54.6139 190.825 56.0769 191.46 57.3993 192.251L56.7329 189.373C58.2687 191.246 60.0753 192.823 61.5486 194.775C62.1265 195.545 63.225 196.643 63.2302 197.699C63.2355 198.011 63.1367 198.386 62.9857 198.792C56.556 199.859 37.2823 209.757 37.0272 212.848C36.9178 214.123 36.137 215.127 36.3504 216.392C36.8555 219.431 35.9391 220.06 35.7308 223.115C34.9551 234.345 34.2523 245.434 35.0697 256.711C35.4914 262.503 35.0748 268.862 41.0828 271.704C42.1449 272.203 43.8057 270.58 44.6075 270.085C48.0696 267.962 51.3808 265.547 54.6451 263.138C58.4457 260.338 62.2984 257.591 65.8646 254.489C66.4165 254.01 69.285 252.33 69.2642 251.278C69.2486 250.378 65.4897 251.591 65.6198 251.2C66.0832 249.811 68.2231 248.213 69.1394 247.1C70.113 245.903 71.1228 244.727 72.1381 243.551Z" fill="#CEC7BB"/>
<path fill-rule="evenodd" clip-rule="evenodd" d="M70.7895 215.038C76.7351 223.776 74.1528 232.773 72.1224 242.255C72.0495 242.588 72.263 241.578 72.3255 241.24C72.44 240.621 72.4765 239.986 72.4765 239.351C72.4869 237.436 72.2785 235.49 72.2785 233.559C72.2785 227.751 71.4924 221.933 70.4199 216.272" fill="#CEC7BB"/>
<path fill-rule="evenodd" clip-rule="evenodd" d="M78.1152 222.912C76.9803 225.098 76.7253 228.09 76.1265 230.468C75.7413 232.003 75.3249 233.533 74.9188 235.058C74.4711 236.739 73.5391 238.706 73.4871 240.449C73.4819 240.673 73.0965 241.417 73.1642 241.568C73.1694 241.578 73.6537 241.011 73.6589 241.011C73.8828 240.647 74.1429 240.283 74.3616 239.913C75.0071 238.826 75.7309 237.847 76.4598 236.817C77.9384 234.73 79.3596 232.654 80.7705 230.53C81.1401 229.974 82.0668 228.662 81.9002 227.96C81.8013 227.559 81.083 227.949 80.9372 228.043C80.3646 228.418 79.037 230.099 78.3237 230.125C77.9124 230.14 78.5786 227.606 78.6254 227.356C79.0315 225.155 79.7604 223.162 78.386 221.137" fill="#CEC7BB"/>
<path fill-rule="evenodd" clip-rule="evenodd" d="M62.2002 203.657C64.0068 204.834 64.262 207.206 64.918 209.095C67.6617 216.959 68.8017 224.447 68.0155 232.955C67.776 235.573 68.0989 238.248 68.0989 240.87C68.0989 241.172 67.9844 243.04 68.63 243.155C69.1037 243.233 69.3691 240.74 69.3951 240.532C69.7388 237.889 70.1971 235.245 70.6448 232.622C70.7802 231.836 71.0611 231.077 71.0976 230.281C71.1184 229.869 70.931 228.683 71.108 229.052C71.8473 230.567 71.4257 232.877 71.634 234.522C71.6392 234.579 71.7276 236.416 71.7692 236.411C71.7952 236.411 71.7796 234.865 71.7796 234.74C71.7796 232.742 71.3527 230.811 71.3371 228.829C71.3214 226.893 70.7229 224.915 70.3845 223.021C69.4682 217.9 69.1609 212.775 66.8546 208.065C66.1777 206.676 65.0115 204.969 63.8088 203.985C63.5694 203.788 63.0437 202.971 62.7262 203.095" fill="#CEC7BB"/>
<path fill-rule="evenodd" clip-rule="evenodd" d="M53.4946 205.547C51.7921 207.227 50.5998 209.98 49.2826 211.979C46.6535 215.97 44.1389 220.024 41.5878 224.072C40.2967 226.123 39.1097 228.366 38.1257 230.577C37.7561 231.405 37.4489 232.248 37.0532 233.065C36.8449 233.497 36.1213 234.725 36.4232 234.355C38.3131 232.019 39.6876 229.063 41.4369 226.596C45.5603 220.789 50.0793 215.033 54.5879 209.522C55.1398 208.846 55.702 208.19 56.2591 207.514C56.7849 206.874 56.7484 206.941 57.2274 206.223C57.8417 205.292 62.8345 199.926 58.1593 201.784" fill="#CEC7BB"/>
<path fill-rule="evenodd" clip-rule="evenodd" d="M26.0525 158.316C25.4746 158.295 24.7301 158.941 24.3083 159.248C22.8662 160.294 21.523 161.444 20.2631 162.703C19.9091 163.062 19.5706 163.411 19.2062 163.764C19.1541 163.817 18.9199 163.978 18.9511 164.092C19.0292 164.399 19.5083 164.618 19.6957 164.852C20.7213 166.117 21.8354 167.303 23.0172 168.427C25.6984 170.972 28.9992 172.767 32.2583 174.453C33.6067 175.151 35.0072 175.952 36.4337 176.462C37.9383 176.998 39.8802 177.185 41.4681 177.139C43.1601 177.092 44.7064 176.337 46.1433 175.536C49.2827 173.792 52.4169 171.211 54.7493 168.458C55.3584 167.735 55.8686 166.97 56.4413 166.226C56.6704 165.929 56.9932 165.778 57.1129 165.404C57.4149 164.446 56.7953 163.478 56.1966 162.786C55.6448 162.146 55.3064 161.428 54.5723 160.949C53.8747 160.496 52.9895 160.268 52.2554 159.825C51.6567 159.461 50.8238 158.441 50.0325 158.555" fill="#CEC7BB"/>
<path fill-rule="evenodd" clip-rule="evenodd" d="M24.5791 157.322C24.6 157.941 24.3188 160.975 24.3188 160.975L19.982 163.978L23.8764 168.557L37.6417 177.3L52.2504 168.453L56.9984 165.19L52.5679 160.606L52.469 158.633L58.68 163.816L65.9895 194.894C65.9895 194.894 46.4246 204.974 43.9985 205.546C41.5671 206.119 30.2643 208.57 30.2643 208.57C30.2643 208.57 11.5375 196.174 11.4021 195.336C11.2615 194.504 16.7021 164.191 16.7021 164.191C16.7021 164.191 24.5687 156.703 24.5791 157.322Z" fill="#EDE8E0"/>
<path fill-rule="evenodd" clip-rule="evenodd" d="M16.8691 164.035C17.1607 165.128 19.8315 167.1 20.3157 167.803C22.872 171.518 26.8808 174.854 30.5668 177.42C32.0402 178.445 33.5813 180.24 35.3202 180.771C37.5901 181.463 41.4738 178.112 43.5355 177.133C44.2019 176.821 44.8267 176.426 45.4254 175.994C45.6806 175.812 46.1075 175.161 46.2168 175.463C46.4615 176.129 44.4779 177.961 44.0926 178.424C42.4474 180.422 39.6777 183.258 38.4907 185.538C38.0169 186.459 38.7355 188.004 38.8396 188.941C39.0843 191.21 39.6673 194.488 39.2716 196.747C38.9697 198.5 36.4655 201.201 35.5492 202.867C35.4243 203.09 34.2424 204.277 34.3101 204.521C34.5027 205.208 38.1835 203.902 38.4907 203.845C39.5059 203.647 40.516 203.335 41.5364 203.168C43.218 202.887 44.7226 202.206 46.3053 201.597C49.3561 200.421 52.355 199.109 55.4475 198.022C55.6557 197.949 55.0413 198.199 54.8591 198.318C54.5103 198.553 54.146 198.756 53.8023 198.99C52.7142 199.729 51.5063 200.41 50.4859 201.233C48.9865 202.44 47.5496 203.642 46.045 204.75C45.0714 205.177 44.353 205.463 43.9989 205.547C41.5676 206.119 30.6709 207.493 30.6709 207.493C30.6709 207.493 11.944 195.102 11.8035 194.265C11.6681 193.427 16.7026 164.191 16.7026 164.191L16.8691 164.035Z" fill="#CEC7BB"/>
<path fill-rule="evenodd" clip-rule="evenodd" d="M25.4748 146.836C25.1208 152.852 23.4912 168.339 23.4912 168.339C23.4912 168.339 34.5493 177.295 37.0743 177.846C39.5993 178.393 51.1312 169.301 51.1312 169.301L53.1928 167.709C53.1928 167.709 51.985 153.258 52.3338 148.111C52.5473 144.88 52.9066 141.31 53.1461 139.098C53.8541 137.901 54.4945 136.798 54.9839 135.924C55.7648 134.529 56.8632 133.025 57.337 131.49C57.5973 130.637 57.3734 129.512 57.4619 128.638C57.7379 125.896 57.6911 123.122 57.6911 120.359C57.6911 118.803 57.6911 117.247 57.6911 115.696C57.6911 114.504 57.7952 113.339 57.8317 112.158C57.9098 109.602 57.8785 106.938 58.2169 104.404C58.3887 103.113 58.826 101.734 58.6698 100.418C58.5501 99.434 57.3578 99.2623 56.5613 99.3612C54.3017 99.6422 52.9689 101.51 51.8808 103.29C51.0426 104.664 50.0848 105.668 49.611 107.276C48.8821 109.769 48.8613 112.256 48.2001 114.593C47.9346 114.567 47.6743 114.536 47.4296 114.51C47.1589 114.478 46.7632 114.562 46.3467 114.655C45.0087 109.93 42.7647 102.645 41.8745 98.6899C41.4267 96.6968 42.14 82.7233 42.4732 79.4698C42.7231 77.0063 42.5773 73.9798 41.2237 71.8108C40.6458 70.8871 37.6522 68.3403 36.6838 69.5335C36.0226 70.3459 35.4239 78.0705 34.7159 80.3087C33.7683 83.3072 32.3783 86.531 32.0295 89.684C32.0139 89.8084 32.0086 89.9333 32.0086 90.0577C31.4672 85.8441 31.0871 81.6461 31.1808 77.4731C31.2537 74.1379 28.3643 71.1473 26.1777 68.9288C25.5685 68.3091 23.5693 67.3146 22.8456 68.3694C22.1948 69.3103 22.1896 72.1266 22.3667 73.1081C22.7727 75.3843 22.5541 78.0929 22.5541 80.4102C22.5541 83.8994 22.1064 86.9374 22.6582 90.4053C22.7624 91.0376 22.8509 91.6724 22.9394 92.3094L22.8925 92.1517C21.945 89.7522 22.0178 87.0066 21.1484 84.5853C20.1956 81.9209 17.9361 79.3881 15.8172 77.5699C14.3959 76.3511 8.14839 73.5202 7.90369 77.3701C7.83601 78.4384 8.93979 79.704 9.38752 80.6282C10.6474 83.2281 11.6887 86.1204 12.402 88.9206C13.8753 94.7089 15.458 100.433 16.9001 106.209C15.5777 103.628 14.1721 101.058 12.5425 98.6899C10.2986 95.427 8.31507 91.9243 4.47286 90.3808C2.72876 89.6794 1.56253 88.9071 0.27659 90.614C-0.858372 92.1241 1.82799 94.9171 2.4215 96.1504C5.02983 101.557 7.14882 107.157 9.89251 112.511C13.7868 120.114 16.3431 128.217 18.8005 136.413C20.2738 141.336 21.643 144.073 25.4748 146.836ZM32.2168 91.6407C32.2325 91.7609 32.2481 91.8816 32.269 92.0018C32.2846 92.1226 32.3002 92.2428 32.3159 92.363C32.295 92.122 32.2585 91.8811 32.2168 91.6407Z" fill="#F6BC8B"/>
<path fill-rule="evenodd" clip-rule="evenodd" d="M21.3877 142.647C21.9656 143.178 22.6476 143.657 23.0537 144.115C27.6039 149.22 34.2836 149.001 40.505 148.538C42.2908 148.403 44.467 147.752 45.982 146.8C46.5807 146.425 47.2419 146.17 47.8042 145.744C47.825 145.728 48.5539 145.083 48.5591 145.291C48.5799 145.874 47.4814 146.545 47.1274 146.914C46.0236 148.054 44.5294 149.058 43.0665 149.683C42.0929 150.099 40.7965 150.302 40.0208 151.093C39.3856 151.749 39.3024 152.613 39.0994 153.461C38.5579 155.719 38.2091 158.03 38.0268 160.346C37.5739 166.169 37.6936 172.044 37.3239 177.867C37.2302 177.867 37.1469 177.862 37.0741 177.846C34.549 177.295 23.4909 168.339 23.4909 168.339C23.4909 168.339 25.1205 152.852 25.4745 146.836C23.6419 145.515 22.3769 144.198 21.3877 142.647Z" fill="url(#paint8_linear_561_1261)"/>
<path fill-rule="evenodd" clip-rule="evenodd" d="M6.7373 91.6413C9.18945 93.434 10.7878 96.1348 12.5423 98.6899C14.1719 101.058 15.5775 103.628 16.8999 106.21C15.7337 101.531 14.4738 96.8894 13.2555 92.222C14.2239 94.9796 15.0466 97.7845 15.7963 100.626C16.1607 102 16.6448 103.368 17.1394 104.695C17.3789 105.351 17.988 106.017 18.0609 106.725C18.0869 106.98 17.3008 107.073 17.1706 107.131C16.3897 107.459 15.3068 108.041 14.4582 108.109C14.0001 108.145 14.6769 106.803 14.7446 106.688C15.1298 105.996 15.0569 104.914 14.9267 104.164C14.7705 103.28 13.9688 102.26 13.6252 101.438C12.5423 98.8565 11.5687 97.0767 9.7309 94.9379C8.8979 93.97 7.85141 93.1894 7.09651 92.1487C6.97156 91.9811 6.85184 91.812 6.7373 91.6413ZM22.5955 77.9254C23.6472 84.2872 23.4337 90.5297 24.6676 96.8374C24.9852 98.4558 25.2768 100.288 25.8287 101.849C25.938 102.161 25.9328 103.046 26.1618 103.233C26.6356 103.613 27.8226 103.275 28.3745 103.28C28.588 103.28 27.9789 103.431 27.7706 103.472C27.4426 103.54 27.1667 103.717 26.8543 103.811C25.8443 104.107 24.7405 104.518 23.6993 104.674C22.7153 104.82 23.8191 101.963 23.8399 101.609C23.9544 99.637 22.6319 92.375 22.4549 90.9013L22.429 90.6598C22.5487 91.1677 22.6997 91.6668 22.8923 92.1518L22.9392 92.3095C22.8507 91.6725 22.7622 91.0376 22.658 90.4054C22.1062 86.9375 22.5539 83.8994 22.5539 80.4102C22.5539 79.6167 22.5799 78.7773 22.5955 77.9254ZM36.6004 69.6715C37.4542 72.0944 36.918 74.3998 36.5795 77.265C35.9652 82.498 34.5699 87.5807 33.9868 92.7851C33.7838 94.6309 33.8358 96.4939 33.8358 98.3621C33.8358 98.6483 33.664 100.001 33.7994 100.215C33.8618 100.319 34.7105 99.611 34.7678 99.5746C35.3196 99.2312 36.4233 98.8096 37.0793 98.7576C37.2563 98.742 36.8138 98.9918 36.6732 99.1063C36.314 99.3873 35.8923 99.559 35.5487 99.8608C34.5439 100.74 33.3153 102.088 31.8055 101.828C31.6701 101.802 32.5499 99.8921 32.5551 99.4185C32.5812 97.2485 32.6801 94.9327 32.4041 92.7851C32.2531 91.5986 32.1542 90.4064 32.0865 89.2095C32.5186 86.2089 33.815 83.1574 34.7157 80.3088C35.3925 78.1648 35.9704 70.985 36.6004 69.6715Z" fill="#DE9254"/>
<path fill-rule="evenodd" clip-rule="evenodd" d="M41.7334 94.9275C41.7178 96.7541 41.7542 98.1539 41.874 98.6899C42.7642 102.645 45.0082 109.93 46.3462 114.655C46.7627 114.562 47.1584 114.478 47.4291 114.51C47.6738 114.536 47.9341 114.567 48.1996 114.593C48.7515 112.642 48.8556 110.581 49.3033 108.499C49.1992 109.139 49.1211 109.779 49.0586 110.414C48.6942 114.442 48.8348 118.345 46.3931 121.832C44.8 124.106 42.1344 125.511 40.5256 127.738C39.5104 129.143 39.0158 131.807 36.9541 132.057C34.7466 132.328 32.6589 130.678 30.6701 129.96C29.4154 129.507 28.0618 129.502 26.755 129.367C26.6665 129.362 25.6201 129.232 25.6097 129.127C25.5368 128.498 27.4891 128.258 27.8171 128.191C30.0454 127.707 32.2164 126.957 34.4603 126.515C35.6942 126.276 36.8812 126.229 37.9589 125.516C40.2965 123.97 39.1407 119.948 38.4638 119.953C36.574 119.958 34.6841 120.062 32.8671 120.671C30.0506 121.613 26.7863 124.106 23.7303 124.095C23.496 124.095 24.1102 123.819 24.2977 123.674C24.6257 123.419 24.9328 123.174 25.3337 123.034C26.5103 122.628 27.8431 122.31 28.9572 121.748C31.1022 120.671 33.3149 119.771 35.465 118.668C36.2564 118.262 37.7662 118.043 38.3441 117.325C38.8752 116.654 38.6825 115.087 38.6149 114.286C38.594 114.078 38.0943 114.208 38.0005 114.239C37.1623 114.551 36.246 114.707 35.3609 114.858C32.7839 115.29 30.5973 115.915 28.2493 117.169C27.8952 117.356 25.1724 119.1 25.0423 118.933C24.8236 118.647 25.2244 117.991 25.3962 117.741C26.1511 116.643 26.7811 116.284 28.0411 115.915C29.4103 115.514 30.6962 114.905 32.0551 114.494C33.4659 114.067 39.4947 113.635 41.2023 110.482C43.2224 106.751 40.8119 100.199 40.8067 99.6162C40.8015 98.0134 41.1034 96.4002 41.7334 94.9275Z" fill="#DE9254"/>
<path fill-rule="evenodd" clip-rule="evenodd" d="M40.6254 131.672C41.6614 129.715 42.9734 128.118 44.4103 126.458C46.1544 124.449 47.7111 122.394 49.7571 120.723C50.1684 120.385 50.7879 119.406 51.4023 119.521C51.824 119.604 51.7147 120.754 51.7199 121.02C51.7303 122.487 51.824 123.97 51.824 125.448C51.824 130.579 48.5649 134.935 45.3214 138.593C44.4415 139.582 43.3482 141.315 42.1768 141.997C41.2449 142.533 39.9329 141.481 39.1415 141.143C36.679 140.082 34.0915 139.343 31.6498 138.281C30.8897 137.953 30.4575 137.011 30.697 136.21C31.5092 133.462 35.1483 134.914 37.059 134.17C38.1575 133.743 38.824 132.619 39.8079 132.182" fill="url(#paint9_linear_561_1261)"/>
<path fill-rule="evenodd" clip-rule="evenodd" d="M35.83 102.681C34.7991 102.109 32.498 104.289 31.665 104.768C31.0246 105.138 30.3685 105.434 29.7386 105.819C29.3377 106.064 28.9264 106.256 28.5724 106.569C26.0526 108.785 30.7955 109.41 32.2793 110.076C33.5288 110.633 35.8612 112.782 37.4543 112.256C38.1467 112.033 38.7194 110.924 39.0109 110.321C39.8387 108.593 41.3225 100.813 37.4543 101.656" fill="url(#paint10_linear_561_1261)"/>
<defs>
<linearGradient id="paint0_linear_561_1261" x1="175.461" y1="96.2281" x2="114.228" y2="79.6613" gradientUnits="userSpaceOnUse">
<stop stop-color="#DE9254" stop-opacity="0"/>
<stop offset="1" stop-color="#DE9254"/>
</linearGradient>
<linearGradient id="paint1_linear_561_1261" x1="127.564" y1="79.1508" x2="107.988" y2="129.889" gradientUnits="userSpaceOnUse">
<stop stop-color="#DE9254" stop-opacity="0"/>
<stop offset="1" stop-color="#DE9254"/>
</linearGradient>
<linearGradient id="paint2_linear_561_1261" x1="152.752" y1="120.473" x2="154.789" y2="138.925" gradientUnits="userSpaceOnUse">
<stop stop-color="#DE9254" stop-opacity="0"/>
<stop offset="1" stop-color="#DE9254"/>
</linearGradient>
<linearGradient id="paint3_linear_561_1261" x1="90.7366" y1="124.856" x2="100.186" y2="137.549" gradientUnits="userSpaceOnUse">
<stop stop-color="#DE9254" stop-opacity="0"/>
<stop offset="1" stop-color="#DE9254"/>
</linearGradient>
<linearGradient id="paint4_linear_561_1261" x1="142.114" y1="124.973" x2="133.945" y2="137.218" gradientUnits="userSpaceOnUse">
<stop stop-color="white" stop-opacity="0"/>
<stop offset="1" stop-color="white"/>
</linearGradient>
<linearGradient id="paint5_linear_561_1261" x1="142.934" y1="120.488" x2="130.12" y2="130.923" gradientUnits="userSpaceOnUse">
<stop stop-color="white" stop-opacity="0"/>
<stop offset="1" stop-color="white"/>
</linearGradient>
<linearGradient id="paint6_linear_561_1261" x1="175.463" y1="121.552" x2="164.305" y2="125.725" gradientUnits="userSpaceOnUse">
<stop stop-color="white" stop-opacity="0"/>
<stop offset="1" stop-color="white"/>
</linearGradient>
<linearGradient id="paint7_linear_561_1261" x1="176.503" y1="117.165" x2="163.828" y2="119.258" gradientUnits="userSpaceOnUse">
<stop stop-color="white" stop-opacity="0"/>
<stop offset="1" stop-color="white"/>
</linearGradient>
<linearGradient id="paint8_linear_561_1261" x1="54.0673" y1="172.923" x2="24.0804" y2="155.414" gradientUnits="userSpaceOnUse">
<stop stop-color="#DE9254" stop-opacity="0"/>
<stop offset="1" stop-color="#DE9254"/>
</linearGradient>
<linearGradient id="paint9_linear_561_1261" x1="33.6229" y1="148.439" x2="73.6644" y2="113.299" gradientUnits="userSpaceOnUse">
<stop stop-color="#DE9254" stop-opacity="0"/>
<stop offset="1" stop-color="#DE9254"/>
</linearGradient>
<linearGradient id="paint10_linear_561_1261" x1="29.5616" y1="115.327" x2="44.4805" y2="92.314" gradientUnits="userSpaceOnUse">
<stop stop-color="#DE9254" stop-opacity="0"/>
<stop offset="1" stop-color="#DE9254"/>
</linearGradient>
</defs>
</svg>
